<svg width="111" height="106" viewBox="0 0 111 106" fill="none" xmlns="http://www.w3.org/2000/svg">
<path d="M3.16469 63.04H14.9047V65.16H3.16469V63.04ZM1.12469 69.44H17.8847V71.56H1.12469V69.44ZM8.14469 70.94H10.8047V74.82H8.14469V70.94ZM13.3047 63.04H15.9247V64.52C15.9247 66.12 15.9247 67.98 15.3447 70.42L12.7247 70.16C13.3047 67.78 13.3047 66.08 13.3047 64.52V63.04ZM2.80469 74.16H15.9447V80.78H13.2847V76.26H2.80469V74.16ZM20.4431 63.72H29.4231V72.68H20.4431V63.72ZM26.8231 65.82H23.0431V70.58H26.8231V65.82ZM32.2231 62.28H34.9031V75.44H32.2231V62.28ZM22.5631 78.26H35.3631V80.4H22.5631V78.26ZM22.5631 74.24H25.2231V79.2H22.5631V74.24ZM51.2216 62.26H53.7616V80.78H51.2216V62.26ZM48.8016 69.4H51.8816V71.52H48.8016V69.4ZM47.0816 62.58H49.5616V79.9H47.0816V62.58ZM38.6216 64.3H41.2816V75H38.6216V64.3ZM38.6216 74H39.9016C41.6816 74 43.7616 73.9 46.0616 73.46L46.3216 75.74C43.9016 76.18 41.7816 76.28 39.9016 76.28H38.6216V74ZM61.52 62.8C64.34 62.8 66.46 64.56 66.46 67.04C66.46 69.5 64.34 71.26 61.52 71.26C58.7 71.26 56.58 69.5 56.58 67.04C56.58 64.56 58.7 62.8 61.52 62.8ZM61.52 64.96C60.16 64.96 59.14 65.72 59.14 67.04C59.14 68.36 60.16 69.12 61.52 69.12C62.88 69.12 63.88 68.36 63.88 67.04C63.88 65.72 62.88 64.96 61.52 64.96ZM69.02 62.26H71.7V71.52H69.02V62.26ZM59.34 72.28H71.7V77.36H61.98V79.6H59.38V75.44H69.06V74.34H59.34V72.28ZM59.38 78.52H72.16V80.58H59.38V78.52ZM75.2184 63.9H77.7184V68.06H80.0784V63.9H82.5384V76.4H75.2184V63.9ZM77.7184 70.14V74.28H80.0784V70.14H77.7184ZM88.0784 62.26H90.6184V80.78H88.0784V62.26ZM85.7984 69.32H88.8784V71.46H85.7984V69.32ZM84.0184 62.54H86.5184V79.94H84.0184V62.54ZM100.137 71.9H102.797V74.84H100.137V71.9ZM101.477 62.52C105.557 62.52 108.177 63.86 108.177 66.1C108.177 68.32 105.557 69.64 101.477 69.64C97.3969 69.64 94.7769 68.32 94.7769 66.1C94.7769 63.86 97.3969 62.52 101.477 62.52ZM101.477 64.54C98.9369 64.54 97.5169 65.06 97.5169 66.1C97.5169 67.12 98.9369 67.62 101.477 67.62C103.997 67.62 105.437 67.12 105.437 66.1C105.437 65.06 103.997 64.54 101.477 64.54ZM95.0369 74.26H107.837V80.58H95.0369V74.26ZM105.237 76.36H97.6569V78.48H105.237V76.36ZM93.0969 70.58H109.837V72.7H93.0969V70.58ZM26.5031 87.04H29.1031C29.1031 92.76 27.7431 97.52 20.8431 101.02L19.4231 99C25.1831 96.1 26.5031 92.56 26.5031 87.36V87.04ZM20.5631 87.04H28.0831V89.14H20.5631V87.04ZM26.5631 91.58V93.62L19.9231 94.26L19.6031 91.98L26.5631 91.58ZM31.3431 85.24H34.0231V103.76H31.3431V85.24ZM33.3231 92.32H36.5831V94.5H33.3231V92.32ZM39.8616 93.8H52.8816V95.92H39.8616V93.8ZM37.9216 99.38H54.6816V101.56H37.9216V99.38ZM39.8616 86.78H52.7416V88.94H42.5016V94.68H39.8616V86.78ZM56.84 86.08H59.48V88.26H63.1V86.08H65.74V94.18H56.84V86.08ZM59.48 90.26V92.1H63.1V90.26H59.48ZM68.22 85.26H70.88V94.66H68.22V85.26ZM69.8 88.82H73.32V90.98H69.8V88.82ZM58.64 95.38H70.88V100.42H61.32V102.62H58.68V98.52H68.26V97.42H58.64V95.38ZM58.68 101.6H71.42V103.66H58.68V101.6ZM76.6984 95.8H79.3184V97.74H86.8184V95.8H89.4584V103.58H76.6984V95.8ZM79.3184 99.78V101.46H86.8184V99.78H79.3184ZM76.7584 86H88.4984V88.12H76.7584V86ZM74.7184 92.48H91.4784V94.62H74.7184V92.48ZM86.8984 86H89.5184V87.48C89.5184 89.02 89.5184 90.62 88.9984 92.94L86.3184 93.12C86.8984 90.74 86.8984 89.04 86.8984 87.48V86Z" fill="#0075FF"/>
<path fill-rule="evenodd" clip-rule="evenodd" d="M70.1047 25.978V37.6621C70.1047 39.5005 68.6052 41.0245 66.7963 41.0245H31.4027C29.5938 41.0245 28.0943 39.5005 28.0943 37.6621V25.978H70.1047ZM45.7077 0.118197L82.0533 10.9556C84.5287 11.5846 86.5043 15.1164 85.8855 17.6322L80.5538 39.0651C79.935 41.5809 77.9832 43.8307 75.484 43.2017L72.9372 42.5244C74.0083 41.6777 74.5795 40.0327 74.6271 38.412V16.3017C74.7461 12.1893 71.152 9.1413 67.6293 9.1413H37.9245L39.1622 4.13384C39.8048 1.61802 43.2323 -0.53495 45.7077 0.118197ZM30.3792 10.7621H67.8674C70.4142 10.7621 73.199 13.6891 73.199 16.2775V38.3636C73.199 40.952 70.4142 44 67.8674 44H30.4983C27.9514 44 25 41.0246 25 38.4362V16.3017C25 13.7133 27.8324 10.7863 30.3792 10.7863V10.7621ZM67.8674 12.8425H30.3792C28.9511 12.8425 27.0232 14.8503 27.0232 16.3017V38.4603C27.0232 39.9118 29.0463 41.968 30.4745 41.968H67.8674C69.2955 41.968 71.152 39.8634 71.152 38.412V16.3017C71.152 14.8503 69.2955 12.8425 67.8674 12.8425ZM31.3313 28.8809H48.921V31.2757H31.3313V28.8809ZM31.3313 33.5013H41.3044V35.8961H31.3313V33.5013ZM70.1047 17.1484C70.1047 15.3099 68.6052 13.7859 66.7963 13.7859H31.4027C29.5938 13.7859 28.0943 15.3099 28.0943 17.1484V20.269H70.1047V17.1484Z" fill="#4D4D4D"/>
</svg>
