<svg width="115" height="95" viewBox="0 0 115 95" fill="none" xmlns="http://www.w3.org/2000/svg">
<path d="M0.868359 76.68H17.6084V78.74H0.868359V76.68ZM8.12836 78.2H10.8084V81H8.12836V78.2ZM2.80836 82.4H15.7884V84.46H2.80836V82.4ZM2.80836 79.88H5.44836V83.7H2.80836V79.88ZM1.66836 67.76H16.7484V69.76H1.66836V67.76ZM9.24836 70.28C13.1884 70.28 15.4484 71.26 15.4484 73.1C15.4484 74.94 13.1884 75.94 9.24836 75.94C5.30836 75.94 3.04836 74.94 3.04836 73.1C3.04836 71.26 5.30836 70.28 9.24836 70.28ZM9.24836 72.14C6.82836 72.14 5.76836 72.42 5.76836 73.1C5.76836 73.78 6.82836 74.06 9.24836 74.06C11.6484 74.06 12.7284 73.78 12.7284 73.1C12.7284 72.42 11.6484 72.14 9.24836 72.14ZM7.90836 66.18H10.5684V69.04H7.90836V66.18ZM19.9668 75.56H21.3868C24.5268 75.56 26.4668 75.48 28.7268 75.08L29.0068 77.2C26.6868 77.62 24.6268 77.7 21.3868 77.7H19.9668V75.56ZM19.9468 67.52H28.0868V73.5H22.6068V76.84H19.9668V71.5H25.4468V69.64H19.9468V67.52ZM32.1068 66.28H34.7668V79.96H32.1068V66.28ZM29.1468 69.06H32.6068V71.16H29.1468V69.06ZM22.4068 82.3H35.2268V84.44H22.4068V82.3ZM22.4068 78.9H25.0468V83.1H22.4068V78.9ZM29.1468 73.24H32.6068V75.36H29.1468V73.24ZM38.4452 68.1H46.4252V70.2H38.4452V68.1ZM40.8252 73.4H43.4452V79.68H40.8252V73.4ZM45.3652 68.1H47.9852V69.6C47.9852 71.4 47.9852 73.64 47.4852 76.72L44.8852 76.48C45.3652 73.52 45.3652 71.38 45.3652 69.6V68.1ZM49.5652 66.26H52.2252V84.78H49.5652V66.26ZM51.4452 73.7H54.7052V75.9H51.4452V73.7ZM37.7452 81.04L37.5052 78.9C40.7652 78.9 45.0852 78.84 48.7252 78.38L48.8652 80.32C45.1252 80.96 40.9652 81.04 37.7452 81.04ZM66.1037 70.74H69.6237V72.9H66.1037V70.74ZM68.9037 66.26H71.5637V77.26H68.9037V66.26ZM65.2837 77.66C69.2037 77.66 71.6237 79 71.6237 81.24C71.6237 83.5 69.2037 84.8 65.2837 84.8C61.3637 84.8 58.9437 83.5 58.9437 81.24C58.9437 79 61.3637 77.66 65.2837 77.66ZM65.2837 79.68C62.8837 79.68 61.6037 80.18 61.6037 81.24C61.6037 82.28 62.8837 82.78 65.2837 82.78C67.7037 82.78 68.9837 82.28 68.9837 81.24C68.9837 80.18 67.7037 79.68 65.2837 79.68ZM60.3437 68.12H62.5037V69.28C62.5037 72.82 60.8637 76.06 57.3237 77.26L55.9637 75.16C59.0237 74.12 60.3437 71.66 60.3437 69.28V68.12ZM60.9037 68.12H63.0437V69.28C63.0437 71.46 64.3037 73.72 67.2237 74.7L65.9237 76.8C62.4837 75.66 60.9037 72.58 60.9037 69.28V68.12ZM56.6837 67.38H66.6437V69.5H56.6837V67.38ZM88.3948 70.2H92.6948V72.34H88.3948V70.2ZM83.1748 67.4H85.3148V69.4C85.3148 73.18 83.7348 76.4 80.2348 77.68L78.8348 75.6C81.8948 74.58 83.1748 72.02 83.1748 69.4V67.4ZM83.7548 67.4H85.8748V69.42C85.8748 71.8 87.0948 74.18 90.0148 75.18L88.5948 77.22C85.2748 76.02 83.7548 72.92 83.7548 69.42V67.4ZM91.7748 66.28H94.4348V79.94H91.7748V66.28ZM82.1748 82.34H94.8348V84.46H82.1748V82.34ZM82.1748 78.56H84.8548V83.52H82.1748V78.56ZM107.373 70.74H110.893V72.9H107.373V70.74ZM110.173 66.26H112.833V77.26H110.173V66.26ZM106.553 77.66C110.473 77.66 112.893 79 112.893 81.24C112.893 83.5 110.473 84.8 106.553 84.8C102.633 84.8 100.213 83.5 100.213 81.24C100.213 79 102.633 77.66 106.553 77.66ZM106.553 79.68C104.153 79.68 102.873 80.18 102.873 81.24C102.873 82.28 104.153 82.78 106.553 82.78C108.973 82.78 110.253 82.28 110.253 81.24C110.253 80.18 108.973 79.68 106.553 79.68ZM101.613 68.12H103.773V69.28C103.773 72.82 102.133 76.06 98.5932 77.26L97.2332 75.16C100.293 74.12 101.613 71.66 101.613 69.28V68.12ZM102.173 68.12H104.313V69.28C104.313 71.46 105.573 73.72 108.493 74.7L107.193 76.8C103.753 75.66 102.173 72.58 102.173 69.28V68.12ZM97.9532 67.38H107.913V69.5H97.9532V67.38Z" fill="#0075FF"/>
<path fill-rule="evenodd" clip-rule="evenodd" d="M63.9704 24.2411C61.1727 24.3238 59.3279 26.6797 59.3279 29.8002V45.1963C59.3279 49.3088 61.0916 51.7681 65.7747 51.7681H72.9918V43.2124C72.9918 42.8611 73.2756 42.5718 73.6203 42.5718H81.6078V29.8622C81.6078 26.7417 79.763 24.1171 77.0869 24.2618H63.9501L63.9704 24.2411ZM43.0893 34.8634H54.4219V32.2388H43.0893C41.508 32.2388 41.508 34.8634 43.0893 34.8634ZM60.3213 9.89897H41.7919V7.04707C37.8589 7.17107 35.3451 10.147 35.3451 14.5281V36.248C35.3451 42.0551 37.8184 45.5063 44.4273 45.5063H54.4219C54.4219 46.6016 54.3611 47.5729 54.6449 48.6475H41.7919C36.3993 48.6475 32.0001 44.163 32.0001 38.6659V13.4122C31.9798 7.89437 36.3993 3.43054 41.7919 3.43054V0H60.301V3.43054C60.301 2.85189 70.1131 4.00918 70.1131 13.4122V19.3433H66.7478V14.6315C66.7478 10.2296 64.4975 6.77842 60.301 6.98508V9.89897H60.3213ZM43.0893 20.7072H59.0441C60.6254 20.7072 60.6254 18.0827 59.0441 18.0827H43.0893C41.508 18.0827 41.508 20.7072 43.0893 20.7072ZM43.0893 27.9403H54.503C54.5435 26.8863 54.6854 26.101 55.1517 25.3157H43.0893C41.508 25.3157 41.508 27.9403 43.0893 27.9403ZM67.4776 32.7141L69.2413 36.5167L73.377 28.6223H76.6409L70.4577 40.4225L69.0589 43.0884L67.802 40.3605L64.2542 32.6935H67.4573L67.4776 32.7141ZM74.2285 54H63.8893C60.078 54 56.9357 50.8175 56.9357 46.9116V28.9943C56.9357 25.0884 60.078 21.9059 63.9096 21.9059H77.0464C80.8577 21.9059 84 25.0884 84 28.9943V43.853L74.2487 53.9793L74.2285 54ZM81.8713 43.853H74.2487V51.7681L81.8713 43.853Z" fill="#4D4D4D"/>
</svg>
