<svg width="115" height="95" viewBox="0 0 115 95" fill="none" xmlns="http://www.w3.org/2000/svg">
<path d="M0.868359 76.68H17.6084V78.74H0.868359V76.68ZM8.12836 78.2H10.8084V81H8.12836V78.2ZM2.80836 82.4H15.7884V84.46H2.80836V82.4ZM2.80836 79.88H5.44836V83.7H2.80836V79.88ZM1.66836 67.76H16.7484V69.76H1.66836V67.76ZM9.24836 70.28C13.1884 70.28 15.4484 71.26 15.4484 73.1C15.4484 74.94 13.1884 75.94 9.24836 75.94C5.30836 75.94 3.04836 74.94 3.04836 73.1C3.04836 71.26 5.30836 70.28 9.24836 70.28ZM9.24836 72.14C6.82836 72.14 5.76836 72.42 5.76836 73.1C5.76836 73.78 6.82836 74.06 9.24836 74.06C11.6484 74.06 12.7284 73.78 12.7284 73.1C12.7284 72.42 11.6484 72.14 9.24836 72.14ZM7.90836 66.18H10.5684V69.04H7.90836V66.18ZM19.9668 75.56H21.3868C24.5268 75.56 26.4668 75.48 28.7268 75.08L29.0068 77.2C26.6868 77.62 24.6268 77.7 21.3868 77.7H19.9668V75.56ZM19.9468 67.52H28.0868V73.5H22.6068V76.84H19.9668V71.5H25.4468V69.64H19.9468V67.52ZM32.1068 66.28H34.7668V79.96H32.1068V66.28ZM29.1468 69.06H32.6068V71.16H29.1468V69.06ZM22.4068 82.3H35.2268V84.44H22.4068V82.3ZM22.4068 78.9H25.0468V83.1H22.4068V78.9ZM29.1468 73.24H32.6068V75.36H29.1468V73.24ZM38.4452 68.1H46.4252V70.2H38.4452V68.1ZM40.8252 73.4H43.4452V79.68H40.8252V73.4ZM45.3652 68.1H47.9852V69.6C47.9852 71.4 47.9852 73.64 47.4852 76.72L44.8852 76.48C45.3652 73.52 45.3652 71.38 45.3652 69.6V68.1ZM49.5652 66.26H52.2252V84.78H49.5652V66.26ZM51.4452 73.7H54.7052V75.9H51.4452V73.7ZM37.7452 81.04L37.5052 78.9C40.7652 78.9 45.0852 78.84 48.7252 78.38L48.8652 80.32C45.1252 80.96 40.9652 81.04 37.7452 81.04ZM66.1037 70.74H69.6237V72.9H66.1037V70.74ZM68.9037 66.26H71.5637V77.26H68.9037V66.26ZM65.2837 77.66C69.2037 77.66 71.6237 79 71.6237 81.24C71.6237 83.5 69.2037 84.8 65.2837 84.8C61.3637 84.8 58.9437 83.5 58.9437 81.24C58.9437 79 61.3637 77.66 65.2837 77.66ZM65.2837 79.68C62.8837 79.68 61.6037 80.18 61.6037 81.24C61.6037 82.28 62.8837 82.78 65.2837 82.78C67.7037 82.78 68.9837 82.28 68.9837 81.24C68.9837 80.18 67.7037 79.68 65.2837 79.68ZM60.3437 68.12H62.5037V69.28C62.5037 72.82 60.8637 76.06 57.3237 77.26L55.9637 75.16C59.0237 74.12 60.3437 71.66 60.3437 69.28V68.12ZM60.9037 68.12H63.0437V69.28C63.0437 71.46 64.3037 73.72 67.2237 74.7L65.9237 76.8C62.4837 75.66 60.9037 72.58 60.9037 69.28V68.12ZM56.6837 67.38H66.6437V69.5H56.6837V67.38ZM87.2148 77.78C91.2148 77.78 93.7748 79.1 93.7748 81.3C93.7748 83.46 91.2148 84.78 87.2148 84.78C83.2148 84.78 80.6548 83.46 80.6548 81.3C80.6548 79.1 83.2148 77.78 87.2148 77.78ZM87.2148 79.78C84.7148 79.78 83.2948 80.3 83.2948 81.3C83.2948 82.28 84.7148 82.78 87.2148 82.78C89.7148 82.78 91.1348 82.28 91.1348 81.3C91.1348 80.3 89.7148 79.78 87.2148 79.78ZM80.8548 67.08H92.5748V69.18H80.8548V67.08ZM78.9748 74.52H95.6548V76.64H78.9748V74.52ZM85.1548 71.3H87.7948V75.06H85.1548V71.3ZM91.0348 67.08H93.6748V68.6C93.6748 70.06 93.6748 71.64 93.1748 73.56L90.5348 73.28C91.0348 71.38 91.0348 70.04 91.0348 68.6V67.08ZM99.0532 67.82H110.793V69.96H99.0532V67.82ZM97.3532 80.4H114.093V82.56H97.3532V80.4ZM103.273 74.04H105.933V81.46H103.273V74.04ZM109.833 67.82H112.493V69.6C112.493 71.92 112.493 74.52 111.753 78.48L109.093 78.18C109.833 74.5 109.833 71.82 109.833 69.6V67.82Z" fill="#0075FF"/>
<path fill-rule="evenodd" clip-rule="evenodd" d="M30.5441 4.2958L30.4417 43.1798H22V48H53.6357V4.2958H30.5441ZM94 43.1597H81.0302V0H54.5168V47.9798H93.9795V43.1597H94ZM44.7228 22.7899V25.8756H39.58V22.7899H44.7228ZM38.1662 22.7899V25.8756H32.8389V22.7899H38.1662ZM38.1662 40.2756V43.3613H32.8389V40.2756H38.1662ZM51.0336 27.005V30.0908H45.9317V27.005H51.0336ZM44.7228 27.005V30.0908H39.58V27.005H44.7228ZM38.1662 27.005V30.0908H32.8389V27.005H38.1662ZM51.0336 31.442V34.5277H45.9317V31.442H51.0336ZM44.7228 31.442V34.5277H39.58V31.442H44.7228ZM38.1662 31.442V34.5277H32.8389V31.442H38.1662ZM51.0336 35.8387V38.9244H45.9317V35.8387H51.0336ZM44.7228 35.8387V38.9244H39.58V35.8387H44.7228ZM38.1662 35.8387V38.9244H32.8389V35.8387H38.1662ZM51.0336 40.2756V43.3613H45.9317V40.2756H51.0336ZM44.7228 40.2756V43.3613H39.58V40.2756H44.7228ZM51.0336 9.49916V12.5849H45.9317V9.49916H51.0336ZM44.7228 9.49916V12.5849H39.58V9.49916H44.7228ZM38.1662 9.49916V12.5849H32.8389V9.49916H38.1662ZM51.0336 13.9563V17.042H45.9317V13.9563H51.0336ZM44.7228 13.9563V17.042H39.58V13.9563H44.7228ZM38.1662 13.9563V17.042H32.8389V13.9563H38.1662ZM51.0336 18.3328V21.4185H45.9317V18.3328H51.0336ZM44.7228 18.3328V21.4185H39.58V18.3328H44.7228ZM38.1662 18.3328V21.4185H32.8389V18.3328H38.1662ZM51.0336 22.7899V25.8756H45.9317V22.7899H51.0336ZM72.1377 20.7126V24.3025H78.2026V20.7126H72.1377ZM72.1377 41.0824V44.6723H78.2026V41.0824H72.1377ZM57.3238 25.6941V29.284H63.2043V25.6941H57.3238ZM64.6181 25.6941V29.284H70.4986V25.6941H64.6181ZM72.1377 25.6941V29.284H78.2026V25.6941H72.1377ZM57.3238 30.8168V34.4067H63.2043V30.8168H57.3238ZM64.6181 30.8168V34.4067H70.4986V30.8168H64.6181ZM72.1377 30.8168V34.4067H78.2026V30.8168H72.1377ZM57.3238 35.9798V39.5092H63.2043V35.9798H57.3238ZM64.6181 35.9798V39.5092H70.4986V35.9798H64.6181ZM72.1377 35.9798V39.5092H78.2026V35.9798H72.1377ZM57.3238 41.0824V44.6723H63.2043V41.0824H57.3238ZM64.6181 41.0824V44.6723H70.4986V41.0824H64.6181ZM57.3238 5.32437V8.91429H63.2043V5.32437H57.3238ZM64.6181 5.32437V8.91429H70.4986V5.32437H64.6181ZM72.1377 5.32437V8.91429H78.2026V5.32437H72.1377ZM57.3238 10.4471V14.037H63.2043V10.4471H57.3238ZM64.6181 10.4471V14.037H70.4986V10.4471H64.6181ZM72.1377 10.4471V14.037H78.2026V10.4471H72.1377ZM57.3238 15.6101V19.1395H63.2043V15.6101H57.3238ZM64.6181 15.6101V19.1395H70.4986V15.6101H64.6181ZM72.1377 15.6101V19.1395H78.2026V15.6101H72.1377ZM57.3238 20.7126V24.3025H63.2043V20.7126H57.3238ZM64.6181 20.7126V24.3025H70.4986V20.7126H64.6181Z" fill="#4D4D4D"/>
</svg>
