<svg width="86" height="97" viewBox="0 0 86 97" fill="none" xmlns="http://www.w3.org/2000/svg">
<path d="M7.00298 81.1922H23.743V83.2522H7.00298V81.1922ZM14.263 82.7122H16.943V85.5122H14.263V82.7122ZM8.94298 86.9122H21.923V88.9722H8.94298V86.9122ZM8.94298 84.3922H11.583V88.2122H8.94298V84.3922ZM7.80298 72.2722H22.883V74.2722H7.80298V72.2722ZM15.383 74.7922C19.323 74.7922 21.583 75.7722 21.583 77.6122C21.583 79.4522 19.323 80.4522 15.383 80.4522C11.443 80.4522 9.18298 79.4522 9.18298 77.6122C9.18298 75.7722 11.443 74.7922 15.383 74.7922ZM15.383 76.6522C12.963 76.6522 11.903 76.9322 11.903 77.6122C11.903 78.2922 12.963 78.5722 15.383 78.5722C17.783 78.5722 18.863 78.2922 18.863 77.6122C18.863 76.9322 17.783 76.6522 15.383 76.6522ZM14.043 70.6922H16.703V73.5522H14.043V70.6922ZM26.1014 80.0722H27.5214C30.6614 80.0722 32.6014 79.9922 34.8614 79.5922L35.1414 81.7122C32.8214 82.1322 30.7614 82.2122 27.5214 82.2122H26.1014V80.0722ZM26.0814 72.0322H34.2214V78.0122H28.7414V81.3522H26.1014V76.0122H31.5814V74.1522H26.0814V72.0322ZM38.2414 70.7922H40.9014V84.4722H38.2414V70.7922ZM35.2814 73.5722H38.7414V75.6722H35.2814V73.5722ZM28.5414 86.8122H41.3614V88.9522H28.5414V86.8122ZM28.5414 83.4122H31.1814V87.6122H28.5414V83.4122ZM35.2814 77.7522H38.7414V79.8722H35.2814V77.7522ZM56.5199 70.7722H59.1999V80.1322H56.5199V70.7722ZM46.8399 80.9522H59.1999V85.9722H49.4799V87.8322H46.8799V84.0522H56.5599V82.9722H46.8399V80.9522ZM46.8799 87.1122H59.6599V89.1722H46.8799V87.1122ZM48.1399 71.1922H50.3399V72.5922C50.3399 76.0122 48.6199 79.1122 44.9999 80.2122L43.7199 78.1122C46.8199 77.1722 48.1399 74.8522 48.1399 72.5922V71.1922ZM48.6799 71.1922H50.8599V72.5922C50.8599 74.7922 52.1599 76.9522 55.1799 77.8122L53.8999 79.8722C50.3399 78.8322 48.6799 75.9322 48.6799 72.5922V71.1922ZM66.7183 72.1922H68.8783V74.8922C68.8783 79.6522 67.2383 83.9522 63.5583 85.6522L61.9783 83.4522C65.1983 82.0522 66.7183 78.4922 66.7183 74.8922V72.1922ZM67.2383 72.1922H69.3983V74.8922C69.3983 78.3122 70.8583 81.7122 74.0183 83.0722L72.4583 85.2122C68.8783 83.5722 67.2383 79.4522 67.2383 74.8922V72.1922ZM74.8983 70.7522H77.5783V89.3322H74.8983V70.7522Z" fill="#0075FF"/>
<path fill-rule="evenodd" clip-rule="evenodd" d="M69.2942 50.44C70.1795 43.5033 64.5569 30.2736 49.9143 26.0067C54.1253 23.5991 56.9724 19.0938 56.9724 13.9211C56.9724 6.22157 50.7039 0 42.9997 0C35.2956 0 29.0271 6.24541 29.0271 13.9211C29.0271 19.0938 31.8742 23.6229 36.0852 26.0067C21.4426 30.2497 15.82 43.5033 16.7053 50.44H69.2942Z" fill="#4D4D4D"/>
</svg>
