<svg width="74" height="85" viewBox="0 0 74 85" fill="none" xmlns="http://www.w3.org/2000/svg">
<path d="M1.00313 73.68H17.7431V75.74H1.00313V73.68ZM8.26313 75.2H10.9431V78H8.26313V75.2ZM2.94313 79.4H15.9231V81.46H2.94313V79.4ZM2.94313 76.88H5.58313V80.7H2.94313V76.88ZM1.80313 64.76H16.8831V66.76H1.80313V64.76ZM9.38313 67.28C13.3231 67.28 15.5831 68.26 15.5831 70.1C15.5831 71.94 13.3231 72.94 9.38313 72.94C5.44313 72.94 3.18313 71.94 3.18313 70.1C3.18313 68.26 5.44313 67.28 9.38313 67.28ZM9.38313 69.14C6.96313 69.14 5.90313 69.42 5.90313 70.1C5.90313 70.78 6.96313 71.06 9.38313 71.06C11.7831 71.06 12.8631 70.78 12.8631 70.1C12.8631 69.42 11.7831 69.14 9.38313 69.14ZM8.04313 63.18H10.7031V66.04H8.04313V63.18ZM20.1016 72.56H21.5216C24.6616 72.56 26.6016 72.48 28.8616 72.08L29.1416 74.2C26.8216 74.62 24.7616 74.7 21.5216 74.7H20.1016V72.56ZM20.0816 64.52H28.2216V70.5H22.7416V73.84H20.1016V68.5H25.5816V66.64H20.0816V64.52ZM32.2416 63.28H34.9016V76.96H32.2416V63.28ZM29.2816 66.06H32.7416V68.16H29.2816V66.06ZM22.5416 79.3H35.3616V81.44H22.5416V79.3ZM22.5416 75.9H25.1816V80.1H22.5416V75.9ZM29.2816 70.24H32.7416V72.36H29.2816V70.24ZM50.52 63.26H53.2V72.62H50.52V63.26ZM40.84 73.44H53.2V78.46H43.48V80.32H40.88V76.54H50.56V75.46H40.84V73.44ZM40.88 79.6H53.66V81.66H40.88V79.6ZM42.14 63.68H44.34V65.08C44.34 68.5 42.62 71.6 39 72.7L37.72 70.6C40.82 69.66 42.14 67.34 42.14 65.08V63.68ZM42.68 63.68H44.86V65.08C44.86 67.28 46.16 69.44 49.18 70.3L47.9 72.36C44.34 71.32 42.68 68.42 42.68 65.08V63.68ZM60.7184 64.68H62.8784V67.38C62.8784 72.14 61.2384 76.44 57.5584 78.14L55.9784 75.94C59.1984 74.54 60.7184 70.98 60.7184 67.38V64.68ZM61.2384 64.68H63.3984V67.38C63.3984 70.8 64.8584 74.2 68.0184 75.56L66.4584 77.7C62.8784 76.06 61.2384 71.94 61.2384 67.38V64.68ZM68.8984 63.24H71.5784V81.82H68.8984V63.24Z" fill="#0075FF"/>
<g clip-path="url(#clip0_405_37)">
<path d="M10.2785 45.6648H24.0404C23.2965 44.3237 22.7386 42.8902 22.4131 41.3411H10.2785C9.58116 41.3411 9 41.9191 9 42.6127V44.3931C9 45.0867 9.58116 45.6648 10.2785 45.6648Z" fill="#4D4D4D"/>
<path d="M33.8734 40.9942L34.2453 38.8208H33.6177L33.8734 40.9942Z" fill="#4D4D4D"/>
<path d="M10.2785 50.844H26.0628C26.7137 50.844 27.2484 50.3584 27.3181 49.7341C26.2488 48.7862 25.2957 47.7226 24.5285 46.5203H10.2785C9.58116 46.5203 9 47.0983 9 47.7919V49.5723C9 50.2659 9.58116 50.844 10.2785 50.844Z" fill="#4D4D4D"/>
<path d="M26.0628 51.6763H10.2785C9.57243 51.6763 9 52.2456 9 52.9479V54.7283C9 55.4306 9.57243 56 10.2785 56H26.0628C26.7689 56 27.3414 55.4306 27.3414 54.7283V52.9479C27.3414 52.2456 26.7689 51.6763 26.0628 51.6763Z" fill="#4D4D4D"/>
<path d="M10.2785 40.5088H22.2737C22.1574 39.7689 22.1109 39.0059 22.1109 38.2197C22.1109 37.5261 22.1574 36.8556 22.2504 36.1851H10.2785C9.58116 36.1851 9 36.7631 9 37.4567V39.2371C9 39.9307 9.58116 40.5088 10.2785 40.5088Z" fill="#4D4D4D"/>
<path d="M45.3807 5.1792H29.5964C28.8903 5.1792 28.3179 5.74855 28.3179 6.45088V8.23122C28.3179 8.93355 28.8903 9.5029 29.5964 9.5029H45.3807C46.0868 9.5029 46.6592 8.93355 46.6592 8.23122V6.45088C46.6592 5.74855 46.0868 5.1792 45.3807 5.1792Z" fill="#4D4D4D"/>
<path d="M45.3807 0H29.5964C28.8903 0 28.3179 0.569349 28.3179 1.27168V3.05202C28.3179 3.75435 28.8903 4.3237 29.5964 4.3237H45.3807C46.0868 4.3237 46.6592 3.75435 46.6592 3.05202V1.27168C46.6592 0.569349 46.0868 0 45.3807 0Z" fill="#4D4D4D"/>
<path d="M29.5964 10.3352H45.3807C46.0781 10.3352 46.6592 10.9132 46.6592 11.6069V13.3872C46.6592 14.0809 46.0781 14.6589 45.3807 14.6589H29.5964C28.899 14.6589 28.3179 14.0809 28.3179 13.3872V11.6069C28.3179 10.9132 28.899 10.3352 29.5964 10.3352Z" fill="#4D4D4D"/>
<path d="M29.5961 24.9941H29.7124C31.9905 23.6531 34.6638 22.8901 37.4999 22.8901C40.3359 22.8901 42.986 23.6531 45.2874 24.9941H45.4036C46.101 24.9941 46.6822 24.4161 46.6822 23.7224V21.9421C46.6822 21.2484 46.101 20.6704 45.4036 20.6704H29.6194C28.922 20.6704 28.3408 21.2484 28.3408 21.9421V23.7224C28.3408 24.4161 28.922 24.9941 29.6194 24.9941H29.5961Z" fill="#4D4D4D"/>
<path d="M29.5964 15.5144H45.3807C46.0781 15.5144 46.6592 16.0924 46.6592 16.7861V18.5664C46.6592 19.2601 46.0781 19.8381 45.3807 19.8381H29.5964C28.899 19.8381 28.3179 19.2601 28.3179 18.5664V16.7861C28.3179 16.0924 28.899 15.5144 29.5964 15.5144Z" fill="#4D4D4D"/>
<path d="M45.4038 51.6763H44.8692C42.684 52.8555 40.1734 53.526 37.5233 53.526C34.8732 53.526 32.3626 52.8555 30.1775 51.6763H29.6428C28.9454 51.6763 28.3643 52.2543 28.3643 52.9479V54.7283C28.3643 55.4219 28.9454 56 29.6428 56H45.4271C46.1245 56 46.7056 55.4219 46.7056 54.7283V52.9479C46.7056 52.2543 46.1245 51.6763 45.4271 51.6763H45.4038Z" fill="#4D4D4D"/>
<path d="M64.7214 36.1851H52.7728C52.8657 36.8556 52.9122 37.5261 52.9122 38.2197C52.9122 38.9827 52.8657 39.7458 52.7495 40.5088H64.7446C65.442 40.5088 66.0232 39.9307 66.0232 39.2371V37.4567C66.0232 36.7631 65.442 36.1851 64.7446 36.1851H64.7214Z" fill="#4D4D4D"/>
<path d="M64.7215 31.0059H51.0991C51.8198 32.3469 52.3312 33.8035 52.6334 35.3296H64.7215C65.4189 35.3296 66 34.7515 66 34.0579V32.2775C66 31.5839 65.4189 31.0059 64.7215 31.0059Z" fill="#4D4D4D"/>
<path d="M64.7214 25.8496H48.9371C48.356 25.8496 47.8678 26.2427 47.7051 26.7513C48.8209 27.7456 49.7972 28.9016 50.6109 30.1733H64.7214C65.4188 30.1733 65.9999 29.5953 65.9999 28.9016V27.1213C65.9999 26.4276 65.4188 25.8496 64.7214 25.8496Z" fill="#4D4D4D"/>
<path d="M48.9372 15.5144H64.7215C65.4189 15.5144 66 16.0924 66 16.7861V18.5664C66 19.2601 65.4189 19.8381 64.7215 19.8381H48.9372C48.2399 19.8381 47.6587 19.2601 47.6587 18.5664V16.7861C47.6587 16.0924 48.2399 15.5144 48.9372 15.5144Z" fill="#4D4D4D"/>
<path d="M64.7215 20.6704H48.9372C48.2311 20.6704 47.6587 21.2398 47.6587 21.9421V23.7224C47.6587 24.4248 48.2311 24.9941 48.9372 24.9941H64.7215C65.4276 24.9941 66 24.4248 66 23.7224V21.9421C66 21.2398 65.4276 20.6704 64.7215 20.6704Z" fill="#4D4D4D"/>
<path d="M48.9372 51.6763H64.7215C65.4189 51.6763 66 52.2543 66 52.9479V54.7283C66 55.4219 65.4189 56 64.7215 56H48.9372C48.2399 56 47.6587 55.4219 47.6587 54.7283V52.9479C47.6587 52.2543 48.2399 51.6763 48.9372 51.6763Z" fill="#4D4D4D"/>
<path d="M64.7213 41.3411H52.5867C52.2613 42.8902 51.7034 44.3237 50.9595 45.6648H64.7213C65.4187 45.6648 65.9999 45.0867 65.9999 44.3931V42.6127C65.9999 41.9191 65.4187 41.3411 64.7213 41.3411Z" fill="#4D4D4D"/>
<path d="M37.5001 24.7168C29.9683 24.7168 23.8545 30.7977 23.8545 38.2891C23.8545 45.7804 29.9683 51.8613 37.5001 51.8613C45.0319 51.8613 51.1457 45.7804 51.1457 38.2891C51.1457 30.7977 45.0319 24.7168 37.5001 24.7168ZM46.4499 38.8208H44.6135L43.2652 46.4509H39.4993L37.779 38.8208H37.2909L35.5939 46.4509H31.828L30.4564 38.8208H28.527V35.8613H29.9683L29.1082 31.2833H32.3859L33.1298 35.8613H34.7338L35.6869 31.4451H39.383L40.2432 35.8613H41.9169L42.6375 31.2833H45.9385L45.1016 35.8613H46.4034V38.8208H46.4499Z" fill="#4D4D4D"/>
<path d="M41.2193 41.0405L41.5215 38.8208H40.8706L41.2193 41.0405Z" fill="#4D4D4D"/>
<path d="M64.7215 46.5203H50.4483C49.6811 47.7226 48.728 48.8093 47.6587 49.7341C47.7284 50.3584 48.2863 50.844 48.914 50.844H64.6983C65.3956 50.844 65.9768 50.2659 65.9768 49.5723V47.7919C65.9768 47.0983 65.3956 46.5203 64.6983 46.5203H64.7215Z" fill="#4D4D4D"/>
</g>
<defs>
<clipPath id="clip0_405_37">
<rect width="57" height="56" fill="white" transform="translate(9)"/>
</clipPath>
</defs>
</svg>
