<svg width="186" height="185" viewBox="0 0 186 185" fill="none" xmlns="http://www.w3.org/2000/svg">
<path d="M92.9998 1.33532C143.543 1.23788 184.515 42.0516 184.515 92.4933C184.515 142.935 143.543 183.907 92.9998 184.004C42.4563 184.102 1.48437 143.288 1.48437 92.8462C1.48437 42.4045 42.4563 1.43276 92.9998 1.33532Z" fill="white" stroke="#AAAAAA"/>
<path d="M111.963 35.6941C121.995 45.6988 121.995 61.9161 111.963 71.9207C101.931 81.9253 85.6687 81.9253 75.6365 71.9207C65.6042 61.9161 65.6042 45.6988 75.6365 35.6941C85.6687 25.6895 101.931 25.6895 111.963 35.6941Z" fill="#2D6193"/>
<path d="M97.2475 47.6053V47.4768C97.2475 47.1554 97.226 46.8555 97.1615 46.5556C97.1401 45.5487 96.7534 45.0988 96.5171 44.8632C96.2808 44.6061 96.3022 43.6635 94.4548 43.5349C93.9392 43.5135 93.0799 43.9634 92.3925 44.349C92.2421 44.4133 92.0917 44.4775 91.9628 44.5632C91.791 44.6489 91.6621 44.7132 91.5332 44.756C90.9317 44.9703 90.6954 45.9986 90.6309 46.5556C90.5665 46.8341 90.545 47.134 90.545 47.4768V47.6053C90.545 47.6053 89.965 47.691 90.0294 48.5694C90.0939 49.4691 90.3087 50.3261 90.8243 50.476C90.9532 51.2044 91.168 51.89 91.4472 52.3398C92.0702 53.3253 92.9725 53.968 93.8747 53.9894H93.9177C94.82 53.9894 95.7222 53.3253 96.3452 52.3398C96.6245 51.89 96.8393 51.2044 96.9682 50.476C97.4623 50.3475 97.6986 49.4691 97.763 48.5694C97.8275 47.691 97.3119 47.6053 97.2475 47.6053Z" fill="white"/>
<path d="M93.7891 38.8644C85.5184 38.8644 78.7944 45.5699 78.7944 53.8178C78.7944 57.0099 79.8041 59.9877 81.5442 62.4085C82.5538 63.8439 83.7998 65.0864 85.2176 66.0719C85.3251 66.1576 85.454 66.2218 85.5614 66.3075C86.9362 67.2073 88.483 67.8928 90.1371 68.3213C90.7386 68.4713 91.3401 68.5784 91.9631 68.6426C92.5646 68.7283 93.1661 68.7498 93.7891 68.7498C94.498 68.7498 95.164 68.7069 95.8514 68.6212C96.4099 68.5355 96.947 68.4284 97.4626 68.2999C99.0737 67.8928 100.599 67.2287 101.974 66.3289C102.081 66.2647 102.21 66.179 102.318 66.0933C103.778 65.0864 105.046 63.8439 106.055 62.3871C107.774 59.9663 108.784 56.9884 108.784 53.7964C108.784 45.5485 102.06 38.843 93.7891 38.843V38.8644ZM105.325 60.8446L103.241 56.3457C103.048 55.9173 102.489 55.5102 101.995 55.4246L97.2263 54.5676C96.7322 54.4819 96.367 54.7819 96.4099 55.2532L97.3551 66.8217C96.8396 66.9716 96.3025 67.0788 95.7655 67.1645L95.1854 59.752L94.3691 56.7099L95.078 56.0458C95.078 56.0458 95.1425 55.8959 95.078 55.853L94.0469 54.739C94.0469 54.739 93.8965 54.6747 93.832 54.739L92.8009 55.853C92.8009 55.853 92.7364 55.9816 92.8009 56.0458L93.5313 56.7099L92.715 59.6878L92.1135 67.1859C91.4905 67.1216 90.889 66.9931 90.3089 66.8217L91.3186 55.2317C91.3616 54.7604 90.9964 54.4605 90.5023 54.5462L85.6473 55.4031C85.1747 55.4888 84.6161 55.8959 84.4013 56.3243L82.2961 60.8232C81.0286 58.7666 80.2982 56.3672 80.2982 53.7964C80.2982 46.3625 86.3562 40.3212 93.8106 40.3212C101.265 40.3212 107.323 46.3625 107.323 53.7964C107.323 56.3672 106.593 58.7666 105.325 60.8232V60.8446Z" fill="white"/>
<path d="M33.3524 96.4H47.9024V98.1H33.3524V96.4ZM30.7524 104.5H51.2274V106.2H30.7524V104.5ZM39.9274 105.65H41.9774V110.975H39.9274V105.65ZM46.5524 96.4H48.5774V98.075C48.5774 99.95 48.5774 102.225 47.8274 105.325L45.8024 105.075C46.5524 102.05 46.5524 99.9 46.5524 98.075V96.4ZM32.8774 110.3H48.7274V117.95H46.6524V112H32.8774V110.3ZM51.9255 97.3H62.4505V107.825H51.9255V97.3ZM60.4505 98.975H53.9255V106.15H60.4505V98.975ZM67.1755 95.375H69.2755V111.6H67.1755V95.375ZM54.7505 115.5H69.9505V117.225H54.7505V115.5ZM54.7505 110.05H56.8005V116.2H54.7505V110.05ZM78.0735 96.975C81.5985 96.975 84.1235 99.15 84.1235 102.3C84.1235 105.475 81.5985 107.65 78.0735 107.65C74.5485 107.65 71.9985 105.475 71.9985 102.3C71.9985 99.15 74.5485 96.975 78.0735 96.975ZM78.0735 98.775C75.7235 98.775 74.0235 100.2 74.0235 102.3C74.0235 104.4 75.7235 105.85 78.0735 105.85C80.3985 105.85 82.0985 104.4 82.0985 102.3C82.0985 100.2 80.3985 98.775 78.0735 98.775ZM87.0735 95.325H89.1485V117.975H87.0735V95.325ZM71.1485 113.025L70.8485 111.3C74.9735 111.3 80.6735 111.275 85.5985 110.5L85.7735 112.025C80.6985 113 75.1735 113.025 71.1485 113.025ZM94.7534 113.35H115.228V115.075H94.7534V113.35ZM103.903 107.95H105.978V113.85H103.903V107.95ZM97.1534 96.95H99.2034V100.975H110.728V96.95H112.778V108.5H97.1534V96.95ZM99.2034 102.65V106.8H110.728V102.65H99.2034ZM131.251 95.35H133.326V112.05H131.251V95.35ZM126.376 102.325H131.651V104.05H126.376V102.325ZM124.276 97.1H126.451C126.451 102.925 122.351 107.35 115.976 109.475L115.076 107.8C120.601 105.95 124.276 102.4 124.276 97.925V97.1ZM116.201 97.1H125.626V98.8H116.201V97.1ZM119.051 115.75H133.901V117.45H119.051V115.75ZM119.051 110.375H121.126V116.6H119.051V110.375ZM135.75 97.825H145.975V99.5H135.75V97.825ZM139.275 104.275H141.325V111.925H139.275V104.275ZM145.125 97.825H147.15V99.025C147.15 100.875 147.15 103.825 146.5 108.025L144.45 107.825C145.125 103.75 145.125 100.85 145.125 99.025V97.825ZM150 95.35H152.05V117.95H150V95.35ZM151.5 104.8H155.675V106.55H151.5V104.8ZM134.75 113.025L134.5 111.275C138.6 111.275 144.05 111.2 148.625 110.625L148.725 112.15C144.05 112.9 138.75 113 134.75 113.025ZM57.2515 125.35H59.3265V142.05H57.2515V125.35ZM52.3765 132.325H57.6515V134.05H52.3765V132.325ZM50.2765 127.1H52.4515C52.4515 132.925 48.3515 137.35 41.9765 139.475L41.0765 137.8C46.6015 135.95 50.2765 132.4 50.2765 127.925V127.1ZM42.2015 127.1H51.6265V128.8H42.2015V127.1ZM45.0515 145.75H59.9015V147.45H45.0515V145.75ZM45.0515 140.375H47.1265V146.6H45.0515V140.375ZM76.1995 125.35H78.2745V138.875H76.1995V125.35ZM77.6995 131.175H81.6245V132.925H77.6995V131.175ZM69.9495 127H72.1745C72.1745 132.8 68.1495 137.025 61.6245 138.95L60.7495 137.275C66.4995 135.575 69.9495 132.175 69.9495 127.95V127ZM61.7495 127H71.1245V128.725H61.7495V127ZM71.1995 139.15C75.6745 139.15 78.5245 140.8 78.5245 143.525C78.5245 146.25 75.6745 147.9 71.1995 147.9C66.6995 147.9 63.8245 146.25 63.8245 143.525C63.8245 140.8 66.6995 139.15 71.1995 139.15ZM71.1995 140.8C67.9495 140.8 65.8745 141.825 65.8745 143.525C65.8745 145.225 67.9495 146.25 71.1995 146.25C74.4495 146.25 76.5245 145.225 76.5245 143.525C76.5245 141.825 74.4495 140.8 71.1995 140.8ZM90.9476 125.725C95.9226 125.725 98.8976 127.125 98.8976 129.65C98.8976 132.175 95.9226 133.575 90.9476 133.575C85.9476 133.575 82.9976 132.175 82.9976 129.65C82.9976 127.125 85.9476 125.725 90.9476 125.725ZM90.9476 127.3C87.2476 127.3 85.1226 128.15 85.1226 129.65C85.1226 131.15 87.2476 132 90.9476 132C94.6226 132 96.7476 131.15 96.7476 129.65C96.7476 128.15 94.6226 127.3 90.9476 127.3ZM80.7226 135.075H101.148V136.75H80.7226V135.075ZM83.1976 138.675H98.5476V143.775H85.2976V146.525H83.2476V142.275H96.4976V140.275H83.1976V138.675ZM83.2476 146.075H99.2226V147.7H83.2476V146.075ZM104.752 143.35H125.227V145.075H104.752V143.35ZM113.902 137.95H115.977V143.85H113.902V137.95ZM107.152 126.95H109.202V130.975H120.727V126.95H122.777V138.5H107.152V126.95ZM109.202 132.65V136.8H120.727V132.65H109.202ZM125.75 128.65H144.1V130.35H125.75V128.65ZM124.75 143.6H145.225V145.325H124.75V143.6ZM133.925 140.025H135.975V144.275H133.925V140.025ZM134.925 131.875C139.5 131.875 142.325 133.45 142.325 136.175C142.325 138.9 139.5 140.475 134.925 140.475C130.375 140.475 127.55 138.9 127.55 136.175C127.55 133.45 130.375 131.875 134.925 131.875ZM134.925 133.5C131.65 133.5 129.625 134.5 129.625 136.175C129.625 137.85 131.65 138.825 134.925 138.825C138.225 138.825 140.225 137.85 140.225 136.175C140.225 134.5 138.225 133.5 134.925 133.5ZM133.925 125.725H135.975V129.7H133.925V125.725Z" fill="#575757"/>
</svg>
