<svg width="186" height="186" viewBox="0 0 186 186" fill="none" xmlns="http://www.w3.org/2000/svg">
<path d="M92.9999 1.54634C143.579 1.63071 184.583 42.7718 184.583 93.4393C184.583 144.107 143.579 185.111 92.9999 185.027C42.4209 184.942 1.41699 143.801 1.41699 93.1337C1.41699 42.4662 42.4209 1.46196 92.9999 1.54634Z" fill="white" stroke="#AAAAAA"/>
<path d="M111.963 36.0172C121.995 46.0734 121.995 62.3744 111.963 72.4306C101.931 82.4867 85.6687 82.4867 75.6365 72.4306C65.6042 62.3744 65.6042 46.0734 75.6365 36.0172C85.6687 25.961 101.931 25.961 111.963 36.0172Z" fill="#07A6C2"/>
<path d="M103.327 44.0062H101.608V41.8313C101.608 41.1853 101.093 40.6685 100.448 40.6685C99.8039 40.6685 99.2884 41.1853 99.2884 41.8313V44.0062H88.5257V41.8313C88.5257 41.1853 88.0102 40.6685 87.3657 40.6685C86.7212 40.6685 86.2056 41.1853 86.2056 41.8313V44.0062H84.2722C83.0048 44.0062 81.9521 45.0398 81.9521 46.3318V65.4321C81.9521 66.7026 82.9833 67.7577 84.2722 67.7577H98.3861L99.5032 66.638L104.53 61.5991L105.647 60.4794V46.3318C105.647 45.0613 104.616 44.0062 103.327 44.0062ZM99.2884 44.0923H101.608V46.2887C101.608 46.9347 101.093 47.4515 100.448 47.4515C99.8039 47.4515 99.2884 46.9347 99.2884 46.2887V44.0923ZM86.2056 44.0923H88.5257V46.2887C88.5257 46.9347 88.0102 47.4515 87.3657 47.4515C86.7212 47.4515 86.2056 46.9347 86.2056 46.2887V44.0923ZM104.53 60.5009H100.212C98.6224 60.5009 98.3217 61.5345 98.3217 62.7835V66.6595H84.2508C83.5848 66.6595 83.0477 66.1212 83.0477 65.4536V48.4206H104.509V60.5009H104.53Z" fill="white"/>
<path d="M88.6764 50.8323H84.8311V54.6868H88.6764V50.8323Z" fill="white"/>
<path d="M93.381 50.8323H89.5356V54.6868H93.381V50.8323Z" fill="white"/>
<path d="M98.1066 50.8323H94.2612V54.6868H98.1066V50.8323Z" fill="white"/>
<path d="M102.833 50.8323H98.9878V54.6868H102.833V50.8323Z" fill="white"/>
<path d="M88.6764 55.5483H84.8311V59.4029H88.6764V55.5483Z" fill="white"/>
<path d="M93.381 55.5483H89.5356V59.4029H93.381V55.5483Z" fill="white"/>
<path d="M98.1066 55.5483H94.2612V59.4029H98.1066V55.5483Z" fill="white"/>
<path d="M102.833 55.5483H98.9878V59.4029H102.833V55.5483Z" fill="white"/>
<path d="M88.6764 60.2856H84.8311V64.1402H88.6764V60.2856Z" fill="white"/>
<path d="M93.381 60.2856H89.5356V64.1402H93.381V60.2856Z" fill="white"/>
<path d="M47.4559 95.35H49.5309V117.95H47.4559V95.35ZM31.5559 97.775H44.3559V99.475H31.5559V97.775ZM31.2059 112.375L30.9559 110.6C35.1559 110.6 40.7059 110.55 45.5059 109.975L45.6309 111.5C40.7559 112.275 35.3309 112.35 31.2059 112.375ZM34.0559 99.05H36.0559V111.075H34.0559V99.05ZM39.8309 99.05H41.8559V111.075H39.8309V99.05ZM51.4789 108.725H71.9789V110.425H51.4789V108.725ZM60.6289 109.525H62.6789V117.95H60.6289V109.525ZM54.0539 96.25H56.1289V99.35H67.3039V96.25H69.3539V106.025H54.0539V96.25ZM56.1289 101.025V104.35H67.3039V101.025H56.1289ZM73.277 97.55H83.677V112.275H73.277V97.55ZM81.652 99.225H75.302V110.6H81.652V99.225ZM88.402 95.325H90.477V117.975H88.402V95.325ZM97.525 103H99.575V107.275H97.525V103ZM105.825 103H107.875V107.275H105.825V103ZM92.475 106.525H112.9V108.2H92.475V106.525ZM102.675 109.9C107.525 109.9 110.425 111.325 110.425 113.9C110.425 116.475 107.525 117.925 102.675 117.925C97.825 117.925 94.925 116.475 94.925 113.9C94.925 111.325 97.825 109.9 102.675 109.9ZM102.675 111.5C99.15 111.5 97.025 112.375 97.025 113.9C97.025 115.45 99.15 116.3 102.675 116.3C106.225 116.3 108.325 115.45 108.325 113.9C108.325 112.375 106.225 111.5 102.675 111.5ZM102.7 95.75C107.6 95.75 110.65 97.325 110.65 99.975C110.65 102.6 107.6 104.15 102.7 104.15C97.775 104.15 94.75 102.6 94.75 99.975C94.75 97.325 97.775 95.75 102.7 95.75ZM102.7 97.375C99.1 97.375 96.875 98.325 96.875 99.975C96.875 101.6 99.1 102.55 102.7 102.55C106.3 102.55 108.525 101.6 108.525 99.975C108.525 98.325 106.3 97.375 102.7 97.375ZM112.973 107.275H133.448V108.975H112.973V107.275ZM122.323 108.125H124.398V113.325H122.323V108.125ZM115.573 115.75H131.173V117.45H115.573V115.75ZM115.573 111.325H117.623V116.4H115.573V111.325ZM115.698 96.05H117.748V98.925H128.673V96.05H130.748V105.1H115.698V96.05ZM117.748 100.55V103.425H128.673V100.55H117.748ZM139.496 97.075C142.821 97.075 145.171 100.15 145.171 104.95C145.171 109.775 142.821 112.85 139.496 112.85C136.171 112.85 133.821 109.775 133.821 104.95C133.821 100.15 136.171 97.075 139.496 97.075ZM139.496 98.95C137.296 98.95 135.796 101.3 135.796 104.95C135.796 108.625 137.296 111.025 139.496 111.025C141.671 111.025 143.196 108.625 143.196 104.95C143.196 101.3 141.671 98.95 139.496 98.95ZM150.296 101.025H154.446V102.775H150.296V101.025ZM150.296 107.75H154.446V109.5H150.296V107.75ZM148.771 95.35H150.871V117.95H148.771V95.35ZM40.7274 131.575H46.4274V133.275H40.7274V131.575ZM45.2524 125.375H47.3274V141.925H45.2524V125.375ZM32.9024 145.75H47.9524V147.45H32.9024V145.75ZM32.9024 140.475H34.9774V146.625H32.9024V140.475ZM34.5024 128.175H36.2024V130C36.2024 134.1 33.6524 137.65 29.8774 139.05L28.8024 137.4C32.1774 136.2 34.5024 133.2 34.5024 130V128.175ZM34.9024 128.175H36.5774V129.975C36.5774 132.9 38.7774 135.75 42.0524 136.9L41.0024 138.525C37.3274 137.2 34.9024 133.8 34.9024 129.975V128.175ZM29.4524 127.2H41.5274V128.875H29.4524V127.2ZM49.2255 136.9H69.7005V138.6H49.2255V136.9ZM58.5755 137.95H60.6505V143.15H58.5755V137.95ZM51.8505 126.4H67.0505V134.35H51.8505V126.4ZM65.0005 128.075H53.8755V132.675H65.0005V128.075ZM51.8255 145.75H67.4255V147.45H51.8255V145.75ZM51.8255 140.975H53.8755V146.35H51.8255V140.975ZM86.1735 125.375H88.2735V141.875H86.1735V125.375ZM73.7485 145.75H88.9485V147.45H73.7485V145.75ZM73.7485 140.175H75.7985V146.325H73.7485V140.175ZM76.1485 126.925C79.5235 126.925 82.0235 129.225 82.0235 132.5C82.0235 135.75 79.5235 138.075 76.1485 138.075C72.7735 138.075 70.2485 135.75 70.2485 132.5C70.2485 129.225 72.7735 126.925 76.1485 126.925ZM76.1485 128.725C73.9485 128.725 72.2735 130.275 72.2735 132.5C72.2735 134.7 73.9485 136.25 76.1485 136.25C78.3485 136.25 80.0235 134.7 80.0235 132.5C80.0235 130.275 78.3485 128.725 76.1485 128.725ZM91.1716 136.55H92.7966C97.2466 136.55 99.4466 136.475 102.147 136L102.372 137.675C99.5716 138.175 97.3216 138.25 92.7966 138.25H91.1716V136.55ZM91.1216 126.7H100.872V133.125H93.2216V137.575H91.1716V131.5H98.8216V128.4H91.1216V126.7ZM106.747 125.375H108.822V139.25H106.747V125.375ZM102.372 128.7H107.222V130.4H102.372V128.7ZM102.372 133.375H107.222V135.075H102.372V133.375ZM93.6966 140.475H108.822V148H106.747V142.175H93.6966V140.475ZM132.151 128.725H136.076V130.45H132.151V128.725ZM132.151 133.525H136.076V135.25H132.151V133.525ZM121.551 126.675C124.951 126.675 127.451 128.875 127.451 132.025C127.451 135.15 124.951 137.325 121.551 137.325C118.151 137.325 115.651 135.15 115.651 132.025C115.651 128.875 118.151 126.675 121.551 126.675ZM121.551 128.425C119.301 128.425 117.676 129.9 117.676 132.025C117.676 134.15 119.301 135.6 121.551 135.6C123.801 135.6 125.426 134.15 125.426 132.025C125.426 129.9 123.801 128.425 121.551 128.425ZM130.701 125.35H132.776V138.725H130.701V125.35ZM125.576 139.45C130.176 139.45 133.001 141.025 133.001 143.675C133.001 146.35 130.176 147.9 125.576 147.9C120.976 147.9 118.151 146.35 118.151 143.675C118.151 141.025 120.976 139.45 125.576 139.45ZM125.576 141.125C122.226 141.125 120.176 142.05 120.176 143.675C120.176 145.3 122.226 146.25 125.576 146.25C128.926 146.25 130.976 145.3 130.976 143.675C130.976 142.05 128.926 141.125 125.576 141.125ZM141.425 126.625H143.15V128.95C143.15 133.325 140.675 136.9 136.8 138.35L135.725 136.65C139.175 135.425 141.425 132.4 141.425 128.95V126.625ZM141.8 126.625H143.5V128.875C143.5 132.075 145.7 134.9 149 136.05L147.875 137.675C144.225 136.3 141.8 132.975 141.8 128.875V126.625ZM152.25 125.35H154.325V138.725H152.25V125.35ZM146.9 139.375C151.55 139.375 154.425 140.95 154.425 143.65C154.425 146.35 151.55 147.9 146.9 147.9C142.225 147.9 139.35 146.35 139.35 143.65C139.35 140.95 142.225 139.375 146.9 139.375ZM146.9 141.025C143.5 141.025 141.425 142 141.425 143.65C141.425 145.3 143.5 146.275 146.9 146.275C150.3 146.275 152.375 145.3 152.375 143.65C152.375 142 150.3 141.025 146.9 141.025ZM147.35 130.125H152.7V131.85H147.35V130.125Z" fill="#575757"/>
</svg>
