<svg width="186" height="186" viewBox="0 0 186 186" fill="none" xmlns="http://www.w3.org/2000/svg">
<path d="M92.9999 1.54634C143.579 1.63071 184.583 42.7718 184.583 93.4393C184.583 144.107 143.579 185.111 92.9999 185.027C42.4209 184.942 1.41699 143.801 1.41699 93.1337C1.41699 42.4662 42.4209 1.46196 92.9999 1.54634Z" fill="white" stroke="#AAAAAA"/>
<path d="M111.963 36.0175C121.995 46.0737 121.995 62.3746 111.963 72.4308C101.931 82.487 85.6687 82.487 75.6365 72.4308C65.6042 62.3746 65.6042 46.0737 75.6365 36.0175C85.6687 25.9613 101.931 25.9613 111.963 36.0175Z" fill="#F68D1D"/>
<path d="M84.0791 66.8968H87.237V59.7046L84.0791 62.87V66.8968Z" fill="white"/>
<path d="M90.975 55.9575L89.4497 57.4864V66.8966H92.6076V57.5941L91.2757 56.2375L90.975 55.9575Z" fill="white"/>
<path d="M95.4858 57.7875L94.8198 58.455V66.8962H97.9777V55.2681L96.1517 57.12L95.4858 57.7875Z" fill="white"/>
<path d="M100.169 53.0719V66.8965H103.349V49.9065L101.523 51.7369L100.169 53.0719Z" fill="white"/>
<path d="M103.736 42.4562L100.363 43.3606L101.158 44.1789L101.781 44.7818L100.169 46.3753L97.9783 48.5932L94.8204 51.7587L94.133 52.4262L92.6077 50.8973L90.9751 49.2608L89.4498 50.7897L87.2371 53.0076L84.0792 56.1731L80.4702 59.7907L82.4681 61.7933L84.0792 60.1999L87.2371 57.0129L89.4498 54.8165L90.9751 53.266L92.6077 54.9026L94.133 56.453L94.8204 55.7639L97.9783 52.5985L100.169 50.3805L103.349 47.2151L103.779 46.7844L105.304 48.3348L106.206 44.9325L107.108 41.5518L103.736 42.4562Z" fill="white"/>
<path d="M56.8789 111.15H58.7039V112.4C58.7039 116.725 54.3039 119.825 49.6039 120.625L48.7789 118.95C52.9039 118.325 56.8789 115.625 56.8789 112.4V111.15ZM57.2539 111.15H59.0539V112.4C59.0539 115.55 63.0789 118.325 67.1539 118.95L66.3289 120.625C61.6789 119.825 57.2539 116.675 57.2539 112.4V111.15ZM56.8789 124.35H58.9289V132.95H56.8789V124.35ZM47.7539 123.075H68.1789V124.8H47.7539V123.075ZM75.752 121.975H77.802V128.75H75.752V121.975ZM84.102 121.975H86.177V128.75H84.102V121.975ZM70.752 128.35H91.227V130.075H70.752V128.35ZM80.952 111.775C85.727 111.775 89.152 114.05 89.152 117.6C89.152 121.125 85.727 123.4 80.952 123.4C76.152 123.4 72.727 121.125 72.727 117.6C72.727 114.05 76.152 111.775 80.952 111.775ZM80.952 113.425C77.327 113.425 74.727 115.075 74.727 117.6C74.727 120.1 77.327 121.75 80.952 121.75C84.577 121.75 87.152 120.1 87.152 117.6C87.152 115.075 84.577 113.425 80.952 113.425ZM93.725 121.1H114.15V122.775H93.725V121.1ZM103.925 124.725C108.75 124.725 111.675 126.225 111.675 128.825C111.675 131.425 108.75 132.9 103.925 132.9C99.1 132.9 96.175 131.425 96.175 128.825C96.175 126.225 99.1 124.725 103.925 124.725ZM103.925 126.375C100.4 126.375 98.275 127.25 98.275 128.825C98.275 130.375 100.4 131.275 103.925 131.275C107.475 131.275 109.575 130.375 109.575 128.825C109.575 127.25 107.475 126.375 103.925 126.375ZM102.6 112.4H104.45V113.075C104.45 116.7 100.3 119.175 95.625 119.725L94.875 118.1C98.925 117.65 102.6 115.625 102.6 113.075V112.4ZM103.475 112.4H105.3V113.075C105.3 115.625 108.975 117.65 113.025 118.1L112.275 119.725C107.6 119.175 103.475 116.7 103.475 113.075V112.4ZM95.6 111.5H112.325V113.175H95.6V111.5ZM133.923 110.35H135.923V132.95H133.923V110.35ZM130.098 119.4H134.448V121.125H130.098V119.4ZM128.798 110.85H130.748V131.8H128.798V110.85ZM117.548 125.65H119.023C122.323 125.65 124.573 125.525 127.198 124.975L127.398 126.7C124.698 127.275 122.423 127.375 119.023 127.375H117.548V125.65ZM117.548 113.1H125.948V114.8H119.598V126.425H117.548V113.1Z" fill="#575757"/>
</svg>
