<svg width="186" height="185" viewBox="0 0 186 185" fill="none" xmlns="http://www.w3.org/2000/svg">
<path d="M92.9998 1.33532C143.543 1.23788 184.515 42.0516 184.515 92.4933C184.515 142.935 143.543 183.907 92.9998 184.004C42.4563 184.102 1.48437 143.288 1.48437 92.8462C1.48437 42.4045 42.4563 1.43276 92.9998 1.33532Z" fill="white" stroke="#AAAAAA"/>
<path d="M111.963 35.6944C121.995 45.699 121.995 61.9163 111.963 71.921C101.931 81.9256 85.6687 81.9256 75.6365 71.921C65.6042 61.9163 65.6042 45.699 75.6365 35.6944C85.6687 25.6898 101.931 25.6898 111.963 35.6944Z" fill="#DB3D8B"/>
<path d="M106.657 45.1849H100.19C100.083 44.3065 99.589 43.5138 98.8371 42.9997C98.3215 42.6569 97.6985 42.4641 97.0755 42.4641H90.5234C89.9004 42.4641 89.2774 42.6569 88.7619 42.9997C88.0315 43.4924 87.5374 44.2851 87.4085 45.1849H80.9423C80.5771 45.1849 80.2764 45.4848 80.2764 45.849V50.1979C80.2764 50.6906 80.3623 51.1405 80.5342 51.5904V64.5086C80.5342 64.8727 80.8349 65.1727 81.2001 65.1727H106.399C106.764 65.1727 107.065 64.8727 107.065 64.5086V51.5904C107.237 51.1405 107.323 50.6692 107.323 50.1979V45.849C107.323 45.4848 107.022 45.1849 106.657 45.1849ZM88.7404 45.1849C88.8908 44.5422 89.3849 44.028 90.0293 43.8352C90.1797 43.7923 90.3516 43.7709 90.5019 43.7709H97.054C97.2259 43.7709 97.3763 43.7709 97.5267 43.8352C98.1711 44.0066 98.6437 44.5207 98.8156 45.1849H88.7189H88.7404ZM91.662 55.1895V53.0043H95.937V55.1895H91.662ZM81.8661 53.3471C82.5965 53.9041 83.5202 54.2254 84.4869 54.2254H90.3516V55.8536C90.3516 56.2178 90.6523 56.5177 91.0175 56.5177H96.6029C96.9681 56.5177 97.2689 56.2178 97.2689 55.8536V54.2254H103.134C104.1 54.2254 105.024 53.9041 105.754 53.3471V63.8444H81.8875V53.3471H81.8661ZM103.112 52.9186H97.2474V52.3616C97.2474 51.9974 96.9466 51.6975 96.5814 51.6975H90.996C90.6308 51.6975 90.3301 51.9974 90.3301 52.3616V52.9186H84.4654C83.3054 52.9186 82.2527 52.2759 81.8016 51.269C81.7372 51.1191 81.6727 50.9691 81.6512 50.9048V46.5131H105.883V50.7977C105.862 50.9691 105.797 51.1191 105.733 51.269C105.282 52.2759 104.229 52.94 103.069 52.94L103.112 52.9186Z" fill="white"/>
<path d="M41.8299 114.575H43.4799V118.25C43.4799 122.95 40.6049 127.8 37.0799 129.6L35.8799 127.95C39.1049 126.375 41.8299 122.075 41.8299 118.25V114.575ZM42.2049 114.575H43.8549V118.25C43.8549 121.825 46.4049 125.85 49.6799 127.4L48.5049 129.05C44.9299 127.275 42.2049 122.725 42.2049 118.25V114.575ZM36.6799 113.65H48.8549V115.4H36.6799V113.65ZM51.5299 111.35H53.6299V133.95H51.5299V111.35ZM53.1299 120.475H57.3299V122.225H53.1299V120.475ZM68.8779 112.875H71.0529C71.0529 118.625 66.9779 122.725 60.4029 124.525L59.5779 122.9C65.3779 121.3 68.8779 117.975 68.8779 113.775V112.875ZM60.7279 112.875H70.1529V114.55H60.7279V112.875ZM62.7529 125.85H77.8279V133.9H75.7529V127.525H62.7529V125.85ZM75.7529 111.35H77.8279V124.825H75.7529V111.35ZM70.1279 115.375H76.1779V117.075H70.1279V115.375ZM69.9029 120.175H76.0279V121.875H69.9029V120.175ZM99.426 111.35H101.426V133.95H99.426V111.35ZM91.201 119.45H95.526V121.175H91.201V119.45ZM94.901 111.875H96.851V132.8H94.901V111.875ZM86.851 114.85H88.451V117.725C88.451 122.675 86.551 127.35 83.226 129.45L81.951 127.9C85.101 126 86.851 121.875 86.851 117.725V114.85ZM87.276 114.85H88.876V117.725C88.876 121.65 90.576 125.575 93.676 127.375L92.401 128.9C89.101 126.9 87.276 122.45 87.276 117.725V114.85ZM82.576 113.975H92.901V115.7H82.576V113.975ZM107.824 121.9H123.349V123.6H107.824V121.9ZM105.249 129.375H125.724V131.125H105.249V129.375ZM114.399 122.625H116.474V130.075H114.399V122.625ZM107.824 113.15H123.124V114.85H109.899V122.65H107.824V113.15ZM134.097 124.825H136.172V128.5H134.097V124.825ZM143.597 111.35H145.672V133.95H143.597V111.35ZM144.997 120.95H149.172V122.7H144.997V120.95ZM128.272 129.65L127.972 127.925C132.022 127.925 137.547 127.875 142.222 127.2L142.397 128.75C137.522 129.625 132.222 129.65 128.272 129.65ZM128.347 114.075H141.872V115.75H128.347V114.075ZM135.122 117.075C138.272 117.075 140.447 118.725 140.447 121.25C140.447 123.8 138.272 125.425 135.122 125.425C131.972 125.425 129.822 123.8 129.822 121.25C129.822 118.725 131.972 117.075 135.122 117.075ZM135.122 118.675C133.097 118.675 131.772 119.7 131.772 121.25C131.772 122.8 133.097 123.825 135.122 123.825C137.147 123.825 138.497 122.8 138.497 121.25C138.497 119.7 137.147 118.675 135.122 118.675ZM134.097 111.375H136.172V115.2H134.097V111.375Z" fill="#575757"/>
</svg>
