<svg width="186" height="185" viewBox="0 0 186 185" fill="none" xmlns="http://www.w3.org/2000/svg">
<path d="M92.9998 1.33529C143.543 1.23785 184.515 42.0516 184.515 92.4933C184.515 142.935 143.543 183.907 92.9998 184.004C42.4563 184.102 1.48437 143.288 1.48437 92.8462C1.48437 42.4045 42.4563 1.43273 92.9998 1.33529Z" fill="white" stroke="#AAAAAA"/>
<path d="M111.964 35.6944C121.996 45.699 121.996 61.9163 111.964 71.921C101.931 81.9256 85.6692 81.9256 75.637 71.921C65.6047 61.9163 65.6047 45.699 75.637 35.6944C85.6692 25.6898 101.931 25.6898 111.964 35.6944Z" fill="#4F9750"/>
<path d="M106.765 58.4243H80.8354C80.4917 58.4243 80.2339 58.1458 80.2339 57.8245V44.4564C80.2339 43.6423 80.8998 42.9568 81.7376 42.9568H105.884C106.7 42.9568 107.388 43.6209 107.388 44.4564V57.8245C107.388 58.1672 107.108 58.4243 106.786 58.4243H106.765ZM81.4369 57.2246H106.163V44.4564C106.163 44.3064 106.034 44.1565 105.862 44.1565H81.7162C81.5658 44.1565 81.4154 44.285 81.4154 44.4564V57.2246H81.4369Z" fill="white"/>
<path d="M105.862 61.5521H81.7157C80.8993 61.5521 80.2119 60.888 80.2119 60.0525V57.8245C80.2119 57.4817 80.4912 57.2246 80.8134 57.2246H106.743C107.086 57.2246 107.344 57.5031 107.344 57.8245V60.0525C107.344 60.8665 106.678 61.5521 105.84 61.5521H105.862ZM81.4364 58.4243V60.0525C81.4364 60.2024 81.5653 60.3524 81.7372 60.3524H105.883C106.034 60.3524 106.184 60.2239 106.184 60.0525V58.4243H81.4579H81.4364Z" fill="white"/>
<path d="M96.474 64.6585H91.1035C90.7597 64.6585 90.502 64.38 90.502 64.0587V60.9309C90.502 60.5881 90.7812 60.3311 91.1035 60.3311H96.474C96.8177 60.3311 97.0755 60.6096 97.0755 60.9309V64.0587C97.0755 64.4015 96.7963 64.6585 96.474 64.6585ZM91.7264 63.4588H95.894V61.5522H91.7264V63.4588Z" fill="white"/>
<path d="M94.6912 58.5527H92.9082V59.7524H94.6912V58.5527Z" fill="white"/>
<path d="M98.2569 64.6582H89.3203C88.9765 64.6582 88.7188 64.3797 88.7188 64.0583C88.7188 63.737 88.998 63.4585 89.3203 63.4585H98.2569C98.6006 63.4585 98.8584 63.737 98.8584 64.0583C98.8584 64.3797 98.5791 64.6582 98.2569 64.6582Z" fill="white"/>
<path d="M28.7274 107.275H49.2024V108.975H28.7274V107.275ZM38.0774 108.125H40.1524V113.325H38.0774V108.125ZM31.3274 115.75H46.9274V117.45H31.3274V115.75ZM31.3274 111.325H33.3774V116.4H31.3274V111.325ZM31.4524 96.05H33.5024V98.925H44.4274V96.05H46.5024V105.1H31.4524V96.05ZM33.5024 100.55V103.425H44.4274V100.55H33.5024ZM55.7505 97.075C59.0755 97.075 61.4255 100.15 61.4255 104.95C61.4255 109.775 59.0755 112.85 55.7505 112.85C52.4255 112.85 50.0755 109.775 50.0755 104.95C50.0755 100.15 52.4255 97.075 55.7505 97.075ZM55.7505 98.95C53.5505 98.95 52.0505 101.3 52.0505 104.95C52.0505 108.625 53.5505 111.025 55.7505 111.025C57.9255 111.025 59.4505 108.625 59.4505 104.95C59.4505 101.3 57.9255 98.95 55.7505 98.95ZM66.5505 101.025H70.7005V102.775H66.5505V101.025ZM66.5505 107.75H70.7005V109.5H66.5505V107.75ZM65.0255 95.35H67.1255V117.95H65.0255V95.35ZM81.3985 98.55H87.7735V100.175H81.3985V98.55ZM81.3985 102.675H87.7735V104.3H81.3985V102.675ZM87.2485 95.35H89.3235V107.125H87.2485V95.35ZM74.7735 108.25H89.3235V113.6H76.8485V117.075H74.8235V112.05H87.2735V109.9H74.7735V108.25ZM74.8235 116H90.1485V117.65H74.8235V116ZM71.8485 96.375H73.8985V99.625H80.0235V96.375H82.0485V106.25H71.8485V96.375ZM73.8985 101.25V104.575H80.0235V101.25H73.8985ZM105.653 103.425H109.978V105.15H105.653V103.425ZM101.428 97.475H103.053V101.775C103.053 106.5 101.078 111.075 97.7784 113.1L96.4784 111.525C99.5784 109.7 101.428 105.65 101.428 101.775V97.475ZM101.828 97.475H103.428V101.7C103.428 105.325 105.128 109.175 108.103 110.975L106.903 112.6C103.653 110.6 101.828 106.1 101.828 101.7V97.475ZM113.953 95.35H115.953V117.95H113.953V95.35ZM109.378 95.825H111.328V116.825H109.378V95.825ZM117.726 107.275H138.201V108.975H117.726V107.275ZM127.076 108.125H129.151V113.325H127.076V108.125ZM120.326 115.75H135.926V117.45H120.326V115.75ZM120.326 111.325H122.376V116.4H120.326V111.325ZM120.451 96.05H122.501V98.925H133.426V96.05H135.501V105.1H120.451V96.05ZM122.501 100.55V103.425H133.426V100.55H122.501ZM144.6 108.825H146.675V112.5H144.6V108.825ZM154.1 95.35H156.175V117.95H154.1V95.35ZM155.5 104.95H159.675V106.7H155.5V104.95ZM138.775 113.65L138.475 111.925C142.525 111.925 148.05 111.875 152.725 111.2L152.9 112.75C148.025 113.625 142.725 113.65 138.775 113.65ZM138.85 98.075H152.375V99.75H138.85V98.075ZM145.625 101.075C148.775 101.075 150.95 102.725 150.95 105.25C150.95 107.8 148.775 109.425 145.625 109.425C142.475 109.425 140.325 107.8 140.325 105.25C140.325 102.725 142.475 101.075 145.625 101.075ZM145.625 102.675C143.6 102.675 142.275 103.7 142.275 105.25C142.275 106.8 143.6 107.825 145.625 107.825C147.65 107.825 149 106.8 149 105.25C149 103.7 147.65 102.675 145.625 102.675ZM144.6 95.375H146.675V99.2H144.6V95.375ZM49.9255 126.8H60.4505V136.05H49.9255V126.8ZM58.4505 128.475H51.9255V134.4H58.4505V128.475ZM65.1755 125.35H67.2505V138.325H65.1755V125.35ZM59.0505 141H60.8255V141.425C60.8255 144.675 56.8005 147.275 52.2255 147.875L51.5255 146.275C55.4505 145.825 59.0505 143.675 59.0505 141.425V141ZM59.3505 141H61.1505V141.425C61.1505 143.6 64.6505 145.8 68.5755 146.275L67.8755 147.875C63.2755 147.25 59.3505 144.6 59.3505 141.425V141ZM52.4255 139.85H67.7755V141.475H52.4255V139.85ZM59.0505 137.675H61.1505V140.575H59.0505V137.675ZM86.7304 131.575H92.4304V133.275H86.7304V131.575ZM91.2554 125.375H93.3304V141.925H91.2554V125.375ZM78.9054 145.75H93.9554V147.45H78.9054V145.75ZM78.9054 140.475H80.9804V146.625H78.9054V140.475ZM80.5054 128.175H82.2054V130C82.2054 134.1 79.6554 137.65 75.8804 139.05L74.8054 137.4C78.1804 136.2 80.5054 133.2 80.5054 130V128.175ZM80.9054 128.175H82.5804V129.975C82.5804 132.9 84.7804 135.75 88.0554 136.9L87.0054 138.525C83.3304 137.2 80.9054 133.8 80.9054 129.975V128.175ZM75.4554 127.2H87.5304V128.875H75.4554V127.2ZM95.7284 136.9H116.203V138.6H95.7284V136.9ZM105.078 137.95H107.153V143.15H105.078V137.95ZM98.3534 126.4H113.553V134.35H98.3534V126.4ZM111.503 128.075H100.378V132.675H111.503V128.075ZM98.3284 145.75H113.928V147.45H98.3284V145.75ZM98.3284 140.975H100.378V146.35H98.3284V140.975ZM122.601 138.825H124.676V142.5H122.601V138.825ZM132.101 125.35H134.176V147.95H132.101V125.35ZM133.501 134.95H137.676V136.7H133.501V134.95ZM116.776 143.65L116.476 141.925C120.526 141.925 126.051 141.875 130.726 141.2L130.901 142.75C126.026 143.625 120.726 143.65 116.776 143.65ZM116.851 128.075H130.376V129.75H116.851V128.075ZM123.626 131.075C126.776 131.075 128.951 132.725 128.951 135.25C128.951 137.8 126.776 139.425 123.626 139.425C120.476 139.425 118.326 137.8 118.326 135.25C118.326 132.725 120.476 131.075 123.626 131.075ZM123.626 132.675C121.601 132.675 120.276 133.7 120.276 135.25C120.276 136.8 121.601 137.825 123.626 137.825C125.651 137.825 127.001 136.8 127.001 135.25C127.001 133.7 125.651 132.675 123.626 132.675ZM122.601 125.375H124.676V129.2H122.601V125.375Z" fill="#575757"/>
</svg>
