<svg width="1083" height="267" viewBox="0 0 1083 267" fill="none" xmlns="http://www.w3.org/2000/svg">
<path d="M246.24 58.32H230.24V91.36H246.24V58.32ZM218.72 101.12V48.56H257.68V101.12H218.72ZM272.08 42.08H279.04C283.6 42.08 284.64 42.32 284.64 43.12C284.64 43.84 283.68 45.2 283.68 47.36V117.04H272.08V42.08ZM332 97.92C317.68 97.92 312.32 100.48 312.32 103.84C312.32 107.28 317.68 110.32 332 110.32C346.96 110.32 352.16 107.28 352.16 103.84C352.16 100.48 346.96 97.92 332 97.92ZM332 89.52C354.8 89.52 364.08 96.4 364.08 103.76C364.08 111.2 354.8 118 332 118C309.76 118 300.4 111.2 300.4 103.76C300.4 96.4 309.76 89.52 332 89.52ZM331.84 51.28C317.76 51.28 312.32 53.52 312.32 56.56C312.32 59.6 317.76 62.16 331.84 62.16C345.84 62.16 351.12 59.6 351.12 56.56C351.12 53.52 345.84 51.28 331.84 51.28ZM337.36 78.4V70.8C335.68 70.96 333.84 70.96 331.92 70.96C329.76 70.96 327.76 70.96 325.76 70.72V78.4H337.36ZM314.64 78.4V69.04C305.2 66.56 300.72 61.84 300.72 56.64C300.72 49.12 310.48 42.4 331.92 42.4C352.56 42.4 362.72 49.12 362.72 56.64C362.72 61.84 358.48 66.56 348.96 68.96C349.04 69.28 348.48 71.12 348.48 71.52V78.4H369.52V88H294.56V78.4H314.64ZM457.106 67.2H466.706V77.04H434.706V89.36H458.946V117.04H447.426V99.04H398.866V89.36H423.266V77.04H391.826V67.2H444.946C445.746 63.12 446.226 57.04 446.226 53.84H399.506V44H458.866C458.866 52.08 458.226 61.2 457.106 67.2ZM476.146 58.64V48.56H512.626C512.626 78.96 502.866 94.08 481.026 106.96C478.626 103.84 475.346 100.32 472.226 97.68C488.706 93.04 500.066 75.6 500.066 58.64H476.146ZM525.906 42.08H532.386C537.506 42.08 538.786 42.4 538.786 43.36C538.786 44.32 537.426 46 537.426 48.64V74.88H547.426V85.04H537.426V117.04H525.906V42.08ZM556.786 58.24V48.56H600.946V58.24H584.626V61.12C584.626 75.52 590.786 91.44 602.706 96.96C599.746 99.12 596.786 102.4 594.706 105.36C586.946 100.08 580.306 91.36 578.386 80.4C575.746 91.28 568.866 100.48 560.626 106.4C558.226 103.68 554.786 100.24 551.666 98.16C564.626 91.84 572.946 73.84 572.946 61.2V58.24H556.786ZM605.906 42.08H612.386C617.506 42.08 618.786 42.4 618.786 43.36C618.786 44.32 617.426 46 617.426 48.64V74.88H627.426V85.04H617.426V117.04H605.906V42.08ZM638.066 55.68V45.92H674.466C674.466 64.48 665.106 80 640.626 87.84C638.946 84.56 636.386 80.96 633.906 77.92C650.226 76 660.306 64.08 660.306 55.68H638.066ZM689.346 42.08H696.306C700.706 42.08 701.746 42.48 701.746 43.52C701.746 44.4 700.946 45.84 700.946 47.92V84.56H689.346V78.16H676.466V68.88H689.346V61.92H676.466V52.56H689.346V42.08ZM645.106 99.04V89.36H700.946V117.04H689.346V99.04H645.106ZM730.226 46.64H736.866C741.666 46.64 743.026 47.12 743.026 48.16C743.026 49.12 741.746 50.48 741.426 52.4C740.866 54.88 740.626 58.64 740.626 64.24C740.626 74.88 749.906 92.24 760.786 98.16C757.986 100.16 754.066 103.6 751.746 106.16C744.626 101.04 736.226 87.2 734.866 80.4C733.106 87.04 727.186 99.76 718.546 106.24C716.226 104.08 712.546 101.04 709.746 99.12C722.706 89.68 730.226 72.32 730.226 46.64ZM769.346 42.08H776.306C780.866 42.08 781.906 42.32 781.906 43.12C781.906 43.84 780.946 45.2 780.946 47.36V117.04H769.346V42.08ZM806.626 50.96V42.64H830.066V50.96H806.626ZM794.786 61.36V53.04H841.666V61.36H794.786ZM817.586 63.28C831.346 63.28 837.826 69.04 837.826 74.96C837.826 80.72 831.346 86.64 817.586 86.64C805.266 86.64 798.786 80.72 798.786 74.96C798.786 69.04 805.266 63.28 817.586 63.28ZM818.306 70.32C812.946 70.32 810.306 72.64 810.306 74.96C810.306 77.36 812.946 79.6 818.306 79.6C823.666 79.6 826.306 77.36 826.306 74.96C826.306 72.64 823.666 70.32 818.306 70.32ZM849.346 42.08H855.026C860.866 42.08 862.306 42.4 862.306 43.44C862.306 44.4 860.946 46.08 860.946 48.8V88.24H849.346V76.96H840.146V67.44H849.346V42.08ZM849.346 98.4H813.426V106.4H849.346V98.4ZM801.906 116.96V89.6H860.946V116.96H849.346V115.2H813.426V116.96H801.906Z" fill="white"/>
<path d="M456.4 173.1C453.9 173.1 452.5 177.15 452.5 185.15C452.5 193.5 453.9 197.55 456.4 197.55C458.85 197.55 460.35 193.5 460.35 185.15C460.35 177.15 458.85 173.1 456.4 173.1ZM471.35 186.45H467.2C466.9 196.8 463.3 203.6 456.45 203.6C449.3 203.6 445.6 196.2 445.6 185.15C445.6 174.5 449.3 166.95 456.45 166.95C462.45 166.95 466 172.35 466.9 180.4H471.35V165.55H475.35C478.15 165.55 478.8 165.8 478.8 166.35C478.8 166.8 478.3 167.5 478.3 168.45V210.65H471.35V186.45ZM481.5 164.55H485.95C488.55 164.55 489.2 164.75 489.2 165.3C489.2 165.85 488.6 166.7 488.6 168V211.4H481.5V164.55ZM505.1 167.4H509.25C512.25 167.4 513.1 167.7 513.1 168.3C513.1 168.9 512.3 169.8 512.1 170.95C511.75 172.5 511.6 174.9 511.6 178.35C511.6 185 517.4 195.9 524.2 199.55C522.45 200.8 520 202.95 518.55 204.6C514.1 201.35 508.9 192.75 508.05 188.5C506.95 192.65 503.2 200.55 497.8 204.6C496.35 203.25 494.05 201.4 492.3 200.15C500.4 194.25 505.1 183.4 505.1 167.4ZM529.55 164.55H533.5C536.85 164.55 537.65 164.75 537.65 165.35C537.65 165.95 536.8 167 536.8 168.75V211.4H529.55V186.9H521.3V180.8H529.55V164.55ZM1039.44 173.6V167.7H1076.29V183.6H1046.69V188.3H1077.14V194.15H1061.34V199.5H1081.19V205.75H1034.39V199.5H1054.19V194.15H1039.44V177.7H1069.09V173.6H1039.44Z" fill="white"/>
<path d="M603.671 174.9H610.871V182.28H586.871V191.52H605.051V212.28H596.411V198.78H559.991V191.52H578.291V182.28H554.711V174.9H594.551C595.151 171.84 595.511 167.28 595.511 164.88H560.471V157.5H604.991C604.991 163.56 604.511 170.4 603.671 174.9ZM638.351 166.26H626.831V180.24H638.351V166.26ZM618.131 187.56V158.94H646.931V187.56H618.131ZM657.851 156.06H663.071C666.431 156.06 667.271 156.3 667.271 156.9C667.271 157.5 666.551 158.46 666.551 159.96V197.52H657.851V156.06ZM621.791 192.84H626.891C630.311 192.84 631.151 193.14 631.151 193.86C631.151 194.52 630.431 195.48 630.431 196.92V203.52H667.151V210.84H621.791V192.84ZM679.451 160.32H685.031C688.091 160.32 688.811 160.62 688.811 161.28C688.811 161.94 688.091 162.96 688.091 164.46V192.9H690.671C694.691 192.9 699.071 192.72 704.951 191.88C705.191 194.34 705.551 197.22 705.731 199.2C699.671 200.04 691.151 200.58 684.131 200.58H679.451V160.32ZM720.191 156.06H725.531C728.651 156.06 729.431 156.3 729.431 156.96C729.431 157.62 728.711 158.64 728.711 160.2V212.28H720.191V187.62H715.871V210.12H707.531V157.08H713.291C716.051 157.08 716.831 157.26 716.831 157.8C716.831 158.4 715.871 159.42 715.871 161.04V180.3H720.191V156.06ZM751.511 165.06C747.611 165.06 745.451 168.48 745.451 171.42C745.451 174.42 747.611 177.78 751.511 177.78C755.471 177.78 757.631 174.42 757.631 171.42C757.631 168.48 755.471 165.06 751.511 165.06ZM751.511 157.92C761.411 157.92 766.271 165 766.271 171.42C766.271 177.72 761.411 184.86 751.511 184.86C741.671 184.86 736.751 177.72 736.751 171.42C736.751 165 741.671 157.92 751.511 157.92ZM777.851 156.06H781.751C786.311 156.06 787.451 156.3 787.451 157.14C787.451 157.86 786.551 159.06 786.551 160.92V185.76H777.851V156.06ZM742.751 194.22V188.34H786.551V202.8H751.271V205.74H787.691V211.62H742.751V197.04H777.911V194.22H742.751ZM814.091 179.88H806.531V193.02H814.091V179.88ZM814.091 160.38H819.071C822.311 160.38 823.031 160.68 823.031 161.4C823.031 161.94 822.551 162.78 822.551 163.86V200.34H798.071V160.38H803.411C806.471 160.38 807.251 160.62 807.251 161.34C807.251 161.94 806.531 163.02 806.531 164.52V172.56H814.091V160.38ZM840.191 156.06H845.531C848.651 156.06 849.431 156.3 849.431 156.96C849.431 157.62 848.711 158.64 848.711 160.2V212.28H840.191V187.62H835.871V210.12H827.531V157.08H833.291C836.051 157.08 836.831 157.26 836.831 157.8C836.831 158.4 835.871 159.42 835.871 161.04V180.3H840.191V156.06ZM882.671 162.96C872.831 162.96 868.331 164.82 868.331 167.34C868.331 169.8 872.831 171.84 882.671 171.84C892.511 171.84 897.131 169.8 897.131 167.34C897.131 164.82 892.511 162.96 882.671 162.96ZM882.731 156.36C898.211 156.36 905.831 161.58 905.831 167.4C905.831 173.16 898.211 178.44 882.731 178.44C867.311 178.44 859.631 173.16 859.631 167.4C859.631 161.58 867.311 156.36 882.731 156.36ZM854.711 187.5V181.08H910.931V187.5H887.111V191.7H905.051V212.22H896.411V210.9H869.471V212.22H860.771V191.7H878.651V187.5H854.711ZM896.411 198.24H869.471V204.3H896.411V198.24ZM918.731 167.16V159.84H947.111C947.111 176.88 943.811 191.7 922.091 204.42C920.411 202.32 918.251 200.04 915.791 198.12C924.971 195.54 932.711 186.12 935.231 181.5C931.571 181.74 927.731 182.04 923.411 182.46C921.311 182.58 920.111 183.42 919.271 183.42C918.671 183.42 918.251 183.06 917.771 181.74L916.151 175.68C921.131 175.68 931.271 174.9 937.391 174.54C937.991 172.08 938.471 168.66 938.471 167.16H918.731ZM955.271 156.06H960.131C963.971 156.06 964.931 156.3 964.931 157.02C964.931 157.74 963.911 159 963.911 160.98V180.66H971.411V188.28H963.911V212.28H955.271V156.06ZM980.771 185.4V159.84H1024.81V167.22H989.471V178.14H1025.77V185.4H980.771ZM974.651 205.5V198.18H1030.93V205.5H974.651Z" fill="#0124A2"/>
<path d="M171.649 157.806V182.999H134.479V157.806H143.801V167.01H162.268V157.806H171.649ZM166.988 192.852V208.369H159.613C158.276 208.369 157.607 207.701 157.607 206.363V192.852H148.521V208.369H141.087C139.75 208.369 139.081 207.701 139.081 206.363V192.852H130.585V189.43H175.543V192.852H166.988ZM162.268 179.577V170.432H143.801V179.577H162.268ZM208.127 202.882H181.695V158.101H206.18V161.523H191.017V178.338H205.295V181.819H191.017V199.46H208.127V202.882ZM221.343 208.546H214.263C212.925 208.546 212.257 207.878 212.257 206.54V156.626H221.343V208.546ZM229.047 180.816C229.047 175.703 229.401 171.593 230.109 168.485C230.857 165.378 231.86 162.998 233.118 161.346C234.377 159.655 235.852 158.554 237.543 158.042C239.235 157.492 241.064 157.216 243.03 157.216C244.997 157.216 246.806 157.492 248.458 158.042C250.15 158.554 251.605 159.655 252.824 161.346C254.044 162.998 254.988 165.378 255.656 168.485C256.364 171.593 256.718 175.703 256.718 180.816C256.718 185.93 256.364 190.04 255.656 193.147C254.988 196.215 254.044 198.595 252.824 200.286C251.605 201.938 250.15 203.02 248.458 203.531C246.806 204.082 244.997 204.357 243.03 204.357C241.103 204.357 239.294 204.082 237.602 203.531C235.911 203.02 234.416 201.938 233.118 200.286C231.86 198.595 230.857 196.215 230.109 193.147C229.401 190.04 229.047 185.93 229.047 180.816ZM238.074 180.816C238.074 185.261 238.173 188.801 238.369 191.436C238.566 194.072 238.861 196.097 239.254 197.513C239.687 198.929 240.198 199.854 240.788 200.286C241.418 200.719 242.165 200.935 243.03 200.935C243.896 200.935 244.623 200.719 245.213 200.286C245.843 199.854 246.354 198.929 246.747 197.513C247.18 196.097 247.495 194.072 247.691 191.436C247.888 188.801 247.986 185.261 247.986 180.816C247.986 176.411 247.888 172.891 247.691 170.255C247.495 167.581 247.18 165.535 246.747 164.119C246.354 162.703 245.843 161.779 245.213 161.346C244.623 160.874 243.896 160.638 243.03 160.638C242.165 160.638 241.418 160.894 240.788 161.405C240.198 161.877 239.687 162.841 239.254 164.296C238.861 165.752 238.566 167.797 238.369 170.432C238.173 173.068 238.074 176.529 238.074 180.816ZM276.955 181.76H270.819V208.546H263.68C262.343 208.546 261.674 207.878 261.674 206.54V156.626H270.819V178.338H276.955V181.76ZM327.14 181.76H321.004V208.546H313.865C312.527 208.546 311.859 207.878 311.859 206.54V156.626H321.004V178.338H327.14V181.76ZM280.117 158.16H301.298C302.32 158.16 303.068 158.396 303.54 158.868C304.051 159.34 304.307 160.206 304.307 161.464V174.149C304.307 178.24 303.599 181.996 302.183 185.418C300.806 188.84 298.957 191.869 296.637 194.504C294.316 197.14 291.661 199.342 288.672 201.112C285.682 202.922 282.595 204.22 279.409 205.006L278.465 203C280.943 201.978 283.145 200.64 285.073 198.988C287 197.336 288.632 195.488 289.97 193.442C291.346 191.358 292.448 189.135 293.274 186.775C294.139 184.415 294.749 182.016 295.103 179.577H281.297V176.155H295.457C295.496 175.841 295.516 175.546 295.516 175.27C295.516 174.956 295.516 174.641 295.516 174.326V161.582H280.117V158.16ZM350.774 203.118H330.419V158.337H349.948V161.759H339.033V199.696H350.774V203.118ZM362.633 208.782H356.674C355.337 208.782 354.668 208.114 354.668 206.776V180.934H345.11V177.394H354.668V156.862H362.633V208.782ZM374.079 208.782H368.12C366.783 208.782 366.114 208.114 366.114 206.776V156.862H374.079V208.782ZM406.387 202.882H380.722V158.101H404.499C405.207 158.101 405.699 158.259 405.974 158.573C406.249 158.888 406.387 159.439 406.387 160.225V202.882ZM389.749 199.46H397.655V161.523H389.749V199.46ZM421.609 208.546H414.47C413.133 208.546 412.464 207.878 412.464 206.54V156.626H421.609V208.546Z" fill="#6B1685"/>
<path d="M132.28 240.895C132.587 240.895 132.878 240.834 133.154 240.711C133.43 240.604 133.668 240.397 133.867 240.09C134.082 239.799 134.243 239.393 134.35 238.871C134.473 238.365 134.534 237.721 134.534 236.939V221.391H138.122V235.122C138.122 236.226 137.954 237.177 137.616 237.974C137.294 238.787 136.796 239.515 136.121 240.159C135.646 240.619 135.109 240.98 134.511 241.24C133.913 241.501 133.246 241.631 132.51 241.631C132.004 241.631 131.521 241.539 131.061 241.355C130.601 241.187 130.218 240.88 129.911 240.435L130.394 239.998C130.655 240.351 130.954 240.589 131.291 240.711C131.629 240.834 131.958 240.895 132.28 240.895ZM145.819 236.939C146.953 236.939 147.689 236.533 148.027 235.72C148.103 235.521 148.172 235.314 148.234 235.099C148.295 234.885 148.341 234.639 148.372 234.363C148.418 234.072 148.448 233.727 148.464 233.328C148.494 232.93 148.51 232.447 148.51 231.879C148.51 231.312 148.494 230.837 148.464 230.453C148.448 230.055 148.418 229.71 148.372 229.418C148.341 229.127 148.295 228.874 148.234 228.659C148.172 228.445 148.103 228.238 148.027 228.038C147.689 227.226 146.953 226.819 145.819 226.819C144.531 226.819 143.741 227.325 143.45 228.337C143.404 228.537 143.358 228.736 143.312 228.935C143.266 229.135 143.227 229.365 143.197 229.625C143.181 229.886 143.166 230.2 143.151 230.568C143.135 230.921 143.128 231.358 143.128 231.879C143.128 232.401 143.135 232.845 143.151 233.213C143.166 233.566 143.181 233.88 143.197 234.156C143.227 234.417 143.266 234.647 143.312 234.846C143.358 235.046 143.404 235.245 143.45 235.444C143.741 236.441 144.531 236.939 145.819 236.939ZM145.819 237.951C144.807 237.951 143.91 237.844 143.128 237.629C142.346 237.43 141.686 237.062 141.15 236.525C140.613 235.989 140.207 235.329 139.931 234.547C139.67 233.75 139.54 232.861 139.54 231.879C139.54 229.947 140.084 228.452 141.173 227.394C142.246 226.336 143.795 225.807 145.819 225.807C147.827 225.807 149.376 226.336 150.465 227.394C151.553 228.452 152.098 229.947 152.098 231.879C152.098 233.827 151.561 235.329 150.488 236.387C149.43 237.43 147.873 237.951 145.819 237.951ZM157.731 237.606H154.787C154.618 237.606 154.488 237.599 154.396 237.583C154.304 237.568 154.235 237.537 154.189 237.491C154.158 237.445 154.143 237.376 154.143 237.284C154.143 237.192 154.143 237.062 154.143 236.893V220.54H157.731V237.606ZM164.446 237.606H161.502C161.334 237.606 161.203 237.599 161.111 237.583C161.019 237.568 160.95 237.537 160.904 237.491C160.874 237.445 160.858 237.376 160.858 237.284C160.858 237.192 160.858 237.062 160.858 236.893V220.54H164.446V237.606ZM165.904 225.922H169.262C169.369 225.922 169.477 225.945 169.584 225.991C169.707 226.037 169.806 226.152 169.883 226.336L172.597 233.144L175.357 225.922H176.76C176.576 226.367 176.338 226.95 176.047 227.67C175.756 228.391 175.434 229.188 175.081 230.062C174.728 230.936 174.36 231.856 173.977 232.822C173.594 233.773 173.21 234.716 172.827 235.651C172.444 236.587 172.076 237.476 171.723 238.319C171.386 239.163 171.079 239.906 170.803 240.55C170.588 241.056 170.266 241.432 169.837 241.677C169.423 241.938 168.971 242.076 168.48 242.091C168.051 242.107 167.683 242.076 167.376 241.999C167.085 241.923 166.786 241.8 166.479 241.631L166.87 240.642C167.422 240.934 167.928 241.064 168.388 241.033C168.649 241.018 168.894 240.949 169.124 240.826C169.369 240.719 169.561 240.497 169.699 240.159L170.78 237.583L165.904 225.922ZM192.883 227.578C192.561 227.41 192.155 227.249 191.664 227.095C191.189 226.927 190.53 226.842 189.686 226.842C188.858 226.842 188.23 226.98 187.8 227.256C187.386 227.517 187.179 227.824 187.179 228.176C187.179 228.406 187.233 228.606 187.34 228.774C187.448 228.928 187.586 229.066 187.754 229.188C187.938 229.311 188.13 229.426 188.329 229.533C188.544 229.625 188.751 229.717 188.95 229.809C189.548 230.07 190.1 230.315 190.606 230.545C191.112 230.76 191.588 230.99 192.032 231.235C192.738 231.619 193.313 232.048 193.757 232.523C194.202 232.999 194.424 233.543 194.424 234.156C194.424 235.352 193.98 236.288 193.09 236.962C192.201 237.622 190.852 237.951 189.042 237.951C188.26 237.951 187.478 237.806 186.696 237.514C185.914 237.223 185.24 236.855 184.672 236.41L185.293 235.49C185.861 235.95 186.474 236.311 187.133 236.571C187.808 236.817 188.444 236.939 189.042 236.939C189.809 236.939 190.369 236.809 190.721 236.548C191.074 236.288 191.273 235.973 191.319 235.605C191.381 235.161 191.281 234.793 191.02 234.501C190.775 234.195 190.43 233.919 189.985 233.673C189.51 233.413 189.004 233.16 188.467 232.914C187.931 232.669 187.379 232.416 186.811 232.155C186.489 232.002 186.183 231.833 185.891 231.649C185.6 231.465 185.347 231.258 185.132 231.028C184.918 230.783 184.749 230.515 184.626 230.223C184.504 229.917 184.442 229.579 184.442 229.211C184.442 228.506 184.603 227.931 184.925 227.486C185.247 227.042 185.661 226.697 186.167 226.451C186.673 226.191 187.225 226.022 187.823 225.945C188.437 225.853 189.035 225.807 189.617 225.807C190.215 225.807 190.844 225.876 191.503 226.014C192.163 226.137 192.753 226.352 193.274 226.658L192.883 227.578ZM208.074 225.922L204.325 230.108L208.12 237.606H205.061C204.908 237.606 204.77 237.576 204.647 237.514C204.54 237.438 204.425 237.292 204.302 237.077L202.048 232.684L200.047 234.915V237.606H197.034C196.804 237.606 196.651 237.545 196.574 237.422C196.497 237.3 196.459 237.162 196.459 237.008V220.54H200.047V233.098L206.556 225.922H208.074ZM213.389 225.922V237.606H210.56C210.207 237.606 209.992 237.537 209.916 237.399C209.839 237.246 209.801 237.039 209.801 236.778V225.922H213.389ZM209.64 222.334C209.64 221.828 209.808 221.407 210.146 221.069C210.498 220.717 210.928 220.54 211.434 220.54C211.94 220.54 212.361 220.717 212.699 221.069C213.051 221.407 213.228 221.828 213.228 222.334C213.228 222.84 213.051 223.27 212.699 223.622C212.361 223.96 211.94 224.128 211.434 224.128C210.928 224.128 210.498 223.96 210.146 223.622C209.808 223.27 209.64 222.84 209.64 222.334ZM220.105 237.606H217.391C217.038 237.606 216.8 237.553 216.678 237.445C216.57 237.323 216.517 237.1 216.517 236.778V225.922H219.116C219.438 225.922 219.675 226.037 219.829 226.267C219.905 226.39 219.951 226.505 219.967 226.612C220.396 226.352 220.841 226.152 221.301 226.014C221.776 225.876 222.205 225.807 222.589 225.807C224.429 225.807 225.816 226.152 226.752 226.842C227.702 227.532 228.178 228.575 228.178 229.97V237.606H225.464C225.111 237.606 224.873 237.553 224.751 237.445C224.643 237.323 224.59 237.1 224.59 236.778V230.752C224.59 229.357 224.406 228.353 224.038 227.739C223.67 227.126 223.11 226.819 222.359 226.819C221.577 226.819 220.81 227.095 220.059 227.647C220.074 227.785 220.082 227.923 220.082 228.061C220.097 228.199 220.105 228.345 220.105 228.498V237.606ZM238.124 221.391H243.299C245.246 221.391 246.665 221.667 247.554 222.219C248.443 222.756 248.888 223.576 248.888 224.68C248.888 225.646 248.551 226.428 247.876 227.026C247.201 227.609 246.12 227.985 244.633 228.153C245.338 228.153 245.998 228.238 246.611 228.406C247.24 228.56 247.792 228.82 248.267 229.188C248.742 229.556 249.118 230.039 249.394 230.637C249.67 231.235 249.808 231.971 249.808 232.845C249.808 233.934 249.586 234.793 249.141 235.421C248.696 236.05 248.137 236.525 247.462 236.847C246.787 237.169 246.059 237.376 245.277 237.468C244.495 237.56 243.759 237.606 243.069 237.606H239.113C238.454 237.606 238.124 237.246 238.124 236.525V221.391ZM241.712 236.594H243.069C245.154 236.594 246.197 235.345 246.197 232.845C246.197 232.109 246.136 231.481 246.013 230.959C245.89 230.423 245.683 229.986 245.392 229.648C245.101 229.311 244.71 229.066 244.219 228.912C243.728 228.759 243.115 228.682 242.379 228.682H241.712V236.594ZM241.712 222.403V227.67H242.885C243.468 227.67 243.928 227.601 244.265 227.463C244.618 227.31 244.878 227.103 245.047 226.842C245.231 226.582 245.346 226.275 245.392 225.922C245.453 225.554 245.476 225.156 245.461 224.726C245.43 223.852 245.231 223.247 244.863 222.909C244.51 222.572 243.989 222.403 243.299 222.403H241.712ZM259.759 231.143C259.743 230.469 259.697 229.878 259.621 229.372C259.544 228.851 259.444 228.437 259.322 228.13C259.122 227.655 258.839 227.318 258.471 227.118C258.118 226.919 257.65 226.819 257.068 226.819C255.933 226.819 255.189 227.21 254.837 227.992C254.668 228.376 254.545 228.836 254.469 229.372C254.407 229.909 254.377 230.499 254.377 231.143H259.759ZM257.068 237.951C255.028 237.951 253.472 237.438 252.399 236.41C251.862 235.889 251.456 235.23 251.18 234.432C250.919 233.62 250.789 232.73 250.789 231.764C250.789 229.878 251.333 228.414 252.422 227.371C253.51 226.329 255.059 225.807 257.068 225.807C259.076 225.807 260.625 226.329 261.714 227.371C262.25 227.877 262.649 228.529 262.91 229.326C263.186 230.108 263.331 230.959 263.347 231.879V232.132H254.377C254.392 233.359 254.446 234.248 254.538 234.8C254.645 235.352 254.737 235.69 254.814 235.812C254.952 236.058 255.105 236.257 255.274 236.41C255.458 236.548 255.649 236.663 255.849 236.755C256.063 236.832 256.286 236.886 256.516 236.916C256.761 236.947 256.999 236.962 257.229 236.962C258.179 236.962 259.046 236.832 259.828 236.571C260.61 236.311 261.346 235.851 262.036 235.191L262.772 235.95C262.312 236.41 261.836 236.778 261.346 237.054C260.855 237.315 260.357 237.507 259.851 237.629C259.36 237.767 258.877 237.852 258.402 237.882C257.926 237.928 257.482 237.951 257.068 237.951ZM276.869 237.606H274.178C273.979 237.606 273.803 237.545 273.649 237.422C273.511 237.3 273.419 237.123 273.373 236.893C273.189 237.077 272.967 237.238 272.706 237.376C272.446 237.499 272.17 237.606 271.878 237.698C271.587 237.79 271.288 237.852 270.981 237.882C270.69 237.928 270.406 237.951 270.13 237.951C269.364 237.951 268.628 237.859 267.922 237.675C267.217 237.507 266.596 237.254 266.059 236.916C265.523 236.564 265.093 236.127 264.771 235.605C264.465 235.084 264.311 234.486 264.311 233.811C264.311 233.06 264.503 232.431 264.886 231.925C265.27 231.419 265.76 231.013 266.358 230.706C266.956 230.384 267.623 230.162 268.359 230.039C269.111 229.901 269.854 229.832 270.59 229.832C271.556 229.832 272.453 230.024 273.281 230.407V229.372C273.281 228.636 273.036 228.031 272.545 227.555C272.07 227.065 271.342 226.819 270.36 226.819C269.732 226.819 269.157 226.896 268.635 227.049C268.114 227.203 267.57 227.44 267.002 227.762L266.657 226.796C267.838 226.137 269.072 225.807 270.36 225.807C271.602 225.807 272.637 225.93 273.465 226.175C274.309 226.421 274.983 226.796 275.489 227.302C275.995 227.793 276.348 228.414 276.547 229.165C276.762 229.901 276.869 230.768 276.869 231.764V237.606ZM273.281 231.442C272.407 231.044 271.51 230.844 270.59 230.844C270.023 230.844 269.563 230.929 269.21 231.097C268.858 231.251 268.582 231.465 268.382 231.741C268.198 232.002 268.068 232.309 267.991 232.661C267.93 233.014 267.899 233.39 267.899 233.788C267.899 234.233 267.93 234.655 267.991 235.053C268.053 235.437 268.183 235.774 268.382 236.065C268.582 236.341 268.85 236.564 269.187 236.732C269.54 236.886 270.008 236.962 270.59 236.962C271.158 236.962 271.664 236.863 272.108 236.663C272.568 236.464 272.975 236.219 273.327 235.927C273.327 235.697 273.32 235.506 273.304 235.352C273.304 235.199 273.297 235.053 273.281 234.915C273.281 234.777 273.281 234.639 273.281 234.501C273.281 234.363 273.281 234.187 273.281 233.972V231.442ZM287.526 225.922H291.114V237.606H288.469C288.392 237.606 288.3 237.583 288.193 237.537C288.085 237.491 287.97 237.407 287.848 237.284C287.771 237.223 287.717 237.131 287.687 237.008C287.503 237.162 287.288 237.3 287.043 237.422C286.797 237.53 286.544 237.622 286.284 237.698C286.023 237.79 285.762 237.852 285.502 237.882C285.256 237.928 285.042 237.951 284.858 237.951C283.892 237.951 283.064 237.844 282.374 237.629C281.684 237.415 281.116 237.116 280.672 236.732C280.242 236.334 279.928 235.866 279.729 235.329C279.529 234.793 279.43 234.202 279.43 233.558V225.922H283.041V234.501C283.041 235.36 283.225 235.981 283.593 236.364C283.961 236.748 284.52 236.939 285.272 236.939C286.023 236.939 286.782 236.663 287.549 236.111C287.533 235.973 287.526 235.835 287.526 235.697C287.526 235.559 287.526 235.414 287.526 235.26V225.922ZM298.348 234.915C298.348 235.682 298.494 236.211 298.785 236.502C299.077 236.794 299.422 236.939 299.82 236.939C300.173 236.939 300.487 236.855 300.763 236.686C301.055 236.502 301.292 236.272 301.476 235.996L302.212 236.594C302.09 236.824 301.929 237.024 301.729 237.192C301.545 237.361 301.331 237.499 301.085 237.606C300.84 237.729 300.587 237.813 300.326 237.859C300.066 237.921 299.82 237.951 299.59 237.951C297.934 237.951 296.708 237.453 295.91 236.456C295.128 235.444 294.737 233.995 294.737 232.109V226.819H292.943V225.807H294.737V222.771H298.348V225.807H301.476V226.819H298.348V234.915ZM302.152 225.922H305.51C305.617 225.922 305.725 225.945 305.832 225.991C305.955 226.037 306.054 226.152 306.131 226.336L308.845 233.144L311.605 225.922H313.008C312.824 226.367 312.586 226.95 312.295 227.67C312.004 228.391 311.682 229.188 311.329 230.062C310.976 230.936 310.608 231.856 310.225 232.822C309.842 233.773 309.458 234.716 309.075 235.651C308.692 236.587 308.324 237.476 307.971 238.319C307.634 239.163 307.327 239.906 307.051 240.55C306.836 241.056 306.514 241.432 306.085 241.677C305.671 241.938 305.219 242.076 304.728 242.091C304.299 242.107 303.931 242.076 303.624 241.999C303.333 241.923 303.034 241.8 302.727 241.631L303.118 240.642C303.67 240.934 304.176 241.064 304.636 241.033C304.897 241.018 305.142 240.949 305.372 240.826C305.617 240.719 305.809 240.497 305.947 240.159L307.028 237.583L302.152 225.922ZM327.567 220.839L334.743 237.606H331.822C331.47 237.606 331.24 237.568 331.132 237.491C331.04 237.415 330.956 237.284 330.879 237.1L329.062 232.776H323.427L321.403 237.606H320.23L327.13 220.839H327.567ZM323.841 231.787H328.648L326.256 226.083L323.841 231.787ZM345.332 236.157C344.749 236.74 344.059 237.185 343.262 237.491C342.48 237.798 341.667 237.951 340.824 237.951C339.812 237.951 338.915 237.79 338.133 237.468C337.366 237.131 336.715 236.702 336.178 236.18C335.105 235.153 334.568 233.681 334.568 231.764C334.568 229.878 335.112 228.414 336.201 227.371C336.738 226.85 337.443 226.459 338.317 226.198C339.191 225.938 340.134 225.807 341.146 225.807C341.652 225.807 342.196 225.892 342.779 226.06C343.362 226.229 343.906 226.505 344.412 226.888L343.86 227.739C343.293 227.341 342.787 227.088 342.342 226.98C341.897 226.873 341.499 226.819 341.146 226.819C340.502 226.819 339.927 226.95 339.421 227.21C338.93 227.456 338.616 227.824 338.478 228.314C338.417 228.514 338.363 228.713 338.317 228.912C338.286 229.096 338.256 229.319 338.225 229.579C338.21 229.825 338.194 230.124 338.179 230.476C338.164 230.829 338.156 231.258 338.156 231.764C338.156 232.945 338.179 233.811 338.225 234.363C338.286 234.915 338.371 235.314 338.478 235.559C338.892 236.495 339.674 236.962 340.824 236.962C341.652 236.962 342.373 236.824 342.986 236.548C343.615 236.257 344.174 235.866 344.665 235.375L345.332 236.157ZM358.402 237.606H355.711C355.512 237.606 355.336 237.545 355.182 237.422C355.044 237.3 354.952 237.123 354.906 236.893C354.722 237.077 354.5 237.238 354.239 237.376C353.979 237.499 353.703 237.606 353.411 237.698C353.12 237.79 352.821 237.852 352.514 237.882C352.223 237.928 351.939 237.951 351.663 237.951C350.897 237.951 350.161 237.859 349.455 237.675C348.75 237.507 348.129 237.254 347.592 236.916C347.056 236.564 346.626 236.127 346.304 235.605C345.998 235.084 345.844 234.486 345.844 233.811C345.844 233.06 346.036 232.431 346.419 231.925C346.803 231.419 347.293 231.013 347.891 230.706C348.489 230.384 349.156 230.162 349.892 230.039C350.644 229.901 351.387 229.832 352.123 229.832C353.089 229.832 353.986 230.024 354.814 230.407V229.372C354.814 228.636 354.569 228.031 354.078 227.555C353.603 227.065 352.875 226.819 351.893 226.819C351.265 226.819 350.69 226.896 350.168 227.049C349.647 227.203 349.103 227.44 348.535 227.762L348.19 226.796C349.371 226.137 350.605 225.807 351.893 225.807C353.135 225.807 354.17 225.93 354.998 226.175C355.842 226.421 356.516 226.796 357.022 227.302C357.528 227.793 357.881 228.414 358.08 229.165C358.295 229.901 358.402 230.768 358.402 231.764V237.606ZM354.814 231.442C353.94 231.044 353.043 230.844 352.123 230.844C351.556 230.844 351.096 230.929 350.743 231.097C350.391 231.251 350.115 231.465 349.915 231.741C349.731 232.002 349.601 232.309 349.524 232.661C349.463 233.014 349.432 233.39 349.432 233.788C349.432 234.233 349.463 234.655 349.524 235.053C349.586 235.437 349.716 235.774 349.915 236.065C350.115 236.341 350.383 236.564 350.72 236.732C351.073 236.886 351.541 236.962 352.123 236.962C352.691 236.962 353.197 236.863 353.641 236.663C354.101 236.464 354.508 236.219 354.86 235.927C354.86 235.697 354.853 235.506 354.837 235.352C354.837 235.199 354.83 235.053 354.814 234.915C354.814 234.777 354.814 234.639 354.814 234.501C354.814 234.363 354.814 234.187 354.814 233.972V231.442ZM372.081 220.54V237.606H369.528C369.314 237.606 369.114 237.553 368.93 237.445C368.762 237.338 368.647 237.154 368.585 236.893C368.447 237.062 368.271 237.215 368.056 237.353C367.842 237.476 367.612 237.583 367.366 237.675C367.136 237.767 366.899 237.836 366.653 237.882C366.423 237.928 366.216 237.951 366.032 237.951C365.158 237.951 364.369 237.783 363.663 237.445C362.973 237.108 362.383 236.656 361.892 236.088C361.417 235.521 361.049 234.862 360.788 234.11C360.543 233.359 360.42 232.569 360.42 231.741C360.42 229.886 360.942 228.437 361.984 227.394C363.042 226.336 364.461 225.807 366.239 225.807C366.975 225.807 367.727 226.06 368.493 226.566V220.54H372.081ZM364.008 231.741C364.008 232.385 364.008 232.922 364.008 233.351C364.024 233.781 364.039 234.141 364.054 234.432C364.085 234.724 364.116 234.954 364.146 235.122C364.177 235.276 364.215 235.406 364.261 235.513C364.629 236.372 365.289 236.801 366.239 236.801C366.653 236.801 367.06 236.702 367.458 236.502C367.872 236.288 368.217 236.027 368.493 235.72V227.624C367.742 227.088 366.991 226.819 366.239 226.819C365.273 226.819 364.614 227.249 364.261 228.107C364.215 228.23 364.177 228.376 364.146 228.544C364.116 228.698 364.085 228.912 364.054 229.188C364.039 229.449 364.024 229.786 364.008 230.2C364.008 230.614 364.008 231.128 364.008 231.741ZM383.069 231.143C383.054 230.469 383.008 229.878 382.931 229.372C382.854 228.851 382.755 228.437 382.632 228.13C382.433 227.655 382.149 227.318 381.781 227.118C381.428 226.919 380.961 226.819 380.378 226.819C379.243 226.819 378.5 227.21 378.147 227.992C377.978 228.376 377.856 228.836 377.779 229.372C377.718 229.909 377.687 230.499 377.687 231.143H383.069ZM380.378 237.951C378.339 237.951 376.782 237.438 375.709 236.41C375.172 235.889 374.766 235.23 374.49 234.432C374.229 233.62 374.099 232.73 374.099 231.764C374.099 229.878 374.643 228.414 375.732 227.371C376.821 226.329 378.369 225.807 380.378 225.807C382.387 225.807 383.935 226.329 385.024 227.371C385.561 227.877 385.959 228.529 386.22 229.326C386.496 230.108 386.642 230.959 386.657 231.879V232.132H377.687C377.702 233.359 377.756 234.248 377.848 234.8C377.955 235.352 378.047 235.69 378.124 235.812C378.262 236.058 378.415 236.257 378.584 236.41C378.768 236.548 378.96 236.663 379.159 236.755C379.374 236.832 379.596 236.886 379.826 236.916C380.071 236.947 380.309 236.962 380.539 236.962C381.49 236.962 382.356 236.832 383.138 236.571C383.92 236.311 384.656 235.851 385.346 235.191L386.082 235.95C385.622 236.41 385.147 236.778 384.656 237.054C384.165 237.315 383.667 237.507 383.161 237.629C382.67 237.767 382.187 237.852 381.712 237.882C381.237 237.928 380.792 237.951 380.378 237.951ZM392.268 237.606H389.554C389.201 237.606 388.963 237.553 388.841 237.445C388.733 237.323 388.68 237.1 388.68 236.778V225.922H391.279C391.509 225.922 391.7 225.991 391.854 226.129C392.007 226.252 392.099 226.413 392.13 226.612C392.559 226.352 393.004 226.152 393.464 226.014C393.939 225.876 394.368 225.807 394.752 225.807C396.96 225.807 398.524 226.313 399.444 227.325C400.103 226.697 400.724 226.29 401.307 226.106C401.905 225.907 402.418 225.807 402.848 225.807C404.688 225.807 406.075 226.152 407.011 226.842C407.961 227.532 408.437 228.575 408.437 229.97V237.606H405.723C405.37 237.606 405.132 237.553 405.01 237.445C404.902 237.323 404.849 237.1 404.849 236.778V230.752C404.849 229.357 404.665 228.353 404.297 227.739C403.929 227.126 403.369 226.819 402.618 226.819C402.081 226.819 401.59 226.934 401.146 227.164C400.701 227.394 400.302 227.663 399.95 227.969C400.21 228.521 400.341 229.142 400.341 229.832V237.606H397.627C397.274 237.606 397.036 237.553 396.914 237.445C396.806 237.323 396.753 237.1 396.753 236.778V230.752C396.753 229.357 396.569 228.353 396.201 227.739C395.833 227.126 395.273 226.819 394.522 226.819C393.755 226.819 392.996 227.095 392.245 227.647C392.26 227.785 392.268 227.923 392.268 228.061C392.268 228.199 392.268 228.345 392.268 228.498V237.606ZM409.201 225.922H412.559C412.666 225.922 412.773 225.945 412.881 225.991C413.003 226.037 413.103 226.152 413.18 226.336L415.894 233.144L418.654 225.922H420.057C419.873 226.367 419.635 226.95 419.344 227.67C419.052 228.391 418.73 229.188 418.378 230.062C418.025 230.936 417.657 231.856 417.274 232.822C416.89 233.773 416.507 234.716 416.124 235.651C415.74 236.587 415.372 237.476 415.02 238.319C414.682 239.163 414.376 239.906 414.1 240.55C413.885 241.056 413.563 241.432 413.134 241.677C412.72 241.938 412.267 242.076 411.777 242.091C411.347 242.107 410.979 242.076 410.673 241.999C410.381 241.923 410.082 241.8 409.776 241.631L410.167 240.642C410.719 240.934 411.225 241.064 411.685 241.033C411.945 241.018 412.191 240.949 412.421 240.826C412.666 240.719 412.858 240.497 412.996 240.159L414.077 237.583L409.201 225.922Z" fill="#6B1685"/>
<path d="M100.093 225.304C100.213 222.343 99.9422 219.518 99.0108 216.792C97.9338 213.644 96.3678 210.741 94.3803 208.072C92.4604 205.486 90.577 202.874 88.5895 200.346C87.0234 198.353 85.3117 196.48 83.678 194.539C80.5719 190.85 77.4553 187.177 74.3908 183.457C72.6167 181.298 71.446 178.795 70.5251 176.168C69.4117 172.989 68.8862 169.716 69.0527 166.366C69.2348 162.739 69.9996 159.253 71.8987 156.074C73.6156 153.202 75.9413 150.965 78.8185 149.311C80.7331 148.208 82.8767 147.765 85.0463 147.427C86.8361 147.146 88.5999 147.235 90.3793 147.438C97.3043 148.228 103.537 152.64 105.499 159.591C106.555 163.322 106.087 167.016 102.996 169.685C100.181 172.115 96.7944 173.01 93.0848 171.787C90.5458 170.949 88.4698 169.446 86.8205 167.354C86.7945 167.323 86.7633 167.292 86.7477 167.25C86.654 166.948 86.5656 166.647 86.4771 166.345C86.7945 166.324 87.1587 166.183 87.4188 166.298C88.8756 166.928 90.244 166.688 91.5395 165.929C92.8714 165.143 93.7507 163.962 94.3126 162.51C94.937 160.897 95.0723 159.232 94.9578 157.542C94.7237 154.139 92.2523 151.834 88.8444 151.647C85.6446 151.475 83.3762 152.88 81.7789 155.544C79.3908 159.534 79.0942 163.821 80.0932 168.254C80.8892 171.792 82.7362 174.82 84.7602 177.765C86.0557 179.649 87.2732 181.579 88.5895 183.447C89.4844 184.721 90.4781 185.923 91.4407 187.151C92.6477 188.686 93.8392 190.236 95.0827 191.735C97.7726 194.976 100.525 198.171 103.199 201.428C106.222 205.111 108.516 209.196 109.968 213.759C111.102 217.328 111.716 220.944 111.498 224.685C111.212 229.445 109.952 233.894 107.148 237.827C106.8 238.316 106.378 238.753 105.983 239.206C105.343 239.945 104.734 240.715 104.047 241.401C103.36 242.088 102.616 242.728 101.846 243.321C99.2346 245.335 96.4874 247.125 93.2877 248.098C89.3439 249.294 85.3585 250.147 81.1962 249.804C78.6312 249.591 76.139 249.05 73.7197 248.181C73.4855 248.098 73.2618 247.988 73.0381 247.874C72.0027 247.359 71.8674 246.875 72.5854 245.985C73.1213 245.324 73.7197 244.716 74.2868 244.081C74.6146 243.717 74.9944 243.68 75.4158 243.883C76.087 244.211 76.7581 244.544 77.4293 244.877C79.6874 245.985 82.0963 246.485 84.5729 246.152C86.9714 245.829 89.2607 245.064 91.3366 243.738C95.629 241.001 98.0015 236.917 99.4011 232.192C100.067 229.934 100.213 227.572 100.103 225.304H100.093Z" fill="#6B1685"/>
<path d="M44.0421 202.749C43.5738 202.562 43.0639 202.437 42.6477 202.172C38.4334 200.559 31.4251 202.942 30.525 209.841C29.7602 215.715 31.1181 219.654 34.7237 222.973C38.064 226.048 41.5291 227.239 43.8756 227.354C46.8672 227.494 49.2033 226.121 51.066 223.889C53.4021 221.095 54.5103 217.801 55.0462 214.227C55.8214 209.071 55.4312 203.894 55.452 198.733C55.5144 183.161 55.4676 167.588 55.4624 152.011C55.4624 150.762 55.5404 149.508 55.4104 148.27C55.3115 147.318 55.0774 146.329 54.6716 145.466C54.042 144.123 52.8037 143.51 51.3625 143.322C50.9723 143.27 50.5769 143.255 50.1815 143.213C49.6976 143.161 49.375 142.901 49.2294 142.438C49.1097 142.063 48.9848 141.683 48.8912 141.304C48.7403 140.705 48.9744 140.331 49.5831 140.216C49.8277 140.169 50.0774 140.18 50.3272 140.18C57.0441 140.195 63.761 140.211 70.4779 140.227C71.7838 140.227 72.5694 141.272 72.1584 142.526C72.0856 142.75 71.7474 142.979 71.4872 143.036C70.9878 143.151 70.4571 143.14 69.9368 143.197C68.2927 143.385 66.352 144.55 66.248 146.938C66.2115 147.729 66.1491 148.515 66.1491 149.306C66.1491 164.732 66.1543 180.159 66.1595 195.59C66.1595 199.394 66.2063 203.202 66.1387 207.005C66.0659 211.22 65.4155 215.351 63.48 219.144C61.2116 223.587 57.9286 227.078 53.3812 229.321C47.9599 231.99 42.3251 232.583 36.5135 231.043C30.6863 229.295 23.1109 224.201 21.2639 216.667C19.7811 210.637 20.7956 207.885 22.0599 204.929C23.5063 201.553 25.806 198.873 29.3128 197.604C33.1993 196.199 37.1431 196.074 40.8631 198.28C42.3928 199.185 43.3917 200.595 44.0889 202.219C44.1357 202.328 44.1461 202.448 44.1722 202.567C44.1305 202.63 44.0889 202.687 44.0473 202.749H44.0421Z" fill="#6B1685"/>
<path fill-rule="evenodd" clip-rule="evenodd" d="M47.1957 258.907C54.6544 261.871 62.7601 263.504 71.2117 263.504C91.0295 263.504 108.787 254.165 120.774 240.236C108.522 256.49 89.0576 267 67.1327 267C30.057 267 0 236.943 0 199.867C0 164.8 26.8885 136.018 61.1702 133C29.8333 137.828 5.31213 164.914 5.31734 197.609C5.31734 222.876 19.9097 245.052 41.0452 256.088C40.636 255.695 40.1879 255.264 39.6976 254.792C37.8044 252.97 35.2834 250.544 31.9514 247.39C24.1159 239.966 18.7777 224.794 19.2876 221.121C22.7872 225.608 26.6413 227.897 30.3572 230.105C34.2815 232.436 38.0518 234.676 41.0877 239.315C44.4391 244.436 44.6687 248.175 44.8993 251.929C45.0213 253.916 45.1435 255.906 45.7286 258.108C48.8476 253.916 49.8802 250.881 51.16 247.12C52.3053 243.754 53.6486 239.806 56.8628 233.925C59.8776 228.412 64.5085 223.445 69.0715 218.55C74.6194 212.599 80.0671 206.755 82.3881 200.169L82.3933 200.174C82.4383 200.607 82.4877 201.065 82.5396 201.545C83.5535 210.93 85.4994 228.941 74.001 242.484C67.1214 250.589 59.0468 253.96 48.2574 258.464C47.9064 258.61 47.5525 258.758 47.1957 258.907Z" fill="#6B1685"/>
</svg>
