<svg width="166" height="70" viewBox="0 0 166 70" fill="none" xmlns="http://www.w3.org/2000/svg">
<path d="M127.34 21.875C127.099 21.8482 126.965 21.8213 126.831 21.8482C125.572 21.9018 124.286 22.0092 123.026 22.0629C122.678 22.0897 122.491 22.2239 122.33 22.4923C120.91 24.8811 119.463 27.2699 118.016 29.6587C114.641 35.2684 111.265 40.8512 107.862 46.4609C107.675 46.783 107.461 47.1051 107.193 47.3466C105.826 48.7423 104.326 49.977 102.665 50.9969C101.459 51.7216 100.146 52.2584 98.7266 52.4732C98.8337 52.4195 98.9677 52.3658 99.0748 52.3121C101.566 51.2385 102.692 48.0445 101.406 45.6557C101.138 45.1457 100.79 44.6626 100.468 44.1526C99.9858 43.4279 99.5035 42.7301 99.0213 42.0054C98.5122 41.227 98.3515 40.3413 98.4319 39.4018C98.5658 37.8719 99.6375 36.9593 100.977 37.013C102.129 37.0667 102.933 37.7914 102.986 38.9455C103.04 40.046 102.852 41.0928 102.397 42.1127C102.317 42.2738 102.263 42.4348 102.209 42.5958C102.718 42.8643 102.718 42.8374 103.522 42.8643C105.13 42.8911 106.71 41.4149 106.255 39.2945C106.041 38.2477 105.344 37.6035 104.38 37.1472C102.611 36.342 100.816 36.342 98.9945 36.852C97.7621 37.2009 96.7172 37.7914 95.8867 38.7845C94.7882 40.0728 94.5739 42.059 95.5384 43.5084C95.8867 44.0452 96.2617 44.582 96.6368 45.1189C97.0923 45.7899 97.5745 46.434 97.9496 47.1319C98.8605 48.8765 98.5658 50.8359 96.7708 52.0437C95.6991 52.7684 94.4935 53.0636 93.2343 52.8221C90.8499 52.3658 90.1265 50.0575 91.3321 48.3129C91.5464 48.3666 91.7608 48.4202 92.0019 48.4471C92.5645 48.5276 93.1003 48.3666 93.5022 47.964C94.0113 47.4271 94.0916 46.783 93.9309 46.112C93.7433 45.4409 93.2879 44.9847 92.5913 44.8236C91.4125 44.5552 90.4748 44.931 89.6978 45.8436C89.1888 46.4609 88.9209 47.2124 88.8137 47.9908C88.7333 48.5276 88.7333 49.0376 88.8137 49.5207C87.9832 50.1112 87.0991 50.648 86.1614 51.0774C84.8754 51.6679 83.5626 52.0437 82.1158 51.9363C81.0442 51.8558 80.1333 51.4801 79.4635 50.6212C78.6062 49.5475 78.365 48.2592 78.5794 46.944C78.7133 46.0046 78.4722 46.1388 79.5974 45.8972C79.7582 45.8704 79.9457 45.8167 80.1065 45.763C82.3838 45.2531 84.661 44.7162 86.8044 43.8037C87.6617 43.4279 88.4922 42.9716 89.296 42.4885C89.9925 42.059 90.6087 41.4686 91.0106 40.7439C91.7876 39.375 91.4661 37.6572 89.805 36.9593C89.6175 36.8788 89.4031 36.7983 89.1888 36.7446C87.8224 36.3689 86.4561 36.4762 85.1165 36.8251C81.9283 37.684 79.2759 39.4018 77.1058 41.8443C75.9538 43.1327 75.0161 44.5552 74.5606 46.2462C74.5071 46.434 74.3463 46.6219 74.2124 46.783C73.5694 47.4808 72.9264 48.1518 72.2566 48.8228C71.051 49.977 69.7918 51.0774 68.3182 51.8827C67.9699 52.0705 67.5681 52.2584 67.193 52.3389C66.3357 52.5537 65.907 52.2048 65.9338 51.319C65.9338 51.1311 65.9338 50.9164 66.0142 50.7285C66.2553 50.0307 66.4428 49.2791 66.7911 48.635C67.5949 47.1319 68.479 45.6557 69.3631 44.2063C70.7027 42.059 72.069 39.9386 73.4354 37.7914C73.5694 37.5767 73.6765 37.362 73.8373 37.0667C72.4173 37.1741 71.1313 37.3083 69.8453 37.3888C69.4703 37.4156 69.2559 37.5767 69.0684 37.8719C67.9699 39.6971 66.8179 41.5222 65.7195 43.3474C64.2459 45.763 62.5313 47.9639 60.4147 49.8428C59.5842 50.5675 58.7269 51.2653 57.7356 51.7216C57.4141 51.8558 57.0658 51.99 56.7443 52.0437C55.7798 52.2047 55.1368 51.6143 55.2976 50.6212C55.3779 50.0575 55.5119 49.4939 55.753 48.9839C56.2353 47.964 56.7443 46.944 57.3605 45.9778C59.102 43.2132 60.897 40.4755 62.692 37.7109C62.7992 37.523 63.0135 37.362 62.9599 37.0935C61.8079 37.1204 60.6827 37.1472 59.5306 37.1741C58.4858 37.2009 58.4858 37.2009 57.9231 38.1135C57.8696 38.2209 57.7892 38.3014 57.7356 38.4087C56.0477 41.3075 54.3867 44.2331 52.6988 47.1319C52.6184 47.2929 52.5113 47.4271 52.3773 47.5613C51.4664 48.4202 50.5823 49.3328 49.6446 50.1649C48.7337 50.9701 47.7692 51.6411 46.6439 52.0974C46.2956 52.2316 45.9206 52.339 45.5723 52.3658C44.9829 52.4195 44.6346 52.0974 44.6078 51.5069C44.581 51.1043 44.6078 50.6748 44.6881 50.2722C44.8757 49.3865 45.3044 48.5813 45.7598 47.8029C47.6888 44.6357 49.6178 41.4686 51.5736 38.3014C54.8421 33.0406 58.1643 27.7799 61.4596 22.5192C61.5668 22.3581 61.6472 22.1971 61.7543 21.9824C61.5132 21.9824 61.3792 21.9555 61.2185 21.9555C59.9861 22.0092 58.7537 22.1166 57.5213 22.1434C57.1194 22.1702 56.9051 22.3313 56.6907 22.6534C55.4851 24.6664 54.2527 26.6794 53.0203 28.6925C49.9125 33.819 46.7779 38.9724 43.6969 44.1258C42.8395 45.5483 42.0358 46.9709 41.4732 48.5276C41.2588 49.0913 41.1249 49.7086 41.0713 50.2991C40.9373 51.8558 41.7143 52.8489 43.2414 53.0368C43.8308 53.1173 44.447 53.0905 45.0632 53.01C46.4028 52.8489 47.5816 52.2584 48.6265 51.4532C49.6178 50.6748 50.5823 49.8159 51.5468 48.9839C51.6807 48.8765 51.8147 48.7423 51.9486 48.635C52.0022 48.796 52.0022 48.8765 51.9754 48.9839C51.9218 49.4939 51.7879 50.0307 51.7879 50.5406C51.8147 51.8558 52.806 52.9563 54.0384 53.0636C54.7885 53.1173 55.5387 53.0905 56.2621 52.8758C57.6016 52.4732 58.8073 51.8021 59.8253 50.8896C60.8166 50.0038 61.7543 49.0376 62.7188 48.125C62.826 48.0176 62.9331 47.9371 63.0403 47.8566C62.7456 48.7692 62.6652 49.6817 62.692 50.6212C62.7456 51.6948 63.4422 52.6342 64.4603 52.9563C65.1033 53.171 65.773 53.1442 66.4428 53.0368C67.702 52.8221 68.8005 52.2047 69.8186 51.4532C71.2653 50.3796 72.5513 49.1718 73.7837 47.8566C73.9177 47.7224 74.0248 47.5077 74.2391 47.4808C74.2927 48.0445 74.2927 48.5813 74.3731 49.0913C74.7214 51.0774 75.8198 52.4732 77.7488 53.0905C79.142 53.5199 80.5351 53.3857 81.9551 53.1442C84.5271 52.7147 86.8311 51.6411 88.8941 50.0843C89.162 50.9701 89.7514 51.7216 90.7159 52.3121C91.2785 52.661 91.9215 52.9026 92.5645 53.0636C94.9222 53.6005 97.253 53.4126 99.5303 52.7416C101.915 52.0437 104.004 50.7554 105.88 49.1449C105.96 49.0644 106.067 49.0107 106.175 48.9302C105.532 50.1917 104.781 51.3459 104.112 52.5537C104.219 52.6074 104.246 52.661 104.272 52.661C105.478 52.6342 106.71 52.6074 107.916 52.5805C108.13 52.5805 108.291 52.4732 108.371 52.2853C108.452 52.1511 108.532 52.0169 108.613 51.8827C110.702 48.3934 113.087 45.092 115.846 42.0859C116.998 40.8244 118.231 39.6434 119.704 38.7308C120.133 38.4624 120.615 38.2477 121.097 38.1135C122.062 37.8451 122.705 38.2477 122.973 39.2139C123.187 39.9923 123.053 40.7439 122.705 41.4417C122.196 42.4616 121.365 43.1595 120.374 43.6963C119.544 44.1526 118.686 44.0452 117.802 43.911C117.186 43.8037 116.543 43.8574 115.927 43.8574C115.793 43.8574 115.632 43.9379 115.498 44.0184C115.23 44.1794 115.123 44.4747 115.203 44.7968C115.284 45.092 115.498 45.2262 115.793 45.1994C116.302 45.1457 116.811 45.092 117.293 44.9847C117.775 44.8773 118.258 44.7431 118.874 44.5552C118.74 44.8773 118.659 45.0652 118.579 45.2531C118.124 46.2462 117.668 47.2124 117.239 48.2055C116.864 49.0644 116.623 49.9233 116.65 50.8896C116.704 52.3658 117.668 53.332 119.142 53.3857C120.508 53.4394 121.767 53.0636 122.973 52.3926C124.527 51.5069 125.92 50.3796 127.206 49.1181C127.34 48.9839 127.501 48.8228 127.661 48.6886C127.715 48.8765 127.688 49.0107 127.661 49.1449C127.447 50.0575 127.42 50.9432 127.822 51.8021C128.197 52.6074 128.84 53.0368 129.698 53.1173C130.394 53.171 131.117 53.1442 131.787 52.9026C133.288 52.4195 134.547 51.5337 135.779 50.5675C137.038 49.5744 138.083 48.3666 139.128 47.1856C139.208 47.1051 139.316 47.0245 139.396 46.944C139.423 47.1051 139.396 47.2124 139.342 47.2929C137.949 49.7086 136.556 52.1242 135.136 54.513C133.636 57.0092 131.975 59.398 129.939 61.4916C128.572 62.8873 127.072 64.0682 125.33 64.9003C123.937 65.5713 122.491 65.8934 120.937 65.8666C119.034 65.8129 117.454 65.0882 116.596 63.3167C115.712 61.5184 115.846 59.6932 116.811 57.9486C117.32 57.0092 118.124 56.4187 119.142 56.2308C119.544 56.1503 119.972 56.1771 120.374 56.1503C120.508 56.1503 120.642 56.0966 120.776 56.0698C120.749 55.7477 120.562 55.7745 120.374 55.7477C118.874 55.5061 117.4 55.6135 115.953 56.0698C113.944 56.7139 112.551 57.9218 112.39 60.1764C112.283 61.5184 112.578 62.7531 113.435 63.8267C114.346 64.954 115.578 65.5981 116.945 65.9471C119.356 66.5376 121.821 66.5107 124.232 66.0276C127.233 65.4371 129.939 64.1488 132.377 62.2699C135.029 60.2569 137.119 57.7607 138.887 54.9693C139.342 54.2446 139.798 53.6273 140.709 53.5199C140.789 53.5199 140.87 53.4662 140.923 53.4394C143.308 52.5805 145.371 51.2116 147.326 49.6549C149.657 47.7761 151.693 45.602 153.542 43.24C153.971 42.6764 154.372 42.1127 154.801 41.5491C154.962 41.3343 155.015 41.1733 154.667 41.0391C154.56 41.1465 154.453 41.2538 154.372 41.388C153.837 42.0859 153.301 42.8106 152.765 43.4816C150.568 46.2193 148.157 48.6886 145.263 50.6748C143.79 51.7216 142.209 52.6074 140.468 53.171C140.361 53.1978 140.227 53.2247 140.012 53.2515C140.843 51.8558 141.62 50.5406 142.37 49.1986C143.12 47.8566 143.87 46.5414 144.62 45.1994C145.371 43.8574 146.121 42.4885 146.871 41.1196C147.594 39.8044 148.398 38.4893 149.121 37.0935C147.755 37.1472 146.523 37.2009 145.263 37.2278C144.995 37.2278 144.861 37.362 144.728 37.6035C143.897 39.1334 143.04 40.6633 142.156 42.1664C140.548 44.8505 138.646 47.3198 136.342 49.4939C135.565 50.2186 134.681 50.8627 133.797 51.5069C133.341 51.8558 132.805 52.0705 132.216 52.1242C131.519 52.2047 130.957 51.7753 130.93 51.0774C130.903 50.7554 130.957 50.4064 131.037 50.0843C131.385 48.796 132.055 47.6419 132.752 46.5414C134.547 43.6695 136.342 40.8244 138.164 37.9793C138.324 37.7109 138.485 37.4425 138.673 37.1204C138.378 37.1204 138.19 37.1204 138.003 37.1204C137.226 37.1472 136.422 37.1741 135.645 37.2009C135.351 37.2009 135.056 37.2278 134.761 37.2278C134.279 37.2009 133.957 37.3888 133.743 37.8451C133.422 38.4624 133.02 39.0529 132.671 39.6702C131.412 41.7906 130.126 43.911 128.921 46.0851C128.438 46.9709 127.902 47.7492 127.179 48.4471C126.027 49.5475 124.875 50.648 123.535 51.5337C123.026 51.8827 122.437 52.1779 121.848 52.3658C120.749 52.7147 120.294 52.2853 120.481 51.158C120.588 50.5138 120.749 49.8965 120.937 49.2791C121.178 48.5276 121.339 47.7492 121.285 46.9709C121.231 45.9778 120.749 45.2262 119.892 44.7163C119.785 44.6626 119.651 44.582 119.49 44.5015C119.651 44.4478 119.758 44.3942 119.865 44.3673C120.963 44.0184 122.062 43.6963 123.16 43.3205C124.018 43.0253 124.821 42.6495 125.545 42.0859C126.643 41.227 127.018 40.0997 126.831 38.7577C126.697 37.7377 125.893 36.9325 124.875 36.7446C123.803 36.5299 122.759 36.7178 121.767 37.1204C120.16 37.7377 118.82 38.7577 117.561 39.885C115.766 41.4685 114.239 43.2937 112.685 45.0652C112.605 45.1457 112.524 45.2262 112.363 45.3604C116.543 38.9455 126.509 23.217 127.34 21.875ZM79.2759 44.3942C80.4548 41.9248 82.0087 39.7776 84.1788 38.0866C84.7146 37.6572 85.304 37.2814 85.9738 37.1472C86.3221 37.0667 86.6704 37.0399 87.0187 37.0667C87.5277 37.0936 87.8224 37.4156 87.9028 37.9256C87.9832 38.4893 87.8492 39.0261 87.6349 39.536C87.2062 40.5828 86.4828 41.4686 85.6523 42.1932C83.8573 43.8037 81.7943 44.931 79.4367 45.4946C79.2759 45.5215 79.1152 45.5483 78.8473 45.5751C79.0348 45.1189 79.1152 44.7431 79.2759 44.3942Z" fill="url(#paint0_linear_31_6)"/>
<path d="M34.2395 36.7715C36.0345 36.3421 37.776 35.6979 39.2763 34.5706C41.6072 32.8259 42.4645 30.3298 41.6875 27.6726C41.2321 26.1158 40.2408 24.9617 38.9548 24.0223C38.7405 23.8881 38.5529 23.727 38.285 23.5391C38.4993 23.3513 38.6601 23.1902 38.8476 23.1097C40.4283 22.1703 42.0894 21.4724 43.938 21.2309C44.072 21.204 44.2059 21.1503 44.3399 21.1235C44.1791 20.9893 44.072 20.9356 43.938 20.9624C43.2682 21.0698 42.5984 21.0967 41.9822 21.3114C40.6159 21.7408 39.2763 22.224 37.9367 22.7339C37.4277 22.9486 36.999 22.9755 36.49 22.7608C33.4357 21.5529 30.2476 20.9624 26.9522 20.9356C25.0232 20.9356 23.121 21.1772 21.2456 21.6066C17.2805 22.4655 13.6368 24.0759 10.3951 26.4916C8.35893 28.0215 6.59069 29.8467 5.38507 32.1281C4.09908 34.5706 3.69721 37.1473 4.42058 39.8313C5.06357 42.1933 6.5639 43.8037 8.97513 44.4747C10.2343 44.8236 11.5203 44.8505 12.7795 44.6358C16.182 44.0453 18.4325 42.0054 19.6113 38.7845C20.1204 37.362 20.3347 35.8858 20.3347 34.3827C20.3347 33.497 20.2008 32.6112 20.1204 31.7523C20.0936 31.3766 20.04 31.3766 19.6381 31.4302C19.6381 31.4839 19.6113 31.5376 19.6113 31.5913C19.8525 33.2017 19.9596 34.7853 19.7185 36.3957C19.4774 38.0598 18.9684 39.5898 17.9771 40.9855C16.8518 42.569 15.3783 43.6427 13.4225 43.9379C12.0294 44.1526 10.7702 43.8842 9.72529 42.8911C9.10909 42.3006 8.62684 41.6296 8.27855 40.8244C7.44802 38.9187 7.47481 36.9325 7.8231 34.9195C8.25176 32.3965 9.48417 30.2224 11.1184 28.3167C13.1546 25.9279 15.673 24.237 18.5397 23.0292C20.4955 22.224 22.5048 21.6603 24.6214 21.4724C26.2824 21.3114 27.9435 21.3651 29.6046 21.6871C31.3996 22.0361 33.0875 22.6266 34.5878 23.7002C34.7217 23.8075 34.8557 23.9149 34.9629 23.9954C34.9361 24.0491 34.9361 24.0759 34.9361 24.1028C34.6146 24.2907 34.2931 24.5054 33.9984 24.6933C31.4532 26.2232 29.4706 28.3436 27.6488 30.6787C25.3715 33.6312 23.4693 36.852 21.6475 40.1266C20.5223 42.1396 19.397 44.1795 18.0842 46.0851C16.825 47.9103 15.4319 49.6013 13.6904 50.9701C11.4399 52.7148 8.89476 53.2247 6.13523 52.7148C4.15266 52.339 3.16138 50.8091 3.53646 48.8497C3.67042 48.7692 3.85796 48.7155 3.99191 48.6082C4.79566 48.0982 5.17074 47.3467 5.03678 46.4072C4.92962 45.5483 4.44737 44.931 3.59004 44.7163C2.30405 44.3942 1.04485 44.7431 0.455439 46.112C-0.133973 47.4809 -1.59964e-05 48.796 0.750145 50.0575C1.58068 51.4532 2.86667 52.2853 4.36699 52.8221C5.73336 53.3052 7.12652 53.3858 8.54647 53.3321C11.172 53.2247 13.6636 52.6342 15.9677 51.3459C18.3521 50.0039 20.3615 48.2592 22.103 46.1657C23.6569 44.3137 24.9161 42.3006 26.1217 40.2071C28.0507 36.852 29.9796 33.497 31.9354 30.1687C32.9267 28.4509 34.1323 26.921 35.6059 25.579C35.8202 25.3911 36.0613 25.2032 36.3024 24.9885C36.5436 25.2301 36.7579 25.418 36.9186 25.6595C38.1243 27.1626 38.3118 28.9072 38.0171 30.7324C37.7224 32.6649 36.6507 34.1411 35.0968 35.2684C34.0252 36.0736 32.7928 36.5299 31.5068 36.852C30.9174 36.9862 30.3011 37.0399 29.7117 37.1473C29.5242 37.1741 29.2831 37.1473 29.2831 37.4962C29.4974 37.4962 29.6849 37.4962 29.8725 37.523C30.6762 37.6572 31.5068 37.7378 32.2837 37.9793C33.784 38.4356 34.7485 39.4824 35.1236 41.0123C35.3112 41.7907 35.3915 42.5959 35.3915 43.4011C35.3379 45.2531 34.8021 46.9977 33.918 48.635C33.1946 49.977 32.2301 51.0775 30.9709 51.9364C29.8189 52.7148 28.5597 52.9832 27.2201 52.8221C26.3896 52.7148 25.8002 52.2585 25.5858 51.4264C25.2376 50.0575 25.6126 48.8766 26.6575 47.8835C26.7915 47.7493 26.9522 47.6419 27.113 47.4809C26.6575 46.9977 26.0949 46.8098 25.4787 46.6756C23.3354 46.2194 21.835 48.2324 22.2101 50.0039C22.3977 50.8896 22.8799 51.5875 23.5765 52.1243C24.5946 52.9295 25.8002 53.2784 27.0862 53.3321C29.4974 53.4394 31.7747 52.9563 33.8912 51.8022C37.6956 49.7355 39.8121 46.622 39.571 42.1396C39.4906 40.4486 38.6869 39.1871 37.1866 38.4088C36.1685 37.872 35.0432 37.6572 33.918 37.4962C33.4357 37.4157 32.9803 37.362 32.498 37.2815C32.498 37.2278 32.498 37.2009 32.498 37.1473C33.0071 37.0399 33.6233 36.9057 34.2395 36.7715Z" fill="url(#paint1_linear_31_6)"/>
<path d="M125.786 26.5184C126.054 26.9479 126.295 27.3505 126.563 27.8067C125.947 28.3972 125.84 29.0683 126.295 29.6856C126.134 30.0882 125.893 30.4103 125.866 30.7592C125.759 31.9133 126.509 32.7186 127.688 32.6649C128.09 32.6649 128.438 32.6649 128.706 33.0406C128.84 33.2017 129.081 33.309 129.322 33.3896C130.073 33.658 130.796 33.6311 131.466 33.2554C132.591 34.0606 133.154 34.1679 134.493 33.6848C135.029 33.4969 135.538 33.2554 136.02 33.0138C137.762 32.0744 139.209 30.7592 140.495 29.2561C140.95 28.7193 140.95 28.7193 141.62 29.0146C142.557 29.4172 143.361 30.0345 144.138 30.7055C145.263 31.6449 146.496 32.3696 147.943 32.6649C148.532 32.7991 149.121 32.8528 149.764 32.9601C150.273 34.5974 151.506 35.1879 153.194 35.0805C152.926 35.9663 152.979 36.7178 153.408 37.4693C154.346 37.2814 154.989 36.6641 155.712 36.0199C155.712 36.7715 155.685 37.4425 155.712 38.0867C155.766 38.7845 155.98 39.4018 156.596 39.9655C157.025 38.8114 157.427 37.7377 157.802 36.6641C157.909 36.8788 157.909 37.0667 157.909 37.2546C157.936 38.0867 157.989 38.9456 158.391 39.6971C158.498 39.9118 158.606 40.1802 158.981 40.1802C159.302 39.0529 159.624 37.9256 159.945 36.7715C160.427 37.684 160.829 38.5966 161.66 39.4287C161.794 38.7845 161.928 38.3014 161.981 37.7914C162.035 37.2814 162.035 36.7446 162.035 36.181C163.723 37.6304 163.723 37.6304 164.285 37.6572C164.285 37.362 164.339 37.0399 164.285 36.7446C164.178 36.1541 164.044 35.5905 163.91 34.9732C164.58 35 165.223 35.4563 165.973 35.2416C165.893 35.1074 165.839 35 165.786 34.9195C164.393 33.0675 163.026 31.2423 161.633 29.3903C161.285 28.934 160.883 28.5583 160.347 28.3167C158.257 27.4041 156.409 26.1158 154.533 24.8543C154.399 24.7738 154.319 24.6664 154.185 24.559C154.265 24.4517 154.319 24.3712 154.399 24.2906C155.31 23.566 156.328 22.9755 157.427 22.5729C157.882 22.385 158.364 22.2239 158.793 22.6802C159.222 21.5798 158.847 20.9893 157.748 20.9624C157.668 20.9624 157.587 20.9624 157.48 20.9624C157.266 20.9624 157.159 20.8819 156.998 20.7209C156.811 20.533 156.543 20.3988 156.275 20.3719C155.712 20.3451 155.149 20.3988 154.614 20.4256C153.837 20.4793 153.06 20.5598 152.31 20.6135C152.015 20.6403 151.827 20.533 151.72 20.2377C151.559 19.7546 151.184 19.4594 150.756 19.2178C150.541 19.1104 150.273 18.9762 150.032 18.8689C148.103 18.0368 146.657 16.6948 145.585 14.8965C144.942 13.796 144.433 12.615 144.058 11.4072C143.843 10.7094 143.495 10.1189 142.933 9.63574C142.477 9.23313 142.048 8.80368 141.62 8.40107C138.619 5.71702 135.592 3.05982 132.564 0.402607C132.457 0.268405 132.296 0.161043 132.082 0C132.082 0.214724 132.028 0.348926 132.055 0.456288C132.484 2.01304 133.529 3.19402 134.413 4.48236C132.403 3.14034 130.528 1.63727 128.492 0.161043C128.519 0.885736 128.84 1.34202 129.162 1.77147C130.099 3.08666 131.359 4.07975 132.618 5.04601C132.725 5.12653 132.832 5.2339 132.966 5.34126C130.742 4.42868 128.599 3.43558 126.375 2.65721C127.903 4.58972 130.073 5.58282 132.189 6.71012C131.144 6.57592 130.126 6.38804 129.108 6.20015C128.09 6.01227 127.099 5.74387 126.081 5.69018C127.688 7.08589 129.671 7.51534 131.6 8.18635C129.778 8.05215 127.983 7.94479 126.188 7.81058C126.724 8.34739 127.393 8.64264 128.063 8.8842C128.76 9.12577 129.483 9.34049 130.287 9.58206C129.456 10.0115 128.572 10.1189 128.117 11.0314C128.412 11.1925 128.706 11.3267 129.001 11.4609C129.322 11.5951 129.644 11.6756 130.019 11.783C129.322 13.0176 130.019 13.7155 130.957 14.2523C130.876 14.467 130.796 14.6012 130.769 14.7891C130.608 15.487 130.93 16.2385 131.627 16.3727C132.243 16.5069 132.537 16.829 132.725 17.339C132.859 17.661 133.073 17.9294 133.288 18.1979C133.716 18.7615 134.199 19.2983 134.627 19.8351C135.458 20.8282 136.288 21.8213 136.69 23.0828C136.824 23.4586 136.878 23.8612 136.985 24.2906C136.663 24.398 136.422 24.4785 136.181 24.5322C134.574 24.8811 132.913 25.0422 131.251 25.0959C129.939 25.1495 128.626 25.2569 127.313 25.3643C126.992 25.3911 127.206 25.3643 126.215 25.579C125.277 25.8474 125.786 26.5184 125.786 26.5184Z" fill="url(#paint2_linear_31_6)"/>
<path d="M21.6207 64.0951H25.1036V62.8068C24.7017 62.7531 24.3803 62.6457 24.0855 62.5115C23.7908 62.3773 23.5497 62.1894 23.3354 61.9747C23.1211 61.76 22.9871 61.5184 22.8799 61.25C22.7728 60.9816 22.7192 60.7132 22.7192 60.418C22.7192 59.6128 23.0943 58.9686 23.8176 58.5123H22.2369V57.4387H25.1304V56.3651H26.4164V57.4387H29.1491C29.3367 57.4387 29.417 57.546 29.417 57.7876C29.417 58.0292 29.3635 58.217 29.2831 58.3244C29.2027 58.4318 29.0688 58.4855 28.9348 58.4855H27.7292C28.1043 58.6733 28.3722 58.9686 28.5597 59.2907C28.7473 59.6396 28.8276 60.0154 28.8276 60.3911C28.8276 60.6864 28.7741 60.9816 28.6669 61.25C28.5597 61.5184 28.399 61.76 28.2114 61.9747C27.9971 62.1894 27.756 62.3773 27.4345 62.5115C27.1398 62.6726 26.7647 62.7531 26.3628 62.8068V64.0683H29.8725C30.0333 64.0683 30.1136 64.1756 30.1136 64.4172C30.1136 64.9003 29.9529 65.1419 29.6314 65.1419H21.6207V64.0951ZM23.9784 66.135H25.2912V68.2017C25.2912 68.4433 25.3983 68.5506 25.6394 68.5506H31.989C32.1766 68.5506 32.2569 68.658 32.2569 68.8996C32.2569 69.3827 32.0962 69.6243 31.7747 69.6243H25.6127C25.3447 69.6243 25.1036 69.6243 24.8893 69.5974C24.675 69.5706 24.5142 69.5169 24.407 69.4632C24.2731 69.3827 24.1659 69.2753 24.0855 69.1411C24.0052 69.0069 23.9784 68.819 23.9784 68.5775V66.135ZM25.7734 61.76C26.0145 61.76 26.2557 61.7331 26.47 61.6526C26.6843 61.5721 26.8987 61.4647 27.0594 61.3037C27.2201 61.1695 27.3273 61.0085 27.4345 60.8206C27.5149 60.6327 27.5684 60.4448 27.5684 60.2301C27.5684 60.0154 27.5149 59.8275 27.4345 59.6396C27.3273 59.4517 27.2201 59.2907 27.0594 59.1565C26.8987 59.0223 26.6843 58.9149 26.47 58.8344C26.2557 58.7539 26.0145 58.727 25.7734 58.727C25.2644 58.727 24.8357 58.8881 24.4874 59.1833C24.1659 59.4785 23.9784 59.8275 23.9784 60.2569C23.9784 60.4716 24.032 60.6595 24.1123 60.8474C24.1927 61.0353 24.3267 61.1963 24.4874 61.3305C24.6482 61.4647 24.8357 61.5989 25.05 61.6795C25.2644 61.7331 25.5055 61.76 25.7734 61.76ZM32.0158 60.0154H33.8644C34.052 60.0154 34.1323 60.1227 34.1323 60.3643C34.1323 60.8743 33.9716 61.1158 33.6501 61.1158H31.989V64.3635C31.989 64.6856 31.989 64.9808 31.9622 65.2493C31.9622 65.5177 31.9354 65.7592 31.8819 65.9471C31.8283 66.1618 31.7479 66.3229 31.6675 66.4302C31.5604 66.5376 31.4264 66.5913 31.2389 66.5913H31.0781C30.8638 66.5913 30.7298 66.4839 30.7298 66.2424V56.714H32.0158V60.0154Z" fill="black"/>
<path d="M40.6159 58.3513C40.6159 59.0223 40.4819 59.6396 40.214 60.2033C39.9461 60.7669 39.571 61.2769 39.062 61.76C38.5529 62.2431 37.9635 62.6457 37.2669 62.9947C36.5704 63.3436 35.8202 63.6388 34.9629 63.8804C34.9093 63.9072 34.8557 63.9072 34.8289 63.9072C34.7218 63.9072 34.6146 63.8536 34.5074 63.7194C34.4003 63.5852 34.3199 63.4241 34.3199 63.2094C34.3199 63.0215 34.4003 62.9141 34.561 62.8605C35.2844 62.6726 35.9542 62.4042 36.5168 62.1089C37.1062 61.8137 37.5884 61.4648 38.0439 61.0622C38.5261 60.6327 38.8476 60.2033 39.0084 59.7738C39.1691 59.3444 39.2495 58.8612 39.2495 58.3244H34.695V57.224H40.0265C40.4015 57.224 40.5623 57.4118 40.5623 57.7608V58.3513H40.6159ZM40.3748 64.283C41.0178 64.283 41.6072 64.3635 42.1162 64.5246C42.6252 64.6856 43.0539 64.8735 43.4022 65.1419C43.7505 65.4103 44.0184 65.7056 44.2059 66.0545C44.3935 66.4034 44.4739 66.7792 44.4739 67.1549C44.4739 67.5576 44.3935 67.9065 44.2059 68.2554C44.0184 68.6043 43.7505 68.8996 43.4022 69.168C43.0539 69.4364 42.6252 69.6243 42.1162 69.7853C41.6072 69.9195 41.0178 70 40.3748 70C39.7318 70 39.1691 69.9195 38.6333 69.7853C38.1243 69.6243 37.6688 69.4364 37.3205 69.168C36.9454 68.8996 36.6775 68.6043 36.49 68.2554C36.3025 67.9065 36.1953 67.5307 36.1953 67.1549C36.1953 66.7523 36.3025 66.4034 36.49 66.0545C36.6775 65.7056 36.9722 65.4103 37.3205 65.1419C37.6956 64.8735 38.1243 64.6856 38.6333 64.5246C39.1691 64.3635 39.7318 64.283 40.3748 64.283ZM40.3748 68.9264C40.7766 68.9264 41.1517 68.8727 41.5 68.7922C41.8483 68.6848 42.143 68.5775 42.4109 68.4164C42.6788 68.2554 42.8932 68.0675 43.0271 67.8528C43.1879 67.6381 43.2414 67.3965 43.2414 67.1549C43.2414 66.9134 43.1611 66.6718 43.0271 66.4571C42.8932 66.2424 42.6788 66.0545 42.4109 65.8934C42.143 65.7324 41.8483 65.5982 41.5 65.5177C41.1517 65.4103 40.7766 65.3835 40.3748 65.3835C39.9461 65.3835 39.571 65.4372 39.2227 65.5177C38.8744 65.5982 38.5529 65.7324 38.3118 65.8934C38.0439 66.0545 37.8564 66.2424 37.7224 66.4571C37.5884 66.6718 37.5081 66.8865 37.5081 67.1549C37.5081 67.4233 37.5884 67.6381 37.7224 67.8528C37.8564 68.0675 38.0439 68.2554 38.3118 68.4164C38.5797 68.5775 38.8744 68.7117 39.2227 68.7922C39.5442 68.8727 39.9461 68.9264 40.3748 68.9264ZM40.8034 61.0085H43.3218V59.4786H41.1785V58.3781H43.3218V56.714H44.6078V62.5384C44.6078 63.2094 44.5542 63.6657 44.4471 63.9072C44.3399 64.1488 44.1256 64.283 43.8041 64.283H43.6433C43.429 64.283 43.295 64.1756 43.295 63.9341V62.0821H40.7766V61.0085H40.8034Z" fill="black"/>
<path d="M51.6004 58.4854C51.6004 59.4249 51.4664 60.2838 51.2253 61.0353C50.9842 61.8137 50.6359 62.4847 50.2072 63.102C49.7786 63.7193 49.2695 64.2562 48.7069 64.7124C48.1443 65.1687 47.5281 65.5713 46.8851 65.8934C46.8047 65.9471 46.7511 65.9471 46.6708 65.9471C46.5636 65.9471 46.4296 65.8666 46.2957 65.7324C46.1617 65.5713 46.0814 65.4371 46.0814 65.2492C46.0814 65.115 46.1349 65.0077 46.2689 64.9272C46.8047 64.6319 47.287 64.3098 47.7692 63.9072C48.2247 63.5046 48.6533 63.0483 49.0552 62.5384C49.5107 61.9747 49.8054 61.3574 49.9929 60.7132C50.1805 60.069 50.2608 59.3175 50.2608 58.4854H46.51V57.385H51.011C51.3861 57.385 51.5468 57.5729 51.5468 57.9218V58.4854H51.6004ZM57.173 68.4433C57.173 69.329 56.9319 69.7853 56.4229 69.7853H56.2621C56.021 69.7853 55.9138 69.6779 55.9138 69.4364V62.0015H54.3599V68.1749C54.3599 69.0606 54.1188 69.5169 53.6098 69.5169H53.449C53.2347 69.5169 53.1007 69.4095 53.1007 69.168V56.6871H54.3599V60.8474H55.9138V56.6871H57.173V68.4433Z" fill="black"/>
<path d="M58.9949 63.8804C58.9145 63.9072 58.8609 63.9341 58.7805 63.9341C58.7269 63.9341 58.6733 63.9072 58.6198 63.8804C58.5662 63.8536 58.4858 63.773 58.459 63.7194C58.4054 63.6388 58.3519 63.5852 58.2983 63.5046C58.2447 63.4241 58.2179 63.3436 58.2179 63.2631C58.2179 63.1289 58.2983 63.0215 58.4322 62.941C58.8609 62.7263 59.2628 62.431 59.6111 62.0821C59.9593 61.7332 60.2808 61.3574 60.5488 60.9548C60.8167 60.5522 61.031 60.1227 61.165 59.6933C61.2989 59.237 61.3793 58.8075 61.3793 58.3513V57.0898H62.7189V58.3513C62.7189 58.8075 62.7992 59.2638 62.9332 59.6933C63.0939 60.1227 63.2815 60.5253 63.5762 60.9011C63.8441 61.2769 64.1656 61.6258 64.5139 61.9479C64.8622 62.27 65.2641 62.5384 65.6927 62.8068C65.7999 62.8873 65.8803 62.9947 65.8803 63.1289C65.8803 63.2094 65.8535 63.3168 65.8267 63.3973C65.7731 63.4778 65.7463 63.5583 65.6927 63.612C65.6391 63.6925 65.5588 63.7462 65.5052 63.773C65.4248 63.8267 65.3712 63.8536 65.3444 63.8536C65.2641 63.8536 65.2105 63.8267 65.1569 63.7999C64.5407 63.451 63.9513 63.0483 63.4154 62.5652C62.8796 62.0821 62.451 61.5453 62.1295 60.9548C61.808 61.5721 61.3793 62.1626 60.8167 62.6726C60.2273 63.1289 59.6378 63.5583 58.9949 63.8804ZM60.8703 65.1419H62.1562V68.2017C62.1562 68.4433 62.2634 68.5506 62.5045 68.5506H69.0149C69.2024 68.5506 69.2828 68.658 69.2828 68.8996C69.2828 69.3827 69.122 69.6243 68.8005 69.6243H62.5581C62.2902 69.6243 62.0759 69.6243 61.8615 69.5974C61.6472 69.5706 61.4865 69.5437 61.3257 69.4632C61.165 69.3827 61.0578 69.2753 60.9774 69.1411C60.897 69.0069 60.8703 68.7922 60.8703 68.5506V65.1419ZM65.4516 59.4249H67.7825V56.714H69.0684V63.9341C69.0684 64.5246 69.0149 65.0077 68.9345 65.3298C68.8273 65.6519 68.6398 65.8129 68.3183 65.8129H68.1307C67.9164 65.8129 67.7825 65.7056 67.7825 65.464V60.4985H65.4516V59.4249Z" fill="black"/>
<path d="M73.0603 56.7676V58.1902H79.3831V56.7676H80.6691V59.8811C80.6691 61.1158 80.3476 61.7331 79.7314 61.7331H76.8915V63.1288H82.1159C82.2766 63.1288 82.357 63.2362 82.357 63.4778C82.357 63.9609 82.1962 64.2293 81.8747 64.2293H70.1133V63.1288H75.5787V61.7331H72.846C72.1226 61.7331 71.7476 61.3842 71.7476 60.6595V56.7676H73.0603ZM76.2485 64.9808C76.9183 64.9808 77.5345 65.0345 78.0703 65.1687C78.6062 65.3029 79.0616 65.464 79.4367 65.7055C79.8118 65.9202 80.1065 66.1887 80.294 66.5107C80.4816 66.806 80.5887 67.1281 80.5887 67.477C80.5887 67.8259 80.5084 68.148 80.294 68.4433C80.0797 68.7385 79.8118 69.0069 79.4367 69.2485C79.0616 69.4632 78.6062 69.6511 78.0703 69.7853C77.5345 69.9195 76.9183 69.9732 76.2485 69.9732C75.5787 69.9732 74.9625 69.8926 74.4267 69.7853C73.8909 69.6511 73.4354 69.4632 73.0603 69.2485C72.6853 69.0337 72.3906 68.7653 72.1762 68.4433C71.9619 68.148 71.8547 67.8259 71.8547 67.477C71.8547 67.1281 71.9619 66.806 72.1762 66.5107C72.3906 66.2155 72.6853 65.9471 73.0603 65.7324C73.4354 65.5176 73.8909 65.3298 74.4267 65.1956C74.9625 65.0614 75.5787 64.9808 76.2485 64.9808ZM79.1152 60.6864C79.3028 60.6864 79.3831 60.4985 79.3831 60.0959V59.2638H73.0603V60.3374C73.0603 60.579 73.1675 60.6864 73.4086 60.6864H79.1152ZM76.2217 68.9264C76.6504 68.9264 77.0523 68.8995 77.4274 68.819C77.8024 68.7385 78.1239 68.6311 78.4186 68.5238C78.6866 68.3896 78.9009 68.2285 79.0616 68.0675C79.2224 67.9064 79.3028 67.7186 79.3028 67.5038C79.3028 67.316 79.2224 67.1281 79.0616 66.9402C78.9009 66.7791 78.6866 66.6181 78.4186 66.4839C78.1239 66.3497 77.8024 66.2423 77.4274 66.1887C77.0523 66.1081 76.6504 66.0813 76.2217 66.0813C75.7663 66.0813 75.3644 66.1081 74.9893 66.1887C74.6142 66.2692 74.2928 66.3765 73.998 66.4839C73.7301 66.6181 73.5158 66.7523 73.355 66.9402C73.1943 67.1012 73.1139 67.2891 73.1139 67.5038C73.1139 67.6917 73.1943 67.8796 73.355 68.0675C73.5158 68.2285 73.7301 68.3896 73.998 68.5238C74.266 68.658 74.5875 68.7653 74.9893 68.819C75.3376 68.8727 75.7663 68.9264 76.2217 68.9264Z" fill="black"/>
<path d="M83.4019 65.9471C83.3215 65.9739 83.2679 66.0008 83.1876 66.0008C83.0804 66.0008 82.9732 65.9203 82.8393 65.7861C82.7053 65.6519 82.6249 65.4908 82.6249 65.3298C82.6249 65.1956 82.7053 65.0882 82.8393 65.0077C82.9732 64.9272 83.1072 64.8466 83.2143 64.7393C83.9645 64.1488 84.5807 63.4509 85.0362 62.592C85.5184 61.7331 85.7595 60.7669 85.7863 59.6396V57.2239H87.1259V59.6396C87.1259 60.2569 87.2331 60.8206 87.3938 61.3574C87.5546 61.8942 87.7689 62.3773 88.0368 62.8068C88.3047 63.2631 88.6262 63.6388 88.9745 64.0146C89.3496 64.3635 89.7247 64.6856 90.1801 64.9808C90.2873 65.0614 90.3409 65.1687 90.3409 65.2761C90.3409 65.4371 90.2605 65.5982 90.1266 65.7324C89.9926 65.8934 89.8586 65.9739 89.7783 65.9739C89.6979 65.9739 89.6443 65.9471 89.5907 65.9203C88.9209 65.5177 88.3315 65.0614 87.7689 64.4977C87.2063 63.9341 86.7776 63.3167 86.4829 62.6189C86.1614 63.3436 85.7327 63.9877 85.1969 64.5514C84.6611 65.115 84.0449 65.5713 83.4019 65.9471ZM93.1808 68.4433C93.1808 69.329 92.9129 69.7853 92.4038 69.7853H92.2163C91.9752 69.7853 91.868 69.6779 91.868 69.4364V56.6871H93.154V60.8474H95.0026C95.1633 60.8474 95.2437 60.9816 95.2437 61.2232C95.2437 61.7331 95.083 62.0015 94.7615 62.0015H93.1272V68.4433H93.1808Z" fill="black"/>
<path d="M95.6724 57.224H101.54C101.7 57.224 101.781 57.3313 101.781 57.5729C101.781 58.056 101.62 58.2976 101.299 58.2976H96.9583V61.9211C96.9583 62.1358 97.0655 62.27 97.3066 62.27H102.772C102.933 62.27 103.013 62.3773 103.013 62.6189C103.013 63.102 102.852 63.3704 102.531 63.3704H96.744C96.0206 63.3704 95.6456 62.9947 95.6456 62.27V57.224H95.6724ZM97.3602 65.1419H98.6462V68.2017C98.6462 68.4433 98.7802 68.5507 99.0213 68.5507H105.371C105.532 68.5507 105.612 68.658 105.612 68.8996C105.612 69.4096 105.451 69.6511 105.13 69.6511H98.4587C97.7353 69.6511 97.3602 69.2754 97.3602 68.5507V65.1419ZM105.398 64.4709C105.398 65.3835 105.157 65.8398 104.648 65.8398H104.433C104.219 65.8398 104.085 65.7324 104.085 65.4908V56.7408H105.371V59.908H107.219C107.38 59.908 107.461 60.0154 107.461 60.257C107.461 60.7401 107.3 61.0085 107.005 61.0085H105.344V64.4709H105.398Z" fill="black"/>
<defs>
<linearGradient id="paint0_linear_31_6" x1="98.0375" y1="-29.9875" x2="98.0375" y2="59.7931" gradientUnits="userSpaceOnUse">
<stop stop-color="#00A0E9"/>
<stop offset="0.4759" stop-color="#0068B7"/>
<stop offset="1" stop-color="#080059"/>
</linearGradient>
<linearGradient id="paint1_linear_31_6" x1="22.1544" y1="-29.9875" x2="22.1544" y2="59.7931" gradientUnits="userSpaceOnUse">
<stop stop-color="#00A0E9"/>
<stop offset="0.4759" stop-color="#0068B7"/>
<stop offset="1" stop-color="#080059"/>
</linearGradient>
<linearGradient id="paint2_linear_31_6" x1="145.827" y1="6.0418" x2="145.827" y2="61.8561" gradientUnits="userSpaceOnUse">
<stop stop-color="#00A0E9"/>
<stop offset="0.4759" stop-color="#0068B7"/>
<stop offset="1" stop-color="#080059"/>
</linearGradient>
</defs>
</svg>
