<?xml version="1.0" encoding="UTF-8"?>
<svg id="_레이어_2" data-name="레이어 2" xmlns="http://www.w3.org/2000/svg" viewBox="0 0 799.74 259.55">
  <defs>
    <style>
      .cls-1 {
        fill: #010101;
      }

      .cls-1, .cls-2, .cls-3, .cls-4, .cls-5, .cls-6 {
        stroke-width: 0px;
      }

      .cls-3 {
        fill: #fff;
      }

      .cls-4 {
        fill: #fabe00;
      }

      .cls-5 {
        fill: #6fba2c;
        fill-rule: evenodd;
      }

      .cls-6 {
        fill: #6b1685;
      }
    </style>
  </defs>
  <g id="_레이어_1-2" data-name="레이어 1">
    <g>
      <g>
        <path class="cls-1" d="m287.58,29.09h3.32v36.16h-3.32V29.09Zm-25.44,3.88h20.48v2.72h-20.48v-2.72Zm-.56,23.36l-.4-2.84c6.72,0,15.6-.08,23.28-1l.2,2.44c-7.8,1.24-16.48,1.36-23.08,1.4Zm4.56-21.32h3.2v19.24h-3.2v-19.24Zm9.24,0h3.24v19.24h-3.24v-19.24Zm22.64,15.48h32.8v2.72h-32.8v-2.72Zm14.64,1.28h3.28v13.48h-3.28v-13.48Zm-10.52-21.24h3.32v4.96h17.88v-4.96h3.28v15.64h-24.48v-15.64Zm3.32,7.64v5.32h17.88v-5.32h-17.88Zm31.44-5.56h16.64v23.56h-16.64v-23.56Zm13.4,2.68h-10.16v18.2h10.16v-18.2Zm10.8-6.24h3.32v36.24h-3.32V29.05Zm18.6,12.28h3.28v6.84h-3.28v-6.84Zm13.28,0h3.28v6.84h-3.28v-6.84Zm-21.36,5.64h32.68v2.68h-32.68v-2.68Zm16.32,5.4c7.76,0,12.4,2.28,12.4,6.4s-4.64,6.44-12.4,6.44-12.4-2.32-12.4-6.44,4.64-6.4,12.4-6.4Zm0,2.56c-5.64,0-9.04,1.4-9.04,3.84s3.4,3.84,9.04,3.84,9.04-1.36,9.04-3.84-3.36-3.84-9.04-3.84Zm.04-25.2c7.84,0,12.72,2.52,12.72,6.76s-4.88,6.68-12.72,6.68-12.72-2.48-12.72-6.68,4.84-6.76,12.72-6.76Zm0,2.6c-5.76,0-9.32,1.52-9.32,4.16s3.56,4.12,9.32,4.12,9.32-1.52,9.32-4.12-3.56-4.16-9.32-4.16Zm48.58,6.72h9.12v2.72h-9.12v-2.72Zm7.24-9.92h3.32v26.48h-3.32v-26.48Zm-19.76,32.6h24.08v2.72h-24.08v-2.72Zm0-8.44h3.32v9.84h-3.32v-9.84Zm2.56-19.68h2.72v2.92c0,6.56-4.08,12.24-10.12,14.48l-1.72-2.64c5.4-1.92,9.12-6.72,9.12-11.84v-2.92Zm.64,0h2.68v2.88c0,4.68,3.52,9.24,8.76,11.08l-1.68,2.6c-5.88-2.12-9.76-7.56-9.76-13.68v-2.88Zm-8.72-1.56h19.32v2.68h-19.32v-2.68Zm35.64,15.52h32.76v2.72h-32.76v-2.72Zm14.96,1.68h3.32v8.32h-3.32v-8.32Zm-10.76-18.48h24.32v12.72h-24.32v-12.72Zm21.04,2.68h-17.8v7.36h17.8v-7.36Zm-21.08,28.28h24.96v2.72h-24.96v-2.72Zm0-7.64h3.28v8.6h-3.28v-8.6Zm36.04-21.4h23.28v2.76h-23.28v-2.76Zm-3.36,24.76h32.68v2.76h-32.68v-2.76Zm8-11.96h3.28v12.96h-3.28v-12.96Zm17.56-12.8h3.28v4c0,4.6,0,9.32-1.24,16.08l-3.32-.4c1.28-6.4,1.28-11.2,1.28-15.68v-4Zm-8.64,12.8h3.28v12.96h-3.28v-12.96Zm28.48,2.32h3.32v7.12h-3.32v-7.12Zm12.16-.04h3.28v7.16h-3.28v-7.16Zm-20.8-1.28h32.68v2.72h-32.68v-2.72Zm3.64,7.24h25v11.52h-3.32v-8.84h-21.68v-2.68Zm12.72-23.8c7.8,0,12.72,2.6,12.72,6.92s-4.92,6.92-12.72,6.92-12.72-2.6-12.72-6.92,4.88-6.92,12.72-6.92Zm0,2.64c-5.76,0-9.32,1.56-9.32,4.28s3.56,4.28,9.32,4.28,9.32-1.6,9.32-4.28-3.6-4.28-9.32-4.28Zm46.8-3.48h3.32v36.16h-3.32V29.09Zm-10.6,3.88h3.28c0,10.48-4.72,19.64-16.8,25.56l-1.76-2.68c10.44-5.04,15.28-12.72,15.28-22.32v-.56Zm-13.64,0h15.08v2.72h-15.08v-2.72Zm36.64-1.08h16v2.72h-16v-2.72Zm5.44,8.08h3.28v9.04h-3.28v-9.04Zm9.24-8.08h3.28v1.92c0,2.36,0,5.96-.96,10.72l-3.24-.36c.92-4.76.92-8.04.92-10.36v-1.92Zm8.2-2.8h3.32v27.24h-3.32v-27.24Zm1.8,11.76h6.68v2.76h-6.68v-2.76Zm-21.32,20.88h24v2.72h-24v-2.72Zm0-7.92h3.28v8.76h-3.28v-8.76Zm-5.2-3.24l-.36-2.72c6.44,0,15.32-.16,22.64-1.16l.24,2.4c-7.52,1.32-16.16,1.48-22.52,1.48Z"/>
        <path class="cls-2" d="m332.12,84.16v46.97h-69.3v-46.97h17.38v17.16h34.43v-17.16h17.49Zm-8.69,65.34v28.93h-13.75c-2.49,0-3.74-1.25-3.74-3.74v-25.19h-16.94v28.93h-13.86c-2.49,0-3.74-1.25-3.74-3.74v-25.19h-15.84v-6.38h83.82v6.38h-15.95Zm-8.8-24.75v-17.05h-34.43v17.05h34.43Zm85.5,43.45h-49.28v-83.49h45.65v6.38h-28.27v31.35h26.62v6.49h-26.62v32.89h31.9v6.38Zm24.64,10.56h-13.2c-2.49,0-3.74-1.25-3.74-3.74v-93.06h16.94v96.8Zm14.36-51.7c0-9.53.66-17.2,1.98-22.99,1.39-5.79,3.26-10.23,5.61-13.31,2.35-3.15,5.1-5.21,8.25-6.16,3.15-1.03,6.56-1.54,10.23-1.54s7.04.51,10.12,1.54c3.15.95,5.87,3.01,8.14,6.16,2.27,3.08,4.03,7.52,5.28,13.31,1.32,5.79,1.98,13.46,1.98,22.99s-.66,17.2-1.98,22.99c-1.25,5.72-3.01,10.16-5.28,13.31-2.27,3.08-4.99,5.1-8.14,6.05-3.08,1.03-6.45,1.54-10.12,1.54s-6.97-.51-10.12-1.54c-3.15-.95-5.94-2.97-8.36-6.05-2.35-3.15-4.22-7.59-5.61-13.31-1.32-5.79-1.98-13.46-1.98-22.99Zm16.83,0c0,8.29.18,14.89.55,19.8.37,4.91.92,8.69,1.65,11.33.81,2.64,1.76,4.36,2.86,5.17,1.17.81,2.57,1.21,4.18,1.21s2.97-.4,4.07-1.21c1.17-.81,2.13-2.53,2.86-5.17.81-2.64,1.39-6.42,1.76-11.33.37-4.91.55-11.51.55-19.8s-.18-14.78-.55-19.69c-.37-4.99-.95-8.8-1.76-11.44-.73-2.64-1.69-4.36-2.86-5.17-1.1-.88-2.46-1.32-4.07-1.32s-3.01.48-4.18,1.43c-1.1.88-2.05,2.68-2.86,5.39-.73,2.71-1.28,6.53-1.65,11.44-.37,4.91-.55,11.37-.55,19.36Zm72.49,1.76h-11.44v49.94h-13.31c-2.49,0-3.74-1.25-3.74-3.74v-93.06h17.05v40.48h11.44v6.38Zm93.56,0h-11.44v49.94h-13.31c-2.49,0-3.74-1.25-3.74-3.74v-93.06h17.05v40.48h11.44v6.38Zm-87.67-44h39.49c1.91,0,3.3.44,4.18,1.32.95.88,1.43,2.49,1.43,4.84v23.65c0,7.63-1.32,14.63-3.96,21.01-2.57,6.38-6.01,12.03-10.34,16.94-4.33,4.91-9.28,9.02-14.85,12.32-5.57,3.37-11.33,5.79-17.27,7.26l-1.76-3.74c4.62-1.91,8.73-4.4,12.32-7.48,3.59-3.08,6.64-6.53,9.13-10.34,2.57-3.89,4.62-8.03,6.16-12.43,1.61-4.4,2.75-8.87,3.41-13.42h-25.74v-6.38h26.4c.07-.59.11-1.14.11-1.65v-25.52h-28.71v-6.38Zm131.73,83.82h-37.95v-83.49h36.41v6.38h-20.35v70.73h21.89v6.38Zm22.11,10.56h-11.11c-2.49,0-3.74-1.25-3.74-3.74v-48.18h-17.82v-6.6h17.82v-38.28h14.85v96.8Zm21.34,0h-11.11c-2.49,0-3.74-1.25-3.74-3.74v-93.06h14.85v96.8Zm60.23-11h-47.85v-83.49h44.33c1.32,0,2.24.29,2.75.88s.77,1.61.77,3.08v79.53Zm-31.02-6.38h14.74v-70.73h-14.74v70.73Zm59.4,16.94h-13.31c-2.49,0-3.74-1.25-3.74-3.74v-93.06h17.05v96.8Z"/>
        <path class="cls-2" d="m262.97,228.26c.57,0,1.12-.11,1.63-.34.51-.2.96-.59,1.33-1.16.4-.54.7-1.3.9-2.27.23-.94.34-2.15.34-3.6v-29h6.69v25.61c0,2.06-.31,3.83-.94,5.32-.6,1.52-1.53,2.88-2.79,4.08-.89.86-1.89,1.53-3,2.02-1.12.49-2.36.73-3.73.73-.94,0-1.84-.17-2.7-.51-.86-.32-1.57-.89-2.14-1.72l.9-.81c.49.66,1.04,1.1,1.67,1.33.63.23,1.24.34,1.84.34Zm25.25-7.38c2.12,0,3.49-.76,4.12-2.27.14-.37.27-.76.39-1.16.11-.4.2-.86.26-1.37.09-.54.14-1.19.17-1.93.06-.74.09-1.64.09-2.7s-.03-1.94-.09-2.66c-.03-.74-.09-1.39-.17-1.93-.06-.54-.14-1.02-.26-1.42-.11-.4-.24-.79-.39-1.16-.63-1.52-2-2.27-4.12-2.27-2.4,0-3.88.94-4.42,2.83-.09.37-.17.74-.26,1.12-.09.37-.16.8-.21,1.29-.03.49-.06,1.07-.09,1.76-.03.66-.04,1.47-.04,2.44s.01,1.8.04,2.49c.03.66.06,1.24.09,1.76.06.49.13.91.21,1.29.09.37.17.74.26,1.11.54,1.86,2.02,2.79,4.42,2.79Zm0,1.89c-1.89,0-3.56-.2-5.02-.6-1.46-.37-2.69-1.06-3.69-2.06-1-1-1.76-2.23-2.27-3.69-.49-1.49-.73-3.15-.73-4.98,0-3.6,1.02-6.39,3.05-8.37,2-1.97,4.89-2.96,8.67-2.96s6.64.99,8.67,2.96c2.03,1.97,3.05,4.76,3.05,8.37s-1,6.44-3,8.41c-1.97,1.95-4.88,2.92-8.71,2.92Zm22.22-.64h-5.49c-.31,0-.56-.01-.73-.04-.17-.03-.3-.09-.39-.17-.06-.09-.09-.21-.09-.39v-31.23h6.69v31.83Zm12.53,0h-5.49c-.31,0-.56-.01-.73-.04-.17-.03-.3-.09-.39-.17-.06-.09-.09-.21-.09-.39v-31.23h6.69v31.83Zm2.72-21.79h6.26c.2,0,.4.04.6.13.23.09.41.3.56.64l5.06,12.7,5.15-13.47h2.62c-.34.83-.79,1.92-1.33,3.26-.54,1.34-1.14,2.83-1.8,4.46s-1.34,3.35-2.06,5.15c-.71,1.77-1.43,3.53-2.14,5.28-.72,1.75-1.4,3.4-2.06,4.98-.63,1.57-1.2,2.96-1.72,4.16-.4.94-1,1.65-1.8,2.1-.77.49-1.62.74-2.53.77-.8.03-1.49-.03-2.06-.17-.54-.14-1.1-.37-1.67-.69l.73-1.85c1.03.54,1.97.79,2.83.73.49-.03.94-.16,1.37-.39.46-.2.82-.61,1.07-1.24l2.02-4.8-9.09-21.75Zm50.32,3.09c-.6-.32-1.36-.62-2.27-.9-.89-.32-2.12-.47-3.69-.47s-2.72.26-3.52.77c-.77.49-1.16,1.06-1.16,1.72,0,.43.1.8.3,1.12.2.29.46.54.77.77.34.23.7.44,1.07.64.4.17.79.34,1.16.51,1.11.49,2.14.94,3.09,1.37.94.4,1.83.83,2.66,1.29,1.31.71,2.39,1.51,3.22,2.4.83.89,1.24,1.9,1.24,3.05,0,2.23-.83,3.97-2.49,5.23-1.66,1.23-4.18,1.85-7.55,1.85-1.46,0-2.92-.27-4.38-.82-1.46-.54-2.72-1.23-3.78-2.06l1.16-1.72c1.06.86,2.2,1.53,3.43,2.02,1.26.46,2.44.69,3.56.69,1.43,0,2.47-.24,3.13-.73.66-.49,1.03-1.07,1.12-1.76.11-.83-.07-1.52-.56-2.06-.46-.57-1.1-1.09-1.93-1.54-.89-.49-1.83-.96-2.83-1.42-1-.46-2.03-.93-3.09-1.42-.6-.29-1.17-.6-1.72-.94-.54-.34-1.01-.73-1.42-1.16-.4-.46-.71-.96-.94-1.5-.23-.57-.34-1.2-.34-1.89,0-1.32.3-2.39.9-3.22.6-.83,1.37-1.47,2.32-1.93.94-.49,1.97-.8,3.09-.94,1.14-.17,2.26-.26,3.35-.26s2.29.13,3.52.39c1.23.23,2.33.63,3.3,1.2l-.73,1.72Zm28.33-3.09l-6.99,7.81,7.08,13.99h-5.71c-.29,0-.54-.06-.77-.17-.2-.14-.41-.41-.64-.82l-4.2-8.19-3.73,4.16v5.02h-5.62c-.43,0-.71-.11-.86-.34-.14-.23-.21-.49-.21-.77v-30.72h6.69v23.42l12.14-13.38h2.83Zm9.91,0v21.79h-5.28c-.66,0-1.06-.13-1.2-.39-.14-.29-.21-.67-.21-1.16v-20.25h6.69Zm-6.99-6.69c0-.94.32-1.73.94-2.36.66-.66,1.46-.99,2.4-.99s1.73.33,2.36.99c.66.63.99,1.42.99,2.36s-.33,1.74-.99,2.4-1.42.94-2.36.94-1.75-.31-2.4-.94c-.63-.66-.94-1.46-.94-2.4Zm19.52,28.49h-5.06c-.66,0-1.1-.1-1.33-.3-.2-.23-.3-.64-.3-1.24v-20.25h4.85c.6,0,1.04.21,1.33.64.14.23.23.44.26.64.8-.49,1.63-.86,2.49-1.12.89-.26,1.69-.39,2.4-.39,3.43,0,6.02.64,7.76,1.93,1.77,1.29,2.66,3.23,2.66,5.83v14.24h-5.06c-.66,0-1.1-.1-1.33-.3-.2-.23-.3-.64-.3-1.24v-11.24c0-2.6-.34-4.48-1.03-5.62-.69-1.14-1.73-1.72-3.13-1.72s-2.89.51-4.29,1.54c.03.26.04.51.04.77.03.26.04.53.04.82v16.99Zm33.61-30.24h9.65c3.63,0,6.28.51,7.94,1.54,1.66,1,2.49,2.53,2.49,4.59,0,1.8-.63,3.26-1.89,4.38-1.26,1.09-3.27,1.79-6.05,2.1,1.32,0,2.55.16,3.69.47,1.17.29,2.2.77,3.09,1.46.89.69,1.59,1.59,2.1,2.7.51,1.12.77,2.49.77,4.12,0,2.03-.41,3.63-1.24,4.8-.83,1.17-1.87,2.06-3.13,2.66-1.26.6-2.62.99-4.07,1.16-1.46.17-2.83.26-4.12.26h-7.38c-1.23,0-1.84-.67-1.84-2.02v-28.23Zm6.69,28.36h2.53c3.89,0,5.83-2.33,5.83-6.99,0-1.37-.11-2.55-.34-3.52-.23-1-.61-1.82-1.16-2.45-.54-.63-1.27-1.09-2.19-1.37-.92-.29-2.06-.43-3.43-.43h-1.24v14.76Zm0-26.47v9.82h2.19c1.09,0,1.95-.13,2.57-.39.66-.29,1.14-.67,1.46-1.16.34-.49.56-1.06.64-1.72.12-.69.16-1.43.13-2.23-.06-1.63-.43-2.76-1.12-3.39-.66-.63-1.63-.94-2.92-.94h-2.96Zm33.66,16.3c-.03-1.26-.11-2.36-.26-3.3-.14-.97-.33-1.74-.56-2.32-.37-.89-.9-1.52-1.59-1.89-.66-.37-1.53-.56-2.62-.56-2.12,0-3.5.73-4.16,2.19-.31.72-.54,1.57-.69,2.57-.11,1-.17,2.1-.17,3.3h10.04Zm-5.02,12.7c-3.8,0-6.71-.96-8.71-2.88-1-.97-1.76-2.2-2.27-3.69-.49-1.52-.73-3.18-.73-4.98,0-3.52,1.01-6.25,3.05-8.19,2.03-1.94,4.92-2.92,8.67-2.92s6.64.97,8.67,2.92c1,.94,1.74,2.16,2.23,3.65.51,1.46.79,3.05.81,4.76v.47h-16.73c.03,2.29.13,3.95.3,4.98.2,1.03.37,1.66.51,1.89.26.46.54.83.86,1.11.34.26.7.47,1.07.64.4.14.81.24,1.24.3.46.06.9.09,1.33.09,1.77,0,3.39-.24,4.85-.73,1.46-.49,2.83-1.34,4.12-2.57l1.37,1.42c-.86.86-1.74,1.54-2.66,2.06-.91.49-1.85.84-2.79,1.07-.92.26-1.82.41-2.7.47-.89.09-1.72.13-2.49.13Zm36.93-.64h-5.02c-.37,0-.7-.11-.99-.34-.26-.23-.43-.56-.52-.99-.34.34-.76.64-1.24.9-.49.23-1,.43-1.54.6-.54.17-1.1.29-1.67.34-.54.09-1.07.13-1.59.13-1.43,0-2.8-.17-4.12-.51-1.32-.32-2.47-.79-3.48-1.42-1-.66-1.8-1.47-2.4-2.44-.57-.97-.86-2.09-.86-3.35,0-1.4.36-2.57,1.07-3.52.71-.94,1.63-1.7,2.75-2.27,1.11-.6,2.36-1.01,3.73-1.24,1.4-.26,2.79-.39,4.16-.39,1.8,0,3.47.36,5.02,1.07v-1.93c0-1.37-.46-2.5-1.37-3.39-.89-.92-2.25-1.37-4.08-1.37-1.17,0-2.24.14-3.22.43-.97.29-1.99.73-3.05,1.33l-.64-1.8c2.2-1.23,4.5-1.85,6.91-1.85s4.25.23,5.79.69c1.57.46,2.83,1.16,3.78,2.1.94.91,1.6,2.07,1.97,3.47.4,1.37.6,2.99.6,4.85v10.9Zm-6.69-11.5c-1.63-.74-3.3-1.12-5.02-1.12-1.06,0-1.92.16-2.57.47-.66.29-1.17.69-1.54,1.2-.34.49-.59,1.06-.73,1.72-.11.66-.17,1.36-.17,2.1,0,.83.06,1.62.17,2.36.12.71.36,1.34.73,1.89.37.51.87.93,1.5,1.24.66.29,1.53.43,2.62.43s2-.19,2.83-.56c.86-.37,1.61-.83,2.27-1.37,0-.43-.01-.79-.04-1.07,0-.29-.01-.56-.04-.82v-6.48Zm26.57-10.3h6.69v21.79h-4.93c-.14,0-.32-.04-.52-.13-.2-.09-.41-.24-.64-.47-.14-.11-.24-.29-.3-.51-.34.29-.74.54-1.2.77-.46.2-.93.37-1.42.51-.49.17-.97.29-1.46.34-.46.09-.86.13-1.2.13-1.8,0-3.35-.2-4.63-.6-1.29-.4-2.35-.96-3.18-1.67-.8-.74-1.39-1.62-1.76-2.62-.37-1-.56-2.1-.56-3.3v-14.24h6.74v16c0,1.6.34,2.76,1.03,3.48.69.71,1.73,1.07,3.13,1.07s2.82-.51,4.25-1.54c-.03-.26-.04-.51-.04-.77v-18.23Zm20.19,16.77c0,1.43.27,2.42.82,2.96.54.54,1.19.82,1.93.82.66,0,1.24-.16,1.76-.47.54-.34.99-.77,1.33-1.29l1.37,1.12c-.23.43-.53.8-.9,1.12-.34.31-.74.57-1.2.77-.46.23-.93.39-1.42.47-.49.11-.94.17-1.37.17-3.09,0-5.38-.93-6.86-2.79-1.46-1.89-2.19-4.59-2.19-8.11v-9.87h-3.35v-1.89h3.35v-5.66h6.74v5.66h5.83v1.89h-5.83v15.1Zm7.1-16.77h6.26c.2,0,.4.04.6.13.23.09.41.3.56.64l5.06,12.7,5.15-13.47h2.62c-.34.83-.79,1.92-1.33,3.26-.54,1.34-1.14,2.83-1.8,4.46-.66,1.63-1.34,3.35-2.06,5.15-.71,1.77-1.43,3.53-2.14,5.28-.71,1.75-1.4,3.4-2.06,4.98-.63,1.57-1.2,2.96-1.72,4.16-.4.94-1,1.65-1.8,2.1-.77.49-1.62.74-2.53.77-.8.03-1.49-.03-2.06-.17-.54-.14-1.1-.37-1.67-.69l.73-1.85c1.03.54,1.97.79,2.83.73.49-.03.94-.16,1.37-.39.46-.2.82-.61,1.07-1.24l2.02-4.8-9.09-21.75Zm47.4-9.48l13.39,31.27h-5.45c-.66,0-1.09-.07-1.29-.21-.17-.14-.33-.39-.47-.73l-3.39-8.07h-10.51l-3.77,9.01h-2.19l12.87-31.27h.82Zm-6.95,20.42h8.97l-4.46-10.64-4.51,10.64Zm40.09,8.15c-1.09,1.09-2.37,1.92-3.86,2.49-1.46.57-2.97.86-4.55.86-1.89,0-3.56-.3-5.02-.9-1.43-.63-2.64-1.43-3.65-2.4-2-1.92-3-4.66-3-8.24s1.02-6.25,3.05-8.19c1-.97,2.32-1.7,3.95-2.19,1.63-.49,3.39-.73,5.28-.73.94,0,1.96.16,3.05.47,1.09.32,2.1.83,3.05,1.54l-1.03,1.59c-1.06-.74-2-1.22-2.83-1.42-.83-.2-1.57-.3-2.23-.3-1.2,0-2.27.24-3.22.73-.92.46-1.5,1.14-1.76,2.06-.11.37-.21.74-.3,1.12-.06.34-.11.76-.17,1.24-.03.46-.06,1.01-.09,1.67-.03.66-.04,1.46-.04,2.4,0,2.2.04,3.82.13,4.85.11,1.03.27,1.77.47,2.23.77,1.74,2.23,2.62,4.38,2.62,1.55,0,2.89-.26,4.03-.77,1.17-.54,2.22-1.27,3.13-2.19l1.24,1.46Zm24.38,2.7h-5.02c-.37,0-.7-.11-.99-.34-.26-.23-.43-.56-.51-.99-.34.34-.76.64-1.24.9-.49.23-1,.43-1.54.6-.54.17-1.1.29-1.67.34-.54.09-1.07.13-1.59.13-1.43,0-2.8-.17-4.12-.51-1.32-.32-2.47-.79-3.48-1.42-1-.66-1.8-1.47-2.4-2.44-.57-.97-.86-2.09-.86-3.35,0-1.4.36-2.57,1.07-3.52.71-.94,1.63-1.7,2.75-2.27,1.11-.6,2.36-1.01,3.73-1.24,1.4-.26,2.79-.39,4.16-.39,1.8,0,3.48.36,5.02,1.07v-1.93c0-1.37-.46-2.5-1.37-3.39-.89-.92-2.24-1.37-4.08-1.37-1.17,0-2.24.14-3.22.43-.97.29-1.99.73-3.05,1.33l-.64-1.8c2.2-1.23,4.51-1.85,6.91-1.85s4.25.23,5.79.69c1.57.46,2.83,1.16,3.77,2.1.94.91,1.6,2.07,1.97,3.47.4,1.37.6,2.99.6,4.85v10.9Zm-6.69-11.5c-1.63-.74-3.3-1.12-5.02-1.12-1.06,0-1.92.16-2.57.47-.66.29-1.17.69-1.54,1.2-.34.49-.59,1.06-.73,1.72-.11.66-.17,1.36-.17,2.1,0,.83.06,1.62.17,2.36.11.71.36,1.34.73,1.89.37.51.87.93,1.5,1.24.66.29,1.53.43,2.62.43s2-.19,2.83-.56c.86-.37,1.62-.83,2.27-1.37,0-.43-.01-.79-.04-1.07,0-.29-.01-.56-.04-.82v-6.48Zm32.21-20.34v31.83h-4.76c-.4,0-.77-.1-1.12-.3-.31-.2-.53-.54-.64-1.03-.26.32-.59.6-.99.86-.4.23-.83.43-1.29.6-.43.17-.87.3-1.33.39-.43.09-.82.13-1.16.13-1.63,0-3.1-.32-4.42-.94-1.29-.63-2.39-1.47-3.3-2.53-.89-1.06-1.57-2.29-2.06-3.69-.46-1.4-.69-2.87-.69-4.42,0-3.46.97-6.16,2.92-8.11,1.97-1.97,4.62-2.96,7.94-2.96,1.37,0,2.77.47,4.2,1.42v-11.24h6.69Zm-15.06,20.89v3c.03.8.06,1.47.08,2.02.06.54.11.97.17,1.29.06.29.13.53.21.73.69,1.6,1.92,2.4,3.69,2.4.77,0,1.53-.18,2.27-.56.77-.4,1.41-.89,1.93-1.46v-15.1c-1.4-1-2.8-1.5-4.2-1.5-1.8,0-3.03.8-3.69,2.4-.08.23-.16.5-.21.82-.06.29-.11.69-.17,1.2-.03.49-.06,1.12-.08,1.89v2.87Zm35.55-1.11c-.03-1.26-.11-2.36-.26-3.3-.14-.97-.33-1.74-.56-2.32-.37-.89-.9-1.52-1.59-1.89-.66-.37-1.53-.56-2.62-.56-2.12,0-3.5.73-4.16,2.19-.31.72-.54,1.57-.69,2.57-.11,1-.17,2.1-.17,3.3h10.04Zm-5.02,12.7c-3.8,0-6.71-.96-8.71-2.88-1-.97-1.76-2.2-2.27-3.69-.49-1.52-.73-3.18-.73-4.98,0-3.52,1.02-6.25,3.05-8.19,2.03-1.94,4.92-2.92,8.67-2.92s6.64.97,8.67,2.92c1,.94,1.74,2.16,2.23,3.65.52,1.46.79,3.05.82,4.76v.47h-16.73c.03,2.29.13,3.95.3,4.98.2,1.03.37,1.66.51,1.89.26.46.54.83.86,1.11.34.26.7.47,1.07.64.4.14.81.24,1.24.3.46.06.9.09,1.33.09,1.77,0,3.39-.24,4.85-.73,1.46-.49,2.83-1.34,4.12-2.57l1.37,1.42c-.86.86-1.74,1.54-2.66,2.06-.92.49-1.85.84-2.79,1.07-.92.26-1.82.41-2.7.47-.89.09-1.72.13-2.49.13Zm22.18-.64h-5.06c-.66,0-1.1-.1-1.33-.3-.2-.23-.3-.64-.3-1.24v-20.25h4.85c.43,0,.79.13,1.07.39.29.23.46.53.52.9.8-.49,1.63-.86,2.49-1.12.89-.26,1.69-.39,2.4-.39,4.12,0,7.04.94,8.75,2.83,1.23-1.17,2.39-1.93,3.47-2.27,1.11-.37,2.07-.56,2.87-.56,3.43,0,6.02.64,7.77,1.93,1.77,1.29,2.66,3.23,2.66,5.83v14.24h-5.06c-.66,0-1.1-.1-1.33-.3-.2-.23-.3-.64-.3-1.24v-11.24c0-2.6-.34-4.48-1.03-5.62-.69-1.14-1.73-1.72-3.13-1.72-1,0-1.92.21-2.74.64-.83.43-1.57.93-2.23,1.5.49,1.03.73,2.19.73,3.48v14.5h-5.06c-.66,0-1.1-.1-1.33-.3-.2-.23-.3-.64-.3-1.24v-11.24c0-2.6-.34-4.48-1.03-5.62-.69-1.14-1.73-1.72-3.13-1.72s-2.85.51-4.25,1.54c.03.26.04.51.04.77v17.8Zm31.58-21.79h6.26c.2,0,.4.04.6.13.23.09.41.3.56.64l5.06,12.7,5.15-13.47h2.62c-.34.83-.79,1.92-1.33,3.26-.54,1.34-1.14,2.83-1.8,4.46-.66,1.63-1.34,3.35-2.06,5.15-.72,1.77-1.43,3.53-2.15,5.28-.72,1.75-1.4,3.4-2.06,4.98-.63,1.57-1.2,2.96-1.72,4.16-.4.94-1,1.65-1.8,2.1-.77.49-1.62.74-2.53.77-.8.03-1.49-.03-2.06-.17-.54-.14-1.1-.37-1.67-.69l.73-1.85c1.03.54,1.97.79,2.83.73.49-.03.94-.16,1.37-.39.46-.2.82-.61,1.07-1.24l2.02-4.8-9.1-21.75Z"/>
      </g>
      <g>
        <g>
          <path class="cls-4" d="m193.38,178.41c.23-5.69-.29-11.12-2.08-16.36-2.07-6.05-5.08-11.63-8.9-16.76-3.69-4.97-7.31-9.99-11.13-14.85-3.01-3.83-6.3-7.43-9.44-11.16-5.97-7.09-11.96-14.15-17.85-21.3-3.41-4.15-5.66-8.96-7.43-14.01-2.14-6.11-3.15-12.4-2.83-18.84.35-6.97,1.82-13.67,5.47-19.78,3.3-5.52,7.77-9.82,13.3-13,3.68-2.12,7.8-2.97,11.97-3.62,3.44-.54,6.83-.37,10.25.02,13.31,1.52,25.29,10,29.06,23.36,2.03,7.17,1.13,14.27-4.81,19.4-5.41,4.67-11.92,6.39-19.05,4.04-4.88-1.61-8.87-4.5-12.04-8.52-.05-.06-.11-.12-.14-.2-.18-.58-.35-1.16-.52-1.74.61-.04,1.31-.31,1.81-.09,2.8,1.21,5.43.75,7.92-.71,2.56-1.51,4.25-3.78,5.33-6.57,1.2-3.1,1.46-6.3,1.24-9.55-.45-6.54-5.2-10.97-11.75-11.33-6.15-.33-10.51,2.37-13.58,7.49-4.59,7.67-5.16,15.91-3.24,24.43,1.53,6.8,5.08,12.62,8.97,18.28,2.49,3.62,4.83,7.33,7.36,10.92,1.72,2.45,3.63,4.76,5.48,7.12,2.32,2.95,4.61,5.93,7,8.81,5.17,6.23,10.46,12.37,15.6,18.63,5.81,7.08,10.22,14.93,13.01,23.7,2.18,6.86,3.36,13.81,2.94,21-.55,9.15-2.97,17.7-8.36,25.26-.67.94-1.48,1.78-2.24,2.65-1.23,1.42-2.4,2.9-3.72,4.22s-2.75,2.55-4.23,3.69c-5.02,3.87-10.3,7.31-16.45,9.18-7.58,2.3-15.24,3.94-23.24,3.28-4.93-.41-9.72-1.45-14.37-3.12-.45-.16-.88-.37-1.31-.59-1.99-.99-2.25-1.92-.87-3.63,1.03-1.27,2.18-2.44,3.27-3.66.63-.7,1.36-.77,2.17-.38,1.29.63,2.58,1.27,3.87,1.91,4.34,2.13,8.97,3.09,13.73,2.45,4.61-.62,9.01-2.09,13-4.64,8.25-5.26,12.81-13.11,15.5-22.19,1.28-4.34,1.56-8.88,1.35-13.24h-.02Z"/>
          <path class="cls-3" d="m160.71,226.64c-1.23,0-2.47-.05-3.73-.15-5-.42-9.92-1.48-14.63-3.18-.52-.18-1.01-.43-1.43-.64-.9-.45-1.98-1.12-2.23-2.25-.25-1.14.47-2.2,1.04-2.89.71-.87,1.47-1.69,2.2-2.49.37-.4.74-.8,1.1-1.21.9-1,2.09-1.22,3.35-.62,1.19.58,2.37,1.17,3.56,1.76l.32.16c4.38,2.15,8.8,2.94,13.15,2.35,4.68-.63,8.92-2.14,12.59-4.49,7.2-4.59,12.13-11.66,15.08-21.63,1.04-3.54,1.49-7.46,1.35-11.96h-.08l.02-1.04c.25-6.05-.42-11.29-2.03-16-1.98-5.8-4.93-11.35-8.75-16.49-.94-1.26-1.87-2.52-2.8-3.78-2.69-3.65-5.48-7.43-8.32-11.04-1.93-2.45-4.01-4.86-6.03-7.18-1.14-1.31-2.27-2.62-3.39-3.95l-3.68-4.37c-4.67-5.53-9.49-11.25-14.17-16.94-3.08-3.74-5.49-8.29-7.6-14.31-2.23-6.37-3.2-12.84-2.89-19.22.4-7.97,2.24-14.6,5.61-20.24,3.32-5.56,7.92-10.05,13.66-13.35,4-2.3,8.45-3.14,12.31-3.74,3.88-.61,7.66-.31,10.52.01,14.51,1.66,26.25,11.11,29.91,24.08,2.38,8.42.61,15.48-5.12,20.43-5.94,5.13-12.86,6.59-20.02,4.23-4.96-1.64-9.17-4.61-12.51-8.85-.07-.08-.21-.24-.29-.48-.2-.63-.37-1.22-.54-1.8l-.35-1.2,1.25-.08c.16-.01.33-.04.49-.07.52-.09,1.17-.21,1.79.06,2.28.98,4.58.77,7.01-.66,2.23-1.31,3.83-3.3,4.9-6.07,1.03-2.65,1.41-5.64,1.17-9.12-.41-5.98-4.65-10.06-10.81-10.4-5.53-.3-9.66,2-12.67,7.01-4.14,6.91-5.16,14.66-3.12,23.7,1.42,6.29,4.55,11.72,8.82,17.93,1.09,1.59,2.16,3.2,3.22,4.8,1.34,2.02,2.72,4.1,4.13,6.11,1.28,1.82,2.69,3.59,4.05,5.31.47.59.93,1.17,1.4,1.76l1.61,2.05c1.74,2.23,3.55,4.53,5.37,6.74,2.26,2.73,4.55,5.44,6.83,8.15,2.89,3.42,5.88,6.97,8.77,10.49,6.01,7.32,10.45,15.41,13.19,24.03,2.41,7.57,3.38,14.56,2.98,21.36-.61,10.14-3.4,18.57-8.54,25.78-.53.75-1.14,1.42-1.73,2.08-.19.22-.39.43-.58.65-.34.39-.68.79-1.02,1.2-.87,1.03-1.77,2.09-2.75,3.07-1.28,1.28-2.74,2.55-4.33,3.77-4.23,3.26-9.97,7.28-16.77,9.35-5.78,1.75-12.55,3.47-19.88,3.47Zm-15.67-11.76c-.21,0-.35.11-.51.29-.37.41-.74.82-1.12,1.23-.71.77-1.45,1.58-2.12,2.39-.66.81-.65,1.13-.64,1.21.02.08.16.39,1.17.9.39.2.79.4,1.2.54,4.55,1.63,9.3,2.67,14.12,3.07,8.44.7,16.3-1.25,22.87-3.24,6.46-1.96,11.78-5.66,16.13-9.02,1.52-1.17,2.91-2.38,4.13-3.6.92-.92,1.79-1.95,2.63-2.95.34-.41.69-.82,1.04-1.22.2-.23.4-.45.59-.67.58-.64,1.12-1.25,1.59-1.91,4.92-6.89,7.59-14.99,8.18-24.74.38-6.55-.56-13.3-2.89-20.64-2.67-8.38-6.98-16.24-12.83-23.37-2.88-3.51-5.87-7.05-8.75-10.47-2.29-2.71-4.58-5.43-6.84-8.16-1.85-2.22-3.66-4.54-5.41-6.78l-1.61-2.05c-.46-.59-.92-1.17-1.39-1.76-1.38-1.74-2.82-3.54-4.12-5.41-1.43-2.03-2.82-4.13-4.16-6.16-1.06-1.6-2.12-3.19-3.2-4.77-4.4-6.4-7.64-12.02-9.12-18.63-2.15-9.56-1.06-17.79,3.36-25.16,3.38-5.63,8.26-8.31,14.49-7.97,7.12.39,12.22,5.32,12.69,12.26.26,3.78-.17,7.05-1.3,9.98-1.22,3.16-3.16,5.54-5.75,7.07-2.98,1.75-5.95,2.01-8.82.77-.03,0-.07,0-.13,0,.05.16.1.32.15.48h.01c3.09,3.94,6.99,6.69,11.57,8.2,6.45,2.13,12.7.8,18.08-3.85,6.44-5.56,6-13.06,4.5-18.37-3.44-12.19-14.51-21.08-28.21-22.64-2.74-.31-6.34-.6-9.98-.03-3.68.57-7.92,1.37-11.63,3.5-5.44,3.13-9.79,7.38-12.94,12.65-3.2,5.36-4.95,11.68-5.33,19.32-.3,6.12.63,12.33,2.77,18.46,2.03,5.8,4.34,10.15,7.26,13.71,4.67,5.67,9.5,11.39,14.16,16.92l3.68,4.37c1.11,1.32,2.24,2.63,3.37,3.93,2.03,2.34,4.13,4.77,6.09,7.26,2.86,3.64,5.66,7.43,8.36,11.09.93,1.26,1.86,2.52,2.79,3.78,3.95,5.3,6.99,11.03,9.04,17.03,1.67,4.88,2.37,10.26,2.14,16.44v.19c.26,5.12-.2,9.56-1.38,13.57-3.1,10.45-8.3,17.89-15.92,22.75-3.92,2.51-8.43,4.12-13.4,4.79-4.75.64-9.56-.22-14.3-2.54l-.33-.16c-1.18-.59-2.36-1.17-3.54-1.75-.19-.09-.35-.13-.48-.13Zm23.55-148.56h0Z"/>
        </g>
        <g>
          <path class="cls-6" d="m85.65,135.06c-.9-.36-1.88-.6-2.68-1.11-8.1-3.1-21.57,1.48-23.3,14.74-1.47,11.29,1.14,18.86,8.07,25.24,6.42,5.91,13.08,8.2,17.59,8.42,5.75.27,10.24-2.37,13.82-6.66,4.49-5.37,6.62-11.7,7.65-18.57,1.49-9.91.74-19.86.78-29.78.12-29.93.03-59.86.02-89.8,0-2.4.15-4.81-.1-7.19-.19-1.83-.64-3.73-1.42-5.39-1.21-2.58-3.59-3.76-6.36-4.12-.75-.1-1.51-.13-2.27-.21-.93-.1-1.55-.6-1.83-1.49-.23-.72-.47-1.45-.65-2.18-.29-1.15.16-1.87,1.33-2.09.47-.09.95-.07,1.43-.07,12.91.03,25.82.06,38.73.09,2.51,0,4.02,2.01,3.23,4.42-.14.43-.79.87-1.29.98-.96.22-1.98.2-2.98.31-3.16.36-6.89,2.6-7.09,7.19-.07,1.52-.19,3.03-.19,4.55,0,29.65.01,59.3.02,88.96,0,7.31.09,14.63-.04,21.94-.14,8.1-1.39,16.04-5.11,23.33-4.36,8.54-10.67,15.25-19.41,19.56-10.42,5.13-21.25,6.27-32.42,3.31-11.2-3.36-25.76-13.15-29.31-27.63-2.85-11.59-.9-16.88,1.53-22.56,2.78-6.49,7.2-11.64,13.94-14.08,7.47-2.7,15.05-2.94,22.2,1.3,2.94,1.74,4.86,4.45,6.2,7.57.09.21.11.44.16.67-.08.12-.16.23-.24.35h0Z"/>
          <path class="cls-3" d="m83.17,192.04c-4.05,0-8.14-.54-12.25-1.63-12.41-3.72-26.49-13.93-30.03-28.36-2.83-11.49-1.13-16.86,1.58-23.19,3.15-7.36,8.04-12.28,14.52-14.63,8.54-3.09,16.3-2.62,23.05,1.38,2.85,1.69,5.01,4.31,6.61,8.04.11.25.15.49.19.68l.12.58-.77,1.15h-.73l-.19-.07c-.26-.11-.54-.2-.81-.29-.65-.23-1.32-.46-1.95-.84-4.16-1.55-9.62-.9-13.95,1.68-4.41,2.63-7.22,7-7.92,12.29-1.4,10.79.92,18.08,7.76,24.38,7.8,7.18,14.95,8.06,16.96,8.16,5.01.25,9.27-1.83,13-6.3,3.92-4.69,6.28-10.44,7.43-18.08,1.09-7.25.97-14.67.85-21.85-.04-2.55-.09-5.19-.08-7.78.09-21.74.06-43.84.04-65.21,0-8.19-.02-16.39-.02-24.58,0-.66.01-1.32.02-1.98.03-1.69.06-3.43-.12-5.1-.2-1.88-.66-3.63-1.33-5.07-.95-2.03-2.78-3.19-5.58-3.55-.42-.06-.85-.09-1.27-.12-.32-.02-.65-.05-.97-.08-1.33-.14-2.28-.92-2.68-2.18l-.06-.18c-.21-.67-.44-1.36-.61-2.06-.21-.85-.13-1.58.25-2.18.38-.59,1.01-.97,1.87-1.14.49-.09.98-.09,1.4-.09l38.95.09c1.53,0,2.87.63,3.67,1.74.79,1.09.98,2.55.5,3.99-.27.84-1.25,1.47-2.03,1.65-.69.16-1.4.2-2.08.25-.34.02-.67.04-1.01.08-2.21.25-6.01,1.85-6.2,6.24-.02.45-.05.9-.07,1.35-.06,1.04-.12,2.11-.12,3.15,0,27.17,0,54.34.02,81.52v7.44c0,2.12.01,4.24.02,6.36.02,5.11.04,10.4-.05,15.6-.17,9.56-1.82,17.11-5.22,23.77-4.62,9.05-11.3,15.78-19.86,20-6.78,3.34-13.77,5.01-20.87,5.01Zm-15.46-67.85c-3.16,0-6.49.64-10.03,1.92-5.94,2.15-10.44,6.7-13.36,13.53-2.14,5.01-4.36,10.2-1.48,21.93,3.33,13.59,17.17,23.48,28.63,26.91,10.81,2.87,21.49,1.77,31.69-3.25,8.16-4.02,14.54-10.46,18.96-19.12,3.25-6.37,4.84-13.65,5-22.89.09-5.18.07-10.45.06-15.55,0-2.12-.02-4.25-.02-6.37v-7.44c-.01-27.18-.02-54.35-.02-81.52,0-1.1.06-2.2.12-3.27.03-.44.05-.89.07-1.33.22-5.02,4.16-7.7,7.98-8.14.37-.04.74-.06,1.1-.09.63-.04,1.22-.08,1.77-.2.23-.05.52-.26.58-.36.26-.79.18-1.57-.24-2.15-.43-.59-1.16-.91-2.06-.91l-38.96-.09c-.37,0-.71,0-1.01.05-.28.05-.49.15-.55.25-.07.1-.06.33,0,.61.16.64.37,1.3.57,1.93l.06.19c.16.51.45.74.98.8.3.03.61.06.92.08.46.04.92.07,1.38.13,3.49.45,5.89,2.03,7.13,4.69.77,1.64,1.29,3.61,1.51,5.71.19,1.79.16,3.6.13,5.34-.01.65-.02,1.3-.02,1.95,0,8.19.01,16.39.02,24.58.02,21.38.05,43.48-.04,65.23-.01,2.58.03,5.2.08,7.74.12,7.26.25,14.77-.87,22.18-1.2,8.02-3.7,14.08-7.87,19.06-4.1,4.92-9.02,7.27-14.63,7.02-5.81-.28-12.62-3.53-18.22-8.68-7.28-6.7-9.86-14.75-8.38-26.1.77-5.91,3.92-10.8,8.87-13.75,4.86-2.9,11.05-3.6,15.77-1.8l.18.09c.27.17.58.31.91.44-1.37-2.85-3.14-4.89-5.39-6.22-3.53-2.1-7.28-3.14-11.32-3.14Z"/>
        </g>
        <g>
          <path class="cls-5" d="m91.71,242.99c14.34,5.7,29.92,8.84,46.16,8.84,38.09,0,72.22-17.95,95.26-44.72-23.55,31.24-60.96,51.44-103.1,51.44C58.77,258.55,1,200.78,1,129.52,1,62.12,52.68,6.8,118.57,1,58.34,10.28,11.21,62.34,11.22,125.18c0,48.56,28.05,91.18,68.67,112.39-.79-.75-1.65-1.58-2.59-2.49-3.64-3.5-8.48-8.16-14.89-14.23-15.06-14.27-25.32-43.43-24.34-50.49,6.73,8.62,14.13,13.02,21.28,17.27,7.54,4.48,14.79,8.79,20.62,17.7,6.44,9.84,6.88,17.03,7.33,24.24.23,3.82.47,7.64,1.59,11.88,5.99-8.06,7.98-13.89,10.44-21.12,2.2-6.47,4.78-14.06,10.96-25.36,5.79-10.6,14.69-20.14,23.47-29.55,10.66-11.44,21.13-22.67,25.6-35.33h0c.09.84.18,1.72.28,2.64,1.95,18.04,5.69,52.66-16.41,78.69-13.22,15.58-28.74,22.06-49.48,30.71-.67.28-1.35.56-2.04.85Z"/>
          <path class="cls-3" d="m130.03,259.55C58.33,259.55,0,201.21,0,129.52c0-32.72,12.2-63.98,34.34-88.04C56.35,17.57,86.23,2.84,118.48,0l.24,1.98C58,11.34,12.21,64.3,12.22,125.18c0,44.26,23.32,84.86,61.35,107.71-3.14-3.02-7.04-6.75-11.85-11.3-14.79-14.02-25.75-43.42-24.64-51.35l.33-2.34,1.45,1.86c6.61,8.47,13.92,12.82,21,17.02,7.71,4.58,14.99,8.9,20.95,18.01,6.59,10.06,7.04,17.52,7.49,24.73.19,3.08.38,6.23,1.07,9.58,4.92-7.04,6.75-12.41,9.02-19.08,2.26-6.64,4.82-14.15,11.03-25.52,5.86-10.71,14.88-20.39,23.61-29.75,10.79-11.58,20.99-22.52,25.38-34.98l.5-1.42,1.4,1.27.33,3.02c2,18.55,5.74,53.08-16.64,79.44-13.33,15.7-28.56,22.1-49.6,30.88,13.94,5.22,28.55,7.87,43.48,7.87,35.79,0,70.23-16.17,94.5-44.37l1.56,1.25c-24.83,32.94-62.7,51.84-103.9,51.84ZM88.87,8.32C38.33,25.68,2,74.15,2,129.52c0,70.6,57.43,128.03,128.03,128.03,29.91,0,58.04-10.12,80.56-28.44-21.34,15.3-46.68,23.72-72.72,23.72-16,0-31.66-3-46.53-8.91l-2.28-.91,4.3-1.8c20.92-8.73,36.03-15.04,49.1-30.44,21.3-25.09,18.31-58.06,16.32-76.6-5.07,11.3-14.44,21.35-24.3,31.93-8.64,9.27-17.58,18.86-23.32,29.35-6.13,11.22-8.66,18.64-10.89,25.19-2.52,7.4-4.5,13.23-10.59,21.41l-1.24,1.66-.53-2c-1.15-4.33-1.39-8.27-1.62-12.07-.45-7.27-.87-14.14-7.17-23.76-5.71-8.72-12.79-12.93-20.3-17.39-6.59-3.91-13.38-7.95-19.71-15.26,1.17,9.66,10.61,34.24,23.97,46.9,6.5,6.15,11.35,10.82,14.89,14.23l7.62,7.33-6.19-3.23c-20.44-10.67-37.71-26.68-49.95-46.3-12.59-20.19-19.25-43.35-19.25-66.98,0-30.36,11.12-59.78,31.33-82.83,13.07-14.92,29.32-26.52,47.32-34.02Z"/>
        </g>
      </g>
    </g>
  </g>
</svg>