<svg width="230" height="65" viewBox="0 0 230 65" fill="none" xmlns="http://www.w3.org/2000/svg">
<path d="M85.958 12.009V26.1H65.168V12.009H70.382V17.157H80.711V12.009H85.958ZM83.351 31.611V40.29H79.226C78.478 40.29 78.104 39.916 78.104 39.168V31.611H73.022V40.29H68.864C68.116 40.29 67.742 39.916 67.742 39.168V31.611H62.99V29.697H88.136V31.611H83.351ZM80.711 24.186V19.071H70.382V24.186H80.711ZM106.361 37.221H91.5768V12.174H105.272V14.088H96.7908V23.493H104.777V25.44H96.7908V35.307H106.361V37.221ZM113.753 40.389H109.793C109.045 40.389 108.671 40.015 108.671 39.267V11.349H113.753V40.389ZM118.062 24.879C118.062 22.019 118.26 19.72 118.656 17.982C119.074 16.244 119.635 14.913 120.339 13.989C121.043 13.043 121.868 12.427 122.814 12.141C123.76 11.833 124.783 11.679 125.883 11.679C126.983 11.679 127.995 11.833 128.919 12.141C129.865 12.427 130.679 13.043 131.361 13.989C132.043 14.913 132.571 16.244 132.945 17.982C133.341 19.72 133.539 22.019 133.539 24.879C133.539 27.739 133.341 30.038 132.945 31.776C132.571 33.492 132.043 34.823 131.361 35.769C130.679 36.693 129.865 37.298 128.919 37.584C127.995 37.892 126.983 38.046 125.883 38.046C124.805 38.046 123.793 37.892 122.847 37.584C121.901 37.298 121.065 36.693 120.339 35.769C119.635 34.823 119.074 33.492 118.656 31.776C118.26 30.038 118.062 27.739 118.062 24.879ZM123.111 24.879C123.111 27.365 123.166 29.345 123.276 30.819C123.386 32.293 123.551 33.426 123.771 34.218C124.013 35.01 124.299 35.527 124.629 35.769C124.981 36.011 125.399 36.132 125.883 36.132C126.367 36.132 126.774 36.011 127.104 35.769C127.456 35.527 127.742 35.01 127.962 34.218C128.204 33.426 128.38 32.293 128.49 30.819C128.6 29.345 128.655 27.365 128.655 24.879C128.655 22.415 128.6 20.446 128.49 18.972C128.38 17.476 128.204 16.332 127.962 15.54C127.742 14.748 127.456 14.231 127.104 13.989C126.774 13.725 126.367 13.593 125.883 13.593C125.399 13.593 124.981 13.736 124.629 14.022C124.299 14.286 124.013 14.825 123.771 15.639C123.551 16.453 123.386 17.597 123.276 19.071C123.166 20.545 123.111 22.481 123.111 24.879ZM144.858 25.407H141.426V40.389H137.433C136.685 40.389 136.311 40.015 136.311 39.267V11.349H141.426V23.493H144.858V25.407ZM172.927 25.407H169.495V40.389H165.502C164.754 40.389 164.38 40.015 164.38 39.267V11.349H169.495V23.493H172.927V25.407ZM146.626 12.207H158.473C159.045 12.207 159.463 12.339 159.727 12.603C160.013 12.867 160.156 13.351 160.156 14.055V21.15C160.156 23.438 159.76 25.539 158.968 27.453C158.198 29.367 157.164 31.061 155.866 32.535C154.568 34.009 153.083 35.241 151.411 36.231C149.739 37.243 148.012 37.969 146.23 38.409L145.702 37.287C147.088 36.715 148.32 35.967 149.398 35.043C150.476 34.119 151.389 33.085 152.137 31.941C152.907 30.775 153.523 29.532 153.985 28.212C154.469 26.892 154.81 25.55 155.008 24.186H147.286V22.272H155.206C155.228 22.096 155.239 21.931 155.239 21.777C155.239 21.601 155.239 21.425 155.239 21.249V14.121H146.626V12.207ZM186.147 37.353H174.762V12.306H185.685V14.22H179.58V35.439H186.147V37.353ZM192.78 40.521H189.447C188.699 40.521 188.325 40.147 188.325 39.399V24.945H182.979V22.965H188.325V11.481H192.78V40.521ZM199.182 40.521H195.849C195.101 40.521 194.727 40.147 194.727 39.399V11.481H199.182V40.521ZM217.252 37.221H202.897V12.174H216.196C216.592 12.174 216.867 12.262 217.021 12.438C217.175 12.614 217.252 12.922 217.252 13.362V37.221ZM207.946 35.307H212.368V14.088H207.946V35.307ZM225.766 40.389H221.773C221.025 40.389 220.651 40.015 220.651 39.267V11.349H225.766V40.389Z" fill="#000848"/>
<path d="M63.613 56.8447C63.785 56.8447 63.9484 56.8103 64.1032 56.7415C64.258 56.6813 64.3913 56.5652 64.5031 56.3932C64.6235 56.2298 64.7138 56.0019 64.774 55.7095C64.8428 55.4257 64.8772 55.0645 64.8772 54.6259V45.9055H66.8896V53.6068C66.8896 54.226 66.795 54.7592 66.6058 55.2064C66.4252 55.6622 66.1457 56.0707 65.7673 56.4319C65.5007 56.6899 65.1997 56.892 64.8643 57.0382C64.5289 57.1844 64.1548 57.2575 63.742 57.2575C63.4582 57.2575 63.1873 57.2059 62.9293 57.1027C62.6713 57.0081 62.4563 56.8361 62.2843 56.5867L62.5552 56.3416C62.7014 56.5394 62.8691 56.6727 63.0583 56.7415C63.2475 56.8103 63.4324 56.8447 63.613 56.8447ZM71.2063 54.6259C71.8427 54.6259 72.2555 54.398 72.4447 53.9422C72.4877 53.8304 72.5264 53.7143 72.5608 53.5939C72.5952 53.4735 72.621 53.3359 72.6382 53.1811C72.664 53.0177 72.6812 52.8242 72.6898 52.6006C72.707 52.377 72.7156 52.1061 72.7156 51.7879C72.7156 51.4697 72.707 51.2031 72.6898 50.9881C72.6812 50.7645 72.664 50.571 72.6382 50.4076C72.621 50.2442 72.5952 50.1023 72.5608 49.9819C72.5264 49.8615 72.4877 49.7454 72.4447 49.6336C72.2555 49.1778 71.8427 48.9499 71.2063 48.9499C70.4839 48.9499 70.041 49.2337 69.8776 49.8013C69.8518 49.9131 69.826 50.0249 69.8002 50.1367C69.7744 50.2485 69.7529 50.3775 69.7357 50.5237C69.7271 50.6699 69.7185 50.8462 69.7099 51.0526C69.7013 51.2504 69.697 51.4955 69.697 51.7879C69.697 52.0803 69.7013 52.3297 69.7099 52.5361C69.7185 52.7339 69.7271 52.9102 69.7357 53.065C69.7529 53.2112 69.7744 53.3402 69.8002 53.452C69.826 53.5638 69.8518 53.6756 69.8776 53.7874C70.041 54.3464 70.4839 54.6259 71.2063 54.6259ZM71.2063 55.1935C70.6387 55.1935 70.1356 55.1333 69.697 55.0129C69.2584 54.9011 68.8886 54.6947 68.5876 54.3937C68.2866 54.0927 68.0587 53.7229 67.9039 53.2843C67.7577 52.8371 67.6846 52.3383 67.6846 51.7879C67.6846 50.7043 67.9899 49.8658 68.6005 49.2724C69.2025 48.679 70.0711 48.3823 71.2063 48.3823C72.3329 48.3823 73.2015 48.679 73.8121 49.2724C74.4227 49.8658 74.728 50.7043 74.728 51.7879C74.728 52.8801 74.427 53.7229 73.825 54.3163C73.2316 54.9011 72.3587 55.1935 71.2063 55.1935ZM77.8874 55H76.2362C76.1416 55 76.0685 54.9957 76.0169 54.9871C75.9653 54.9785 75.9266 54.9613 75.9008 54.9355C75.8836 54.9097 75.875 54.871 75.875 54.8194C75.875 54.7678 75.875 54.6947 75.875 54.6001V45.4282H77.8874V55ZM81.6541 55H80.0029C79.9083 55 79.8352 54.9957 79.7836 54.9871C79.732 54.9785 79.6933 54.9613 79.6675 54.9355C79.6503 54.9097 79.6417 54.871 79.6417 54.8194C79.6417 54.7678 79.6417 54.6947 79.6417 54.6001V45.4282H81.6541V55ZM82.4715 48.4468H84.3549C84.4151 48.4468 84.4753 48.4597 84.5355 48.4855C84.6043 48.5113 84.6602 48.5758 84.7032 48.679L86.2254 52.4974L87.7734 48.4468H88.5603C88.4571 48.6962 88.3238 49.023 88.1604 49.4272C87.997 49.8314 87.8164 50.2786 87.6186 50.7688C87.4208 51.259 87.2144 51.775 86.9994 52.3168C86.7844 52.85 86.5694 53.3789 86.3544 53.9035C86.1394 54.4281 85.933 54.9269 85.7352 55.3999C85.546 55.8729 85.374 56.29 85.2192 56.6512C85.0988 56.935 84.9182 57.1457 84.6774 57.2833C84.4452 57.4295 84.1915 57.5069 83.9163 57.5155C83.6755 57.5241 83.4691 57.5069 83.2971 57.4639C83.1337 57.4209 82.966 57.3521 82.794 57.2575L83.0133 56.7028C83.3229 56.8662 83.6067 56.9393 83.8647 56.9221C84.0109 56.9135 84.1485 56.8748 84.2775 56.806C84.4151 56.7458 84.5226 56.6211 84.6 56.4319L85.2063 54.9871L82.4715 48.4468ZM97.6034 49.3756C97.4228 49.281 97.1949 49.1907 96.9197 49.1047C96.6531 49.0101 96.2833 48.9628 95.8103 48.9628C95.3459 48.9628 94.9933 49.0402 94.7525 49.195C94.5203 49.3412 94.4042 49.5132 94.4042 49.711C94.4042 49.84 94.4343 49.9518 94.4945 50.0464C94.5547 50.1324 94.6321 50.2098 94.7267 50.2786C94.8299 50.3474 94.9374 50.4119 95.0492 50.4721C95.1696 50.5237 95.2857 50.5753 95.3975 50.6269C95.7329 50.7731 96.0425 50.9107 96.3263 51.0397C96.6101 51.1601 96.8767 51.2891 97.1261 51.4267C97.5217 51.6417 97.8442 51.8825 98.0936 52.1491C98.343 52.4157 98.4677 52.721 98.4677 53.065C98.4677 53.7358 98.2183 54.2604 97.7195 54.6388C97.2207 55.0086 96.4639 55.1935 95.4491 55.1935C95.0105 55.1935 94.5719 55.1118 94.1333 54.9484C93.6947 54.785 93.3163 54.5786 92.9981 54.3292L93.3464 53.8132C93.6646 54.0712 94.0086 54.2733 94.3784 54.4195C94.7568 54.5571 95.1137 54.6259 95.4491 54.6259C95.8791 54.6259 96.193 54.5528 96.3908 54.4066C96.5886 54.2604 96.7004 54.0841 96.7262 53.8777C96.7606 53.6283 96.7047 53.4219 96.5585 53.2585C96.4209 53.0865 96.2274 52.9317 95.978 52.7941C95.7114 52.6479 95.4276 52.506 95.1266 52.3684C94.8256 52.2308 94.516 52.0889 94.1978 51.9427C94.0172 51.8567 93.8452 51.7621 93.6818 51.6589C93.5184 51.5557 93.3765 51.4396 93.2561 51.3106C93.1357 51.173 93.0411 51.0225 92.9723 50.8591C92.9035 50.6871 92.8691 50.4979 92.8691 50.2915C92.8691 49.8959 92.9594 49.5734 93.14 49.324C93.3206 49.0746 93.5528 48.8811 93.8366 48.7435C94.1204 48.5973 94.43 48.5027 94.7654 48.4597C95.1094 48.4081 95.4448 48.3823 95.7716 48.3823C96.107 48.3823 96.4596 48.421 96.8294 48.4984C97.1992 48.5672 97.5303 48.6876 97.8227 48.8596L97.6034 49.3756ZM106.123 48.4468L104.021 50.7946L106.149 55H104.434C104.348 55 104.27 54.9828 104.201 54.9484C104.141 54.9054 104.077 54.8237 104.008 54.7033L102.744 52.2394L101.621 53.4907V55H99.9314C99.8024 55 99.7164 54.9656 99.6734 54.8968C99.6304 54.828 99.6089 54.7506 99.6089 54.6646V45.4282H101.621V52.4716L105.272 48.4468H106.123ZM109.104 48.4468V55H107.518C107.32 55 107.199 54.9613 107.156 54.8839C107.113 54.7979 107.092 54.6818 107.092 54.5356V48.4468H109.104ZM107.002 46.4344C107.002 46.1506 107.096 45.9141 107.285 45.7249C107.483 45.5271 107.724 45.4282 108.008 45.4282C108.292 45.4282 108.528 45.5271 108.717 45.7249C108.915 45.9141 109.014 46.1506 109.014 46.4344C109.014 46.7182 108.915 46.959 108.717 47.1568C108.528 47.346 108.292 47.4406 108.008 47.4406C107.724 47.4406 107.483 47.346 107.285 47.1568C107.096 46.959 107.002 46.7182 107.002 46.4344ZM112.871 55H111.349C111.151 55 111.018 54.9699 110.949 54.9097C110.889 54.8409 110.859 54.7162 110.859 54.5356V48.4468H112.316C112.497 48.4468 112.63 48.5113 112.716 48.6403C112.759 48.7091 112.785 48.7736 112.794 48.8338C113.034 48.6876 113.284 48.5758 113.542 48.4984C113.808 48.421 114.049 48.3823 114.264 48.3823C115.296 48.3823 116.075 48.5758 116.599 48.9628C117.132 49.3498 117.399 49.9346 117.399 50.7172V55H115.877C115.679 55 115.546 54.9699 115.477 54.9097C115.417 54.8409 115.387 54.7162 115.387 54.5356V51.1558C115.387 50.3732 115.283 49.8099 115.077 49.4659C114.871 49.1219 114.557 48.9499 114.135 48.9499C113.697 48.9499 113.267 49.1047 112.845 49.4143C112.854 49.4917 112.858 49.5691 112.858 49.6465C112.867 49.7239 112.871 49.8056 112.871 49.8916V55ZM122.978 45.9055H125.88C126.972 45.9055 127.768 46.0603 128.267 46.3699C128.765 46.6709 129.015 47.131 129.015 47.7502C129.015 48.292 128.826 48.7306 128.447 49.066C128.069 49.3928 127.462 49.6035 126.628 49.6981C127.024 49.6981 127.394 49.7454 127.738 49.84C128.09 49.926 128.4 50.0722 128.666 50.2786C128.933 50.485 129.144 50.7559 129.299 51.0913C129.453 51.4267 129.531 51.8395 129.531 52.3297C129.531 52.9403 129.406 53.4219 129.157 53.7745C128.907 54.1271 128.593 54.3937 128.215 54.5743C127.837 54.7549 127.428 54.871 126.989 54.9226C126.551 54.9742 126.138 55 125.751 55H123.532C123.162 55 122.978 54.7979 122.978 54.3937V45.9055ZM124.99 54.4324H125.751C126.921 54.4324 127.505 53.7315 127.505 52.3297C127.505 51.9169 127.471 51.5643 127.402 51.2719C127.333 50.9709 127.217 50.7258 127.054 50.5366C126.891 50.3474 126.671 50.2098 126.396 50.1238C126.121 50.0378 125.777 49.9948 125.364 49.9948H124.99V54.4324ZM124.99 46.4731V49.4272H125.648C125.975 49.4272 126.233 49.3885 126.422 49.3111C126.62 49.2251 126.766 49.109 126.86 48.9628C126.964 48.8166 127.028 48.6446 127.054 48.4468C127.088 48.2404 127.101 48.0168 127.093 47.776C127.075 47.2858 126.964 46.9461 126.757 46.7569C126.559 46.5677 126.267 46.4731 125.88 46.4731H124.99ZM135.112 51.3751C135.103 50.9967 135.077 50.6656 135.034 50.3818C134.991 50.0894 134.935 49.8572 134.867 49.6852C134.755 49.4186 134.596 49.2294 134.389 49.1176C134.192 49.0058 133.929 48.9499 133.602 48.9499C132.966 48.9499 132.549 49.1692 132.351 49.6078C132.257 49.8228 132.188 50.0808 132.145 50.3818C132.11 50.6828 132.093 51.0139 132.093 51.3751H135.112ZM133.602 55.1935C132.459 55.1935 131.586 54.9054 130.984 54.3292C130.683 54.0368 130.455 53.667 130.3 53.2198C130.154 52.764 130.081 52.2652 130.081 51.7234C130.081 50.6656 130.386 49.8443 130.997 49.2595C131.607 48.6747 132.476 48.3823 133.602 48.3823C134.729 48.3823 135.598 48.6747 136.208 49.2595C136.509 49.5433 136.733 49.9088 136.879 50.356C137.034 50.7946 137.116 51.2719 137.124 51.7879V51.9298H132.093C132.102 52.6178 132.132 53.1166 132.183 53.4262C132.244 53.7358 132.295 53.925 132.338 53.9938C132.416 54.1314 132.502 54.2432 132.596 54.3292C132.699 54.4066 132.807 54.4711 132.919 54.5227C133.039 54.5657 133.164 54.5958 133.293 54.613C133.43 54.6302 133.564 54.6388 133.693 54.6388C134.226 54.6388 134.712 54.5657 135.15 54.4195C135.589 54.2733 136.002 54.0153 136.389 53.6455L136.802 54.0712C136.544 54.3292 136.277 54.5356 136.002 54.6904C135.727 54.8366 135.447 54.9441 135.163 55.0129C134.888 55.0903 134.617 55.1376 134.351 55.1548C134.084 55.1806 133.835 55.1935 133.602 55.1935ZM144.709 55H143.199C143.087 55 142.989 54.9656 142.903 54.8968C142.825 54.828 142.774 54.7291 142.748 54.6001C142.645 54.7033 142.52 54.7936 142.374 54.871C142.227 54.9398 142.073 55 141.909 55.0516C141.746 55.1032 141.578 55.1376 141.406 55.1548C141.243 55.1806 141.084 55.1935 140.929 55.1935C140.499 55.1935 140.086 55.1419 139.69 55.0387C139.295 54.9441 138.947 54.8022 138.646 54.613C138.345 54.4152 138.104 54.1701 137.923 53.8777C137.751 53.5853 137.665 53.2499 137.665 52.8715C137.665 52.4501 137.773 52.0975 137.988 51.8137C138.203 51.5299 138.478 51.302 138.813 51.13C139.149 50.9494 139.523 50.8247 139.936 50.7559C140.357 50.6785 140.774 50.6398 141.187 50.6398C141.729 50.6398 142.232 50.7473 142.696 50.9623V50.3818C142.696 49.969 142.559 49.6293 142.283 49.3627C142.017 49.0875 141.608 48.9499 141.058 48.9499C140.705 48.9499 140.383 48.9929 140.09 49.0789C139.798 49.1649 139.493 49.2982 139.174 49.4788L138.981 48.937C139.643 48.5672 140.335 48.3823 141.058 48.3823C141.754 48.3823 142.335 48.4511 142.799 48.5887C143.272 48.7263 143.651 48.937 143.935 49.2208C144.218 49.496 144.416 49.8443 144.528 50.2657C144.648 50.6785 144.709 51.1644 144.709 51.7234V55ZM142.696 51.5428C142.206 51.3192 141.703 51.2074 141.187 51.2074C140.869 51.2074 140.611 51.2547 140.413 51.3493C140.215 51.4353 140.06 51.5557 139.948 51.7105C139.845 51.8567 139.772 52.0287 139.729 52.2265C139.695 52.4243 139.678 52.635 139.678 52.8586C139.678 53.108 139.695 53.3445 139.729 53.5681C139.764 53.7831 139.837 53.9723 139.948 54.1357C140.06 54.2905 140.211 54.4152 140.4 54.5098C140.598 54.5958 140.86 54.6388 141.187 54.6388C141.505 54.6388 141.789 54.5829 142.038 54.4711C142.296 54.3593 142.524 54.2217 142.722 54.0583C142.722 53.9293 142.718 53.8218 142.709 53.7358C142.709 53.6498 142.705 53.5681 142.696 53.4907C142.696 53.4133 142.696 53.3359 142.696 53.2585C142.696 53.1811 142.696 53.0822 142.696 52.9618V51.5428ZM150.685 48.4468H152.698V55H151.214C151.171 55 151.12 54.9871 151.06 54.9613C150.999 54.9355 150.935 54.8882 150.866 54.8194C150.823 54.785 150.793 54.7334 150.776 54.6646C150.673 54.7506 150.552 54.828 150.415 54.8968C150.277 54.957 150.135 55.0086 149.989 55.0516C149.843 55.1032 149.696 55.1376 149.55 55.1548C149.413 55.1806 149.292 55.1935 149.189 55.1935C148.647 55.1935 148.183 55.1333 147.796 55.0129C147.409 54.8925 147.091 54.7248 146.841 54.5098C146.6 54.2862 146.424 54.0239 146.312 53.7229C146.201 53.4219 146.145 53.0908 146.145 52.7296V48.4468H148.17V53.2585C148.17 53.7401 148.273 54.0884 148.48 54.3034C148.686 54.5184 149 54.6259 149.421 54.6259C149.843 54.6259 150.268 54.4711 150.698 54.1615C150.69 54.0841 150.685 54.0067 150.685 53.9293C150.685 53.8519 150.685 53.7702 150.685 53.6842V48.4468ZM156.756 53.4907C156.756 53.9207 156.837 54.2174 157.001 54.3808C157.164 54.5442 157.358 54.6259 157.581 54.6259C157.779 54.6259 157.955 54.5786 158.11 54.484C158.274 54.3808 158.407 54.2518 158.51 54.097L158.923 54.4324C158.854 54.5614 158.764 54.6732 158.652 54.7678C158.549 54.8624 158.428 54.9398 158.291 55C158.153 55.0688 158.011 55.1161 157.865 55.1419C157.719 55.1763 157.581 55.1935 157.452 55.1935C156.523 55.1935 155.835 54.914 155.388 54.355C154.95 53.7874 154.73 52.9747 154.73 51.9169V48.9499H153.724V48.3823H154.73V46.6795H156.756V48.3823H158.51V48.9499H156.756V53.4907ZM158.889 48.4468H160.772C160.832 48.4468 160.893 48.4597 160.953 48.4855C161.022 48.5113 161.078 48.5758 161.121 48.679L162.643 52.4974L164.191 48.4468H164.978C164.874 48.6962 164.741 49.023 164.578 49.4272C164.414 49.8314 164.234 50.2786 164.036 50.7688C163.838 51.259 163.632 51.775 163.417 52.3168C163.202 52.85 162.987 53.3789 162.772 53.9035C162.557 54.4281 162.35 54.9269 162.153 55.3999C161.963 55.8729 161.791 56.29 161.637 56.6512C161.516 56.935 161.336 57.1457 161.095 57.2833C160.863 57.4295 160.609 57.5069 160.334 57.5155C160.093 57.5241 159.886 57.5069 159.714 57.4639C159.551 57.4209 159.383 57.3521 159.211 57.2575L159.431 56.7028C159.74 56.8662 160.024 56.9393 160.282 56.9221C160.428 56.9135 160.566 56.8748 160.695 56.806C160.832 56.7458 160.94 56.6211 161.017 56.4319L161.624 54.9871L158.889 48.4468ZM173.144 45.5959L177.168 55H175.53C175.332 55 175.203 54.9785 175.143 54.9355C175.091 54.8925 175.044 54.8194 175.001 54.7162L173.982 52.291H170.822L169.686 55H169.028L172.898 45.5959H173.144ZM171.054 51.7363H173.75L172.408 48.5371L171.054 51.7363ZM183.107 54.1873C182.78 54.5141 182.393 54.7635 181.946 54.9355C181.508 55.1075 181.052 55.1935 180.579 55.1935C180.011 55.1935 179.508 55.1032 179.07 54.9226C178.64 54.7334 178.274 54.4926 177.973 54.2002C177.371 53.624 177.07 52.7984 177.07 51.7234C177.07 50.6656 177.375 49.8443 177.986 49.2595C178.287 48.9671 178.683 48.7478 179.173 48.6016C179.663 48.4554 180.192 48.3823 180.759 48.3823C181.043 48.3823 181.349 48.4296 181.675 48.5242C182.002 48.6188 182.307 48.7736 182.591 48.9886L182.282 49.4659C181.963 49.2423 181.68 49.1004 181.43 49.0402C181.181 48.98 180.957 48.9499 180.759 48.9499C180.398 48.9499 180.076 49.023 179.792 49.1692C179.517 49.3068 179.34 49.5132 179.263 49.7884C179.229 49.9002 179.199 50.012 179.173 50.1238C179.156 50.227 179.138 50.3517 179.121 50.4979C179.113 50.6355 179.104 50.8032 179.095 51.001C179.087 51.1988 179.082 51.4396 179.082 51.7234C179.082 52.3856 179.095 52.8715 179.121 53.1811C179.156 53.4907 179.203 53.7143 179.263 53.8519C179.495 54.3765 179.934 54.6388 180.579 54.6388C181.043 54.6388 181.447 54.5614 181.791 54.4066C182.144 54.2432 182.458 54.0239 182.733 53.7487L183.107 54.1873ZM190.438 55H188.929C188.817 55 188.718 54.9656 188.632 54.8968C188.555 54.828 188.503 54.7291 188.477 54.6001C188.374 54.7033 188.249 54.7936 188.103 54.871C187.957 54.9398 187.802 55 187.639 55.0516C187.475 55.1032 187.308 55.1376 187.136 55.1548C186.972 55.1806 186.813 55.1935 186.658 55.1935C186.228 55.1935 185.816 55.1419 185.42 55.0387C185.024 54.9441 184.676 54.8022 184.375 54.613C184.074 54.4152 183.833 54.1701 183.653 53.8777C183.481 53.5853 183.395 53.2499 183.395 52.8715C183.395 52.4501 183.502 52.0975 183.717 51.8137C183.932 51.5299 184.207 51.302 184.543 51.13C184.878 50.9494 185.252 50.8247 185.665 50.7559C186.086 50.6785 186.504 50.6398 186.916 50.6398C187.458 50.6398 187.961 50.7473 188.426 50.9623V50.3818C188.426 49.969 188.288 49.6293 188.013 49.3627C187.746 49.0875 187.338 48.9499 186.787 48.9499C186.435 48.9499 186.112 48.9929 185.82 49.0789C185.527 49.1649 185.222 49.2982 184.904 49.4788L184.71 48.937C185.373 48.5672 186.065 48.3823 186.787 48.3823C187.484 48.3823 188.064 48.4511 188.529 48.5887C189.002 48.7263 189.38 48.937 189.664 49.2208C189.948 49.496 190.146 49.8443 190.257 50.2657C190.378 50.6785 190.438 51.1644 190.438 51.7234V55ZM188.426 51.5428C187.935 51.3192 187.432 51.2074 186.916 51.2074C186.598 51.2074 186.34 51.2547 186.142 51.3493C185.945 51.4353 185.79 51.5557 185.678 51.7105C185.575 51.8567 185.502 52.0287 185.459 52.2265C185.424 52.4243 185.407 52.635 185.407 52.8586C185.407 53.108 185.424 53.3445 185.459 53.5681C185.493 53.7831 185.566 53.9723 185.678 54.1357C185.79 54.2905 185.94 54.4152 186.129 54.5098C186.327 54.5958 186.59 54.6388 186.916 54.6388C187.235 54.6388 187.518 54.5829 187.768 54.4711C188.026 54.3593 188.254 54.2217 188.451 54.0583C188.451 53.9293 188.447 53.8218 188.439 53.7358C188.439 53.6498 188.434 53.5681 188.426 53.4907C188.426 53.4133 188.426 53.3359 188.426 53.2585C188.426 53.1811 188.426 53.0822 188.426 52.9618V51.5428ZM198.11 45.4282V55H196.678C196.558 55 196.446 54.9699 196.343 54.9097C196.248 54.8495 196.184 54.7463 196.149 54.6001C196.072 54.6947 195.973 54.7807 195.853 54.8581C195.732 54.9269 195.603 54.9871 195.466 55.0387C195.337 55.0903 195.203 55.129 195.066 55.1548C194.937 55.1806 194.821 55.1935 194.718 55.1935C194.227 55.1935 193.784 55.0989 193.389 54.9097C193.002 54.7205 192.671 54.4668 192.396 54.1486C192.129 53.8304 191.923 53.4606 191.776 53.0392C191.639 52.6178 191.57 52.1749 191.57 51.7105C191.57 50.6699 191.862 49.8572 192.447 49.2724C193.041 48.679 193.836 48.3823 194.834 48.3823C195.246 48.3823 195.668 48.5242 196.098 48.808V45.4282H198.11ZM193.582 51.7105C193.582 52.0717 193.582 52.3727 193.582 52.6135C193.591 52.8543 193.6 53.0564 193.608 53.2198C193.625 53.3832 193.643 53.5122 193.66 53.6068C193.677 53.6928 193.698 53.7659 193.724 53.8261C193.931 54.3077 194.3 54.5485 194.834 54.5485C195.066 54.5485 195.294 54.4926 195.517 54.3808C195.75 54.2604 195.943 54.1142 196.098 53.9422V49.4014C195.676 49.1004 195.255 48.9499 194.834 48.9499C194.292 48.9499 193.922 49.1907 193.724 49.6723C193.698 49.7411 193.677 49.8228 193.66 49.9174C193.643 50.0034 193.625 50.1238 193.608 50.2786C193.6 50.4248 193.591 50.614 193.582 50.8462C193.582 51.0784 193.582 51.3665 193.582 51.7105ZM204.273 51.3751C204.264 50.9967 204.238 50.6656 204.195 50.3818C204.152 50.0894 204.097 49.8572 204.028 49.6852C203.916 49.4186 203.757 49.2294 203.55 49.1176C203.353 49.0058 203.09 48.9499 202.764 48.9499C202.127 48.9499 201.71 49.1692 201.512 49.6078C201.418 49.8228 201.349 50.0808 201.306 50.3818C201.271 50.6828 201.254 51.0139 201.254 51.3751H204.273ZM202.764 55.1935C201.62 55.1935 200.747 54.9054 200.145 54.3292C199.844 54.0368 199.616 53.667 199.461 53.2198C199.315 52.764 199.242 52.2652 199.242 51.7234C199.242 50.6656 199.547 49.8443 200.158 49.2595C200.768 48.6747 201.637 48.3823 202.764 48.3823C203.89 48.3823 204.759 48.6747 205.369 49.2595C205.67 49.5433 205.894 49.9088 206.04 50.356C206.195 50.7946 206.277 51.2719 206.285 51.7879V51.9298H201.254C201.263 52.6178 201.293 53.1166 201.345 53.4262C201.405 53.7358 201.456 53.925 201.499 53.9938C201.577 54.1314 201.663 54.2432 201.757 54.3292C201.861 54.4066 201.968 54.4711 202.08 54.5227C202.2 54.5657 202.325 54.5958 202.454 54.613C202.592 54.6302 202.725 54.6388 202.854 54.6388C203.387 54.6388 203.873 54.5657 204.312 54.4195C204.75 54.2733 205.163 54.0153 205.55 53.6455L205.963 54.0712C205.705 54.3292 205.438 54.5356 205.163 54.6904C204.888 54.8366 204.608 54.9441 204.324 55.0129C204.049 55.0903 203.778 55.1376 203.512 55.1548C203.245 55.1806 202.996 55.1935 202.764 55.1935ZM209.432 55H207.91C207.712 55 207.579 54.9699 207.51 54.9097C207.45 54.8409 207.42 54.7162 207.42 54.5356V48.4468H208.877C209.006 48.4468 209.114 48.4855 209.2 48.5629C209.286 48.6317 209.337 48.722 209.355 48.8338C209.595 48.6876 209.845 48.5758 210.103 48.4984C210.369 48.421 210.61 48.3823 210.825 48.3823C212.064 48.3823 212.941 48.6661 213.457 49.2337C213.827 48.8811 214.175 48.6532 214.502 48.55C214.837 48.4382 215.125 48.3823 215.366 48.3823C216.398 48.3823 217.176 48.5758 217.701 48.9628C218.234 49.3498 218.501 49.9346 218.501 50.7172V55H216.979C216.781 55 216.647 54.9699 216.579 54.9097C216.518 54.8409 216.488 54.7162 216.488 54.5356V51.1558C216.488 50.3732 216.385 49.8099 216.179 49.4659C215.972 49.1219 215.658 48.9499 215.237 48.9499C214.936 48.9499 214.661 49.0144 214.411 49.1434C214.162 49.2724 213.938 49.4229 213.741 49.5949C213.887 49.9045 213.96 50.2528 213.96 50.6398V55H212.438C212.24 55 212.107 54.9699 212.038 54.9097C211.978 54.8409 211.948 54.7162 211.948 54.5356V51.1558C211.948 50.3732 211.844 49.8099 211.638 49.4659C211.432 49.1219 211.118 48.9499 210.696 48.9499C210.266 48.9499 209.841 49.1047 209.419 49.4143C209.428 49.4917 209.432 49.5691 209.432 49.6465C209.432 49.7239 209.432 49.8056 209.432 49.8916V55ZM218.929 48.4468H220.813C220.873 48.4468 220.933 48.4597 220.993 48.4855C221.062 48.5113 221.118 48.5758 221.161 48.679L222.683 52.4974L224.231 48.4468H225.018C224.915 48.6962 224.782 49.023 224.618 49.4272C224.455 49.8314 224.274 50.2786 224.076 50.7688C223.879 51.259 223.672 51.775 223.457 52.3168C223.242 52.85 223.027 53.3789 222.812 53.9035C222.597 54.4281 222.391 54.9269 222.193 55.3999C222.004 55.8729 221.832 56.29 221.677 56.6512C221.557 56.935 221.376 57.1457 221.135 57.2833C220.903 57.4295 220.649 57.5069 220.374 57.5155C220.133 57.5241 219.927 57.5069 219.755 57.4639C219.591 57.4209 219.424 57.3521 219.252 57.2575L219.471 56.7028C219.781 56.8662 220.064 56.9393 220.322 56.9221C220.469 56.9135 220.606 56.8748 220.735 56.806C220.873 56.7458 220.98 56.6211 221.058 56.4319L221.664 54.9871L218.929 48.4468Z" fill="#999999"/>
<path d="M48.5525 44.7744C48.6106 43.3384 48.4793 41.968 48.0276 40.6455C47.5051 39.1186 46.7455 37.7103 45.7814 36.4156C44.8501 35.1613 43.9365 33.8944 42.9724 32.6678C42.2128 31.7012 41.3824 30.7927 40.59 29.8513C39.0833 28.0619 37.5715 26.2801 36.085 24.4756C35.2244 23.4283 34.6566 22.2143 34.2099 20.9398C33.6698 19.3978 33.4149 17.8103 33.4956 16.185C33.584 14.4259 33.9549 12.735 34.8761 11.193C35.709 9.79984 36.8371 8.71462 38.2328 7.91205C39.1615 7.37701 40.2013 7.16249 41.2537 6.99844C42.1219 6.86216 42.9775 6.90506 43.8406 7.00349C47.1998 7.38711 50.2232 9.52727 51.1747 12.899C51.687 14.7086 51.4599 16.5005 49.9608 17.7952C48.5954 18.9738 46.9524 19.4079 45.153 18.8148C43.9214 18.4085 42.9144 17.6791 42.1143 16.6645C42.1017 16.6494 42.0866 16.6342 42.079 16.6141C42.0336 16.4677 41.9907 16.3213 41.9478 16.1749C42.1017 16.1648 42.2784 16.0967 42.4046 16.1522C43.1112 16.4576 43.775 16.3415 44.4034 15.973C45.0495 15.5919 45.476 15.019 45.7486 14.3149C46.0514 13.5325 46.1171 12.7249 46.0615 11.9047C45.948 10.2541 44.7492 9.13609 43.0961 9.04523C41.544 8.96195 40.4436 9.64337 39.6688 10.9355C38.5104 12.8713 38.3665 14.9509 38.8511 17.1011C39.2372 18.8173 40.1332 20.2862 41.1149 21.7146C41.7433 22.6282 42.3339 23.5646 42.9724 24.4706C43.4065 25.0889 43.8886 25.6719 44.3555 26.2675C44.941 27.012 45.5189 27.7641 46.1221 28.491C47.4269 30.0633 48.762 31.6129 50.0592 33.1928C51.5255 34.9796 52.6385 36.9608 53.3426 39.1741C53.8928 40.9055 54.1906 42.6595 54.0846 44.4741C53.9458 46.7833 53.3351 48.9412 51.9748 50.8492C51.8057 51.0864 51.6012 51.2984 51.4094 51.518C51.099 51.8763 50.8037 52.2499 50.4706 52.583C50.1374 52.9161 49.7765 53.2266 49.403 53.5143C48.1361 54.491 46.8035 55.3592 45.2514 55.8311C43.3384 56.4116 41.4052 56.8255 39.3861 56.6589C38.1419 56.5554 36.933 56.293 35.7595 55.8715C35.6459 55.8311 35.5374 55.7781 35.4288 55.7226C34.9266 55.4727 34.861 55.238 35.2093 54.8065C35.4692 54.4859 35.7595 54.1906 36.0345 53.8827C36.1935 53.7061 36.3778 53.6884 36.5822 53.7868C36.9078 53.9458 37.2333 54.1074 37.5589 54.2689C38.6542 54.8065 39.8227 55.0487 41.0241 54.8872C42.1875 54.7307 43.298 54.3597 44.305 53.7162C46.3871 52.3887 47.5379 50.4075 48.2168 48.1159C48.5399 47.0206 48.6105 45.8748 48.5576 44.7744H48.5525Z" fill="#FABE00"/>
<path d="M21.3639 33.8338C21.1368 33.743 20.8895 33.6824 20.6876 33.5537C18.6433 32.7713 15.2438 33.9272 14.8072 37.2738C14.4362 40.1231 15.0949 42.0336 16.8438 43.6438C18.4641 45.1353 20.145 45.7133 21.2832 45.7688C22.7344 45.8369 23.8675 45.1707 24.771 44.088C25.9042 42.7327 26.4418 41.1351 26.7017 39.4013C27.0778 36.9002 26.8885 34.3891 26.8986 31.8855C26.9289 24.3318 26.9062 16.7781 26.9036 9.22192C26.9036 8.61621 26.9415 8.00798 26.8784 7.40732C26.8305 6.94547 26.7169 6.46595 26.52 6.047C26.2146 5.39587 25.614 5.09806 24.9149 5.0072C24.7256 4.98197 24.5338 4.97439 24.342 4.9542C24.1073 4.92897 23.9508 4.80278 23.8801 4.57816C23.8221 4.39645 23.7615 4.21221 23.7161 4.02798C23.6429 3.73774 23.7565 3.55603 24.0518 3.50051C24.1704 3.47779 24.2915 3.48284 24.4127 3.48284C27.6709 3.49041 30.9291 3.49798 34.1873 3.50555C34.8207 3.50555 35.2018 4.01283 35.0025 4.62106C34.9671 4.72959 34.8031 4.84063 34.6769 4.8684C34.4346 4.92392 34.1772 4.91887 33.9248 4.94663C33.1273 5.03749 32.1859 5.60282 32.1354 6.76123C32.1178 7.14485 32.0875 7.52594 32.0875 7.90955C32.0875 15.3926 32.09 22.8756 32.0925 30.3611C32.0925 32.206 32.1153 34.0534 32.0824 35.8983C32.0471 37.9426 31.7316 39.9464 30.7928 41.7863C29.6924 43.9416 28.0999 45.635 25.8941 46.7228C23.2643 48.0175 20.5311 48.3052 17.712 47.5582C14.8854 46.7102 11.2108 44.2394 10.3148 40.585C9.59554 37.6599 10.0877 36.3248 10.701 34.8913C11.4026 33.2534 12.5181 31.9536 14.2191 31.3378C16.1044 30.6564 18.0174 30.5958 19.8219 31.6659C20.5639 32.1051 21.0485 32.789 21.3867 33.5764C21.4094 33.6294 21.4144 33.6875 21.427 33.7455C21.4068 33.7758 21.3867 33.8036 21.3665 33.8338H21.3639Z" fill="#6B1685"/>
<path d="M34.543 63.304C17.0305 63.304 2.57931 48.8528 2.57931 31.3403C2.57678 15.4809 14.4714 2.34207 29.6721 0C13.0429 1.46379 0 15.4254 0 32.4356C0 50.4201 14.5799 65 32.5644 65C43.1996 65 52.641 59.902 58.5846 52.0177C52.7698 58.7738 44.1561 63.304 34.543 63.304Z" fill="#6FBA2C"/>
<path d="M39.9641 32.582C37.9123 38.4044 30.823 43.0305 27.5824 48.9563C24.2813 54.9957 25.0485 56.8331 22.1815 60.6869C21.3613 57.6003 22.4162 55.3693 19.9303 51.571C17.0633 47.1897 12.8461 47.22 9.35567 42.7453C9.10834 44.5271 11.6977 51.8864 15.4986 55.4879C19.6047 59.3745 21.172 60.9821 21.6566 61.2951C21.5329 61.444 21.4168 61.5904 21.3108 61.7368C21.5253 61.6484 21.7323 61.5601 21.9392 61.4743L22.3481 61.7317L22.2875 61.3279C28.0897 58.8925 32.3246 57.3151 35.8958 53.1079C41.7585 46.2029 40.4159 36.9027 39.9666 32.5846L39.9641 32.582Z" fill="#6FBA2C"/>
</svg>
