<svg width="509" height="311" viewBox="0 0 509 311" fill="none" xmlns="http://www.w3.org/2000/svg">
<path d="M1.2 21.52H26.31V24.61H1.2V21.52ZM12.09 23.8H16.11V28H12.09V23.8ZM4.11 30.1H23.58V33.19H4.11V30.1ZM4.11 26.32H8.07V32.05H4.11V26.32ZM2.4 8.14H25.02V11.14H2.4V8.14ZM13.77 11.92C19.68 11.92 23.07 13.39 23.07 16.15C23.07 18.91 19.68 20.41 13.77 20.41C7.86 20.41 4.47 18.91 4.47 16.15C4.47 13.39 7.86 11.92 13.77 11.92ZM13.77 14.71C10.14 14.71 8.55 15.13 8.55 16.15C8.55 17.17 10.14 17.59 13.77 17.59C17.37 17.59 18.99 17.17 18.99 16.15C18.99 15.13 17.37 14.71 13.77 14.71ZM11.76 5.77H15.75V10.06H11.76V5.77ZM29.8477 19.84H31.9777C36.6877 19.84 39.5977 19.72 42.9877 19.12L43.4077 22.3C39.9277 22.93 36.8377 23.05 31.9777 23.05H29.8477V19.84ZM29.8177 7.78H42.0277V16.75H33.8077V21.76H29.8477V13.75H38.0677V10.96H29.8177V7.78ZM48.0577 5.92H52.0477V26.44H48.0577V5.92ZM43.6177 10.09H48.8077V13.24H43.6177V10.09ZM33.5077 29.95H52.7377V33.16H33.5077V29.95ZM33.5077 24.85H37.4677V31.15H33.5077V24.85ZM43.6177 16.36H48.8077V19.54H43.6177V16.36ZM75.4453 5.86H79.4653V33.73H75.4453V5.86ZM57.7753 8.08H61.7353V14.83H67.4653V8.08H71.4253V27.25H57.7753V8.08ZM61.7353 17.92V24.04H67.4653V17.92H61.7353ZM97.812 20.98H101.832V26.71H97.812V20.98ZM97.782 11.08H100.962V11.71C100.962 16.36 98.472 20.41 93.192 21.82L91.392 18.76C95.832 17.59 97.782 14.68 97.782 11.71V11.08ZM98.622 11.08H101.832V11.71C101.832 14.56 103.842 17.38 108.252 18.52L106.482 21.58C101.202 20.23 98.622 16.24 98.622 11.71V11.08ZM92.232 9.16H107.442V12.31H92.232V9.16ZM97.812 6.13H101.832V10.54H97.812V6.13ZM109.902 5.86H113.892V33.73H109.902V5.86ZM91.302 28.57L90.822 25.33C95.682 25.33 102.522 25.27 108.372 24.4L108.672 27.31C102.642 28.48 96.102 28.54 91.302 28.57ZM138.37 5.89H142.15V33.67H138.37V5.89ZM134.65 16.57H139.27V19.78H134.65V16.57ZM132.16 6.37H135.85V32.35H132.16V6.37ZM119.08 24.13H121.03C124.45 24.13 127.3 24.01 130.6 23.41L130.9 26.65C127.54 27.31 124.6 27.4 121.03 27.4H119.08V24.13ZM119.08 9.1H129.34V12.31H123.04V25.69H119.08V9.1ZM155.366 8.41H165.746V11.29H157.826L157.076 16.66C157.526 16.63 157.946 16.57 158.576 16.57C162.686 16.57 166.226 18.97 166.226 23.59C166.226 27.94 162.896 31.33 157.976 31.33C155.756 31.33 153.746 30.73 152.696 30.07L153.476 27.43C154.376 27.94 156.026 28.57 157.856 28.57C160.406 28.57 162.686 26.83 162.686 23.89C162.686 20.98 160.706 19.15 156.686 19.15C155.546 19.15 154.706 19.21 153.956 19.33L155.366 8.41ZM176.592 31.33C171.882 31.33 169.362 26.68 169.362 19.75C169.362 12.37 172.152 8.05 176.832 8.05C181.602 8.05 184.002 12.67 184.002 19.51C184.002 27.16 181.242 31.33 176.592 31.33ZM176.652 28.54C179.592 28.54 180.492 24.31 180.492 19.63C180.492 14.26 179.352 10.81 176.712 10.81C174.432 10.81 172.872 13.99 172.872 19.63C172.872 25.24 174.252 28.54 176.652 28.54ZM193.438 31.33C188.728 31.33 186.208 26.68 186.208 19.75C186.208 12.37 188.998 8.05 193.678 8.05C198.448 8.05 200.848 12.67 200.848 19.51C200.848 27.16 198.088 31.33 193.438 31.33ZM193.498 28.54C196.438 28.54 197.338 24.31 197.338 19.63C197.338 14.26 196.198 10.81 193.558 10.81C191.278 10.81 189.718 13.99 189.718 19.63C189.718 25.24 191.098 28.54 193.498 28.54ZM203.953 8.17H217.183V21.58H203.953V8.17ZM213.253 11.32H207.883V18.43H213.253V11.32ZM221.023 5.89H225.013V26.14H221.023V5.89ZM223.873 13.9H228.703V17.17H223.873V13.9ZM207.103 30.01H226.003V33.19H207.103V30.01ZM207.103 24.16H211.093V31.6H207.103V24.16ZM237.971 20.14H241.961V26.23H237.971V20.14ZM250.151 5.89H254.141V26.92H250.151V5.89ZM234.131 30.01H254.741V33.19H234.131V30.01ZM234.131 24.94H238.121V30.85H234.131V24.94ZM231.131 21.34L230.651 18.16C235.721 18.16 242.501 18.1 248.321 17.35L248.561 20.2C242.651 21.19 236.141 21.34 231.131 21.34ZM244.901 22.03H251.021V24.76H244.901V22.03ZM239.591 6.85C243.641 6.85 246.491 8.86 246.491 11.8C246.491 14.77 243.641 16.75 239.591 16.75C235.511 16.75 232.661 14.77 232.661 11.8C232.661 8.86 235.511 6.85 239.591 6.85ZM239.591 9.76C237.731 9.76 236.441 10.45 236.441 11.8C236.441 13.15 237.731 13.84 239.591 13.84C241.421 13.84 242.711 13.15 242.711 11.8C242.711 10.45 241.421 9.76 239.591 9.76ZM271.738 10.27H274.918V13.39C274.918 19.81 272.308 26.08 267.088 28.45L264.838 25.3C269.488 23.23 271.738 18.1 271.738 13.39V10.27ZM272.638 10.27H275.788V13.39C275.788 17.89 278.008 22.69 282.658 24.61L280.498 27.76C275.218 25.48 272.638 19.57 272.638 13.39V10.27ZM265.948 8.56H281.518V11.83H265.948V8.56ZM284.098 5.89H288.118V33.67H284.098V5.89ZM299.875 20.14H303.865V26.23H299.875V20.14ZM312.055 5.89H316.045V26.92H312.055V5.89ZM296.035 30.01H316.645V33.19H296.035V30.01ZM296.035 24.94H300.025V30.85H296.035V24.94ZM293.035 21.34L292.555 18.16C297.625 18.16 304.405 18.1 310.225 17.35L310.465 20.2C304.555 21.19 298.045 21.34 293.035 21.34ZM306.805 22.03H312.925V24.76H306.805V22.03ZM301.495 6.85C305.545 6.85 308.395 8.86 308.395 11.8C308.395 14.77 305.545 16.75 301.495 16.75C297.415 16.75 294.565 14.77 294.565 11.8C294.565 8.86 297.415 6.85 301.495 6.85ZM301.495 9.76C299.635 9.76 298.345 10.45 298.345 11.8C298.345 13.15 299.635 13.84 301.495 13.84C303.325 13.84 304.615 13.15 304.615 11.8C304.615 10.45 303.325 9.76 301.495 9.76ZM1.2 61.52H26.31V64.61H1.2V61.52ZM12.09 63.8H16.11V68H12.09V63.8ZM4.11 70.1H23.58V73.19H4.11V70.1ZM4.11 66.32H8.07V72.05H4.11V66.32ZM2.4 48.14H25.02V51.14H2.4V48.14ZM13.77 51.92C19.68 51.92 23.07 53.39 23.07 56.15C23.07 58.91 19.68 60.41 13.77 60.41C7.86 60.41 4.47 58.91 4.47 56.15C4.47 53.39 7.86 51.92 13.77 51.92ZM13.77 54.71C10.14 54.71 8.55 55.13 8.55 56.15C8.55 57.17 10.14 57.59 13.77 57.59C17.37 57.59 18.99 57.17 18.99 56.15C18.99 55.13 17.37 54.71 13.77 54.71ZM11.76 45.77H15.75V50.06H11.76V45.77ZM29.8477 59.84H31.9777C36.6877 59.84 39.5977 59.72 42.9877 59.12L43.4077 62.3C39.9277 62.93 36.8377 63.05 31.9777 63.05H29.8477V59.84ZM29.8177 47.78H42.0277V56.75H33.8077V61.76H29.8477V53.75H38.0677V50.96H29.8177V47.78ZM48.0577 45.92H52.0477V66.44H48.0577V45.92ZM43.6177 50.09H48.8077V53.24H43.6177V50.09ZM33.5077 69.95H52.7377V73.16H33.5077V69.95ZM33.5077 64.85H37.4677V71.15H33.5077V64.85ZM43.6177 56.36H48.8077V59.54H43.6177V56.36ZM75.5353 45.89H79.5553V73.67H75.5353V45.89ZM67.3453 48.77H71.3053C71.3053 57.26 68.4253 64.22 58.5553 68.99L56.4853 65.81C64.4653 61.97 67.3453 56.93 67.3453 49.49V48.77ZM57.9553 48.77H69.2353V51.92H57.9553V48.77ZM101.843 45.89H105.863V65.78H101.843V45.89ZM104.723 53.63H109.553V56.9H104.723V53.63ZM94.103 47.96H98.363C98.363 55.52 93.743 60.71 85.463 63.11L83.783 59.93C90.593 58.07 94.103 54.35 94.103 49.94V47.96ZM84.983 47.96H96.263V51.17H84.983V47.96ZM87.893 70.01H106.793V73.19H87.893V70.01ZM87.893 63.77H91.913V71.42H87.893V63.77ZM128.86 59.84H132.85V64.73H128.86V59.84ZM118.3 58.52H143.41V61.67H118.3V58.52ZM130.81 63.65C136.81 63.65 140.44 65.45 140.44 68.66C140.44 71.87 136.81 73.67 130.81 73.67C124.78 73.67 121.15 71.87 121.15 68.66C121.15 65.45 124.78 63.65 130.81 63.65ZM130.81 66.65C127.09 66.65 125.2 67.28 125.2 68.66C125.2 70.01 127.09 70.67 130.81 70.67C134.53 70.67 136.42 70.01 136.42 68.66C136.42 67.28 134.53 66.65 130.81 66.65ZM128.11 48.5H131.65V49.19C131.65 53.36 127.9 56.78 120.73 57.44L119.35 54.32C125.44 53.81 128.11 51.35 128.11 49.19V48.5ZM130.06 48.5H133.6V49.19C133.6 51.38 136.24 53.81 142.36 54.32L140.98 57.44C133.84 56.78 130.06 53.39 130.06 49.19V48.5ZM120.58 47.03H141.16V50.18H120.58V47.03ZM152.606 61.52H177.716V64.61H152.606V61.52ZM163.496 63.8H167.516V68H163.496V63.8ZM155.516 70.1H174.986V73.19H155.516V70.1ZM155.516 66.32H159.476V72.05H155.516V66.32ZM153.806 48.14H176.426V51.14H153.806V48.14ZM165.176 51.92C171.086 51.92 174.476 53.39 174.476 56.15C174.476 58.91 171.086 60.41 165.176 60.41C159.266 60.41 155.876 58.91 155.876 56.15C155.876 53.39 159.266 51.92 165.176 51.92ZM165.176 54.71C161.546 54.71 159.956 55.13 159.956 56.15C159.956 57.17 161.546 57.59 165.176 57.59C168.776 57.59 170.396 57.17 170.396 56.15C170.396 55.13 168.776 54.71 165.176 54.71ZM163.166 45.77H167.156V50.06H163.166V45.77ZM181.254 59.84H183.384C188.094 59.84 191.004 59.72 194.394 59.12L194.814 62.3C191.334 62.93 188.244 63.05 183.384 63.05H181.254V59.84ZM181.224 47.78H193.434V56.75H185.214V61.76H181.254V53.75H189.474V50.96H181.224V47.78ZM199.464 45.92H203.454V66.44H199.464V45.92ZM195.024 50.09H200.214V53.24H195.024V50.09ZM184.914 69.95H204.144V73.16H184.914V69.95ZM184.914 64.85H188.874V71.15H184.914V64.85ZM195.024 56.36H200.214V59.54H195.024V56.36ZM213.982 48.98H217.252V50.72C217.252 56.03 214.762 60.8 209.392 62.57L207.412 59.42C212.032 57.89 213.982 54.26 213.982 50.72V48.98ZM214.792 48.98H218.032V50.72C218.032 53.96 219.892 57.14 224.362 58.49L222.472 61.61C217.192 60.02 214.792 55.67 214.792 50.72V48.98ZM208.462 47.75H223.462V50.93H208.462V47.75ZM225.682 45.89H229.672V62.36H225.682V45.89ZM228.562 52.28H233.362V55.55H228.562V52.28ZM220.612 62.87C226.372 62.87 230.002 64.88 230.002 68.27C230.002 71.66 226.372 73.67 220.612 73.67C214.822 73.67 211.192 71.66 211.192 68.27C211.192 64.88 214.822 62.87 220.612 62.87ZM220.612 65.99C217.072 65.99 215.152 66.71 215.152 68.27C215.152 69.83 217.072 70.61 220.612 70.61C224.152 70.61 226.042 69.83 226.042 68.27C226.042 66.71 224.152 65.99 220.612 65.99ZM254.659 45.86H258.649V73.73H254.659V45.86ZM250.099 51.77H255.319V54.98H250.099V51.77ZM236.359 64.28H238.549C242.659 64.28 246.079 64.19 250.069 63.59L250.399 66.83C246.319 67.46 242.779 67.55 238.549 67.55H236.359V64.28ZM236.299 48.2H248.719V58.97H240.319V65H236.359V55.82H244.789V51.38H236.299V48.2ZM250.039 59.33H255.259V62.54H250.039V59.33ZM266.087 47.12H283.697V50.3H266.087V47.12ZM263.027 57.11H288.167V60.29H263.027V57.11ZM281.297 47.12H285.227V49.34C285.227 51.74 285.227 54.32 284.387 57.92L280.427 57.86C281.297 54.26 281.297 51.71 281.297 49.34V47.12ZM265.967 63.2H285.107V73.37H265.967V63.2ZM281.177 66.29H269.867V70.22H281.177V66.29ZM303.994 50.27H307.174V53.39C307.174 59.81 304.564 66.08 299.344 68.45L297.094 65.3C301.744 63.23 303.994 58.1 303.994 53.39V50.27ZM304.894 50.27H308.044V53.39C308.044 57.89 310.264 62.69 314.914 64.61L312.754 67.76C307.474 65.48 304.894 59.57 304.894 53.39V50.27ZM298.204 48.56H313.774V51.83H298.204V48.56ZM316.354 45.89H320.374V73.67H316.354V45.89ZM332.131 60.14H336.121V66.23H332.131V60.14ZM344.311 45.89H348.301V66.92H344.311V45.89ZM328.291 70.01H348.901V73.19H328.291V70.01ZM328.291 64.94H332.281V70.85H328.291V64.94ZM325.291 61.34L324.811 58.16C329.881 58.16 336.661 58.1 342.481 57.35L342.721 60.2C336.811 61.19 330.301 61.34 325.291 61.34ZM339.061 62.03H345.181V64.76H339.061V62.03ZM333.751 46.85C337.801 46.85 340.651 48.86 340.651 51.8C340.651 54.77 337.801 56.75 333.751 56.75C329.671 56.75 326.821 54.77 326.821 51.8C326.821 48.86 329.671 46.85 333.751 46.85ZM333.751 49.76C331.891 49.76 330.601 50.45 330.601 51.8C330.601 53.15 331.891 53.84 333.751 53.84C335.581 53.84 336.871 53.15 336.871 51.8C336.871 50.45 335.581 49.76 333.751 49.76ZM360.149 75.08H357.539C355.529 72.35 353.339 67.91 353.339 61.28C353.369 54.59 355.529 50.15 357.539 47.39H360.149C357.899 50.63 356.219 55.13 356.219 61.31C356.219 67.37 357.959 71.78 360.149 75.08ZM368.467 60.17H370.927V68.3H368.467V60.17ZM378.487 60.17H380.977V68.3H378.487V60.17ZM362.467 67.82H387.037V69.89H362.467V67.82ZM374.707 47.93C380.437 47.93 384.547 50.66 384.547 54.92C384.547 59.15 380.437 61.88 374.707 61.88C368.947 61.88 364.837 59.15 364.837 54.92C364.837 50.66 368.947 47.93 374.707 47.93ZM374.707 49.91C370.357 49.91 367.237 51.89 367.237 54.92C367.237 57.92 370.357 59.9 374.707 59.9C379.057 59.9 382.147 57.92 382.147 54.92C382.147 51.89 379.057 49.91 374.707 49.91ZM409.864 46.22H412.354V66.26H409.864V46.22ZM404.014 54.59H410.344V56.66H404.014V54.59ZM401.494 48.32H404.104C404.104 55.31 399.184 60.62 391.534 63.17L390.454 61.16C397.084 58.94 401.494 54.68 401.494 49.31V48.32ZM391.804 48.32H403.114V50.36H391.804V48.32ZM395.224 70.7H413.044V72.74H395.224V70.7ZM395.224 64.25H397.714V71.72H395.224V64.25ZM428.672 60.92H431.102V65H428.672V60.92ZM417.632 59.6H442.142V61.61H417.632V59.6ZM428.672 46.13H431.132V49.79H428.672V46.13ZM428.552 50.09H430.742V50.54C430.742 54.98 425.762 57.56 419.822 58.16L419.072 56.24C424.322 55.79 428.552 53.63 428.552 50.54V50.09ZM429.062 50.09H431.252V50.54C431.252 53.63 435.482 55.79 440.732 56.24L439.982 58.16C434.042 57.56 429.062 54.98 429.062 50.54V50.09ZM420.152 48.86H439.652V50.84H420.152V48.86ZM429.872 64.31C435.722 64.31 439.172 65.9 439.172 68.81C439.172 71.72 435.722 73.28 429.872 73.28C424.022 73.28 420.572 71.72 420.572 68.81C420.572 65.9 424.022 64.31 429.872 64.31ZM429.872 66.2C425.582 66.2 423.092 67.1 423.092 68.81C423.092 70.46 425.582 71.39 429.872 71.39C434.162 71.39 436.652 70.46 436.652 68.81C436.652 67.1 434.162 66.2 429.872 66.2ZM455.88 48.38H458.1V49.19C458.1 53.57 453.12 56.57 447.51 57.26L446.61 55.31C451.47 54.74 455.88 52.28 455.88 49.19V48.38ZM456.93 48.38H459.12V49.19C459.12 52.28 463.53 54.77 468.39 55.31L467.49 57.26C461.88 56.57 456.93 53.57 456.93 49.19V48.38ZM447.48 47.33H467.55V49.34H447.48V47.33ZM445.23 59.81H469.83V61.85H445.23V59.81ZM456.24 55.76H458.7V60.8H456.24V55.76ZM447.96 64.55H466.71V73.34H464.22V66.56H447.96V64.55ZM479.997 48.56H482.037V53.42C482.037 59.66 478.677 65.45 474.237 67.7L472.707 65.66C476.727 63.74 479.997 58.55 479.997 53.42V48.56ZM480.417 48.56H482.457V53.42C482.457 58.37 485.697 63.35 489.717 65.21L488.217 67.19C483.807 65.03 480.417 59.45 480.417 53.42V48.56ZM492.537 46.19H495.027V73.37H492.537V46.19ZM499.765 47.39H502.375C504.385 50.09 506.545 54.5 506.545 61.22C506.515 67.91 504.385 72.29 502.375 75.08H499.765C501.955 71.84 503.695 67.34 503.695 61.22C503.695 55.1 501.985 50.66 499.765 47.39Z" fill="white"/>
<path d="M25.44 130.95H29.04V134.64H17.04V139.26H26.13V149.64H21.81V142.89H3.6V139.26H12.75V134.64H0.96V130.95H20.88C21.18 129.42 21.36 127.14 21.36 125.94H3.84V122.25H26.1C26.1 125.28 25.86 128.7 25.44 130.95ZM42.84 123.63H45.36C47.01 123.63 47.37 123.78 47.37 124.14C47.37 124.41 47.13 124.83 47.13 125.37V143.67H32.55V123.63H35.31C36.84 123.63 37.23 123.75 37.23 124.11C37.23 124.41 36.87 124.95 36.87 125.7V129.54H42.84V123.63ZM42.84 133.23H36.87V140.01H42.84V133.23ZM52.53 121.53H55.14C56.85 121.53 57.24 121.62 57.24 121.92C57.24 122.19 56.88 122.7 56.88 123.51V149.64H52.53V121.53ZM63.39 127.08V123.42H79.02C79.02 129 78.66 135.63 77.64 139.08L73.44 138.9C74.07 136.86 74.76 130.38 74.76 127.08H63.39ZM67.08 131.46H69.45C71.25 131.46 71.64 131.58 71.64 131.85C71.64 132.09 71.34 132.45 71.34 132.96V141.9C73.65 141.75 77.49 141.42 80.1 141.09C80.22 142.11 80.46 143.43 80.67 144.36C76.74 144.75 70.77 145.26 64.74 145.71C63.72 145.83 63.15 146.34 62.76 146.34C62.49 146.34 62.31 146.1 62.1 145.29L61.53 142.44C63.42 142.32 65.28 142.26 67.08 142.11V131.46ZM81.24 121.53H83.67C85.59 121.53 86.07 121.65 86.07 122.01C86.07 122.37 85.56 123 85.56 123.99V133.83H89.31V137.64H85.56V149.64H81.24V121.53ZM93 126.69V122.97H108.54V126.69H103.02V127.29C103.02 128.91 105.72 132.63 110.07 133.5C109.17 134.43 108.21 135.78 107.46 137.04C104.37 135.78 101.76 133.59 100.92 131.76C100.2 133.59 97.5 135.96 94.08 137.4C93.42 136.47 91.98 135.06 90.96 134.19C95.49 133.5 98.85 129.33 98.85 127.26V126.69H93ZM112.53 121.53H114.9C116.91 121.53 117.39 121.65 117.39 122.01C117.39 122.37 116.88 123 116.88 124.05V139.2H112.53V131.04H107.04V127.5H112.53V121.53ZM105.96 138.57C113.64 138.57 117.12 141.27 117.12 144.24C117.12 147.24 113.64 150 105.96 150C98.16 150 94.68 147.24 94.68 144.24C94.68 141.27 98.16 138.57 105.96 138.57ZM105.99 141.72C101.16 141.72 99.15 142.86 99.15 144.27C99.15 145.77 101.16 146.94 105.96 146.94C110.67 146.94 112.65 145.77 112.65 144.27C112.65 142.86 110.67 141.72 105.99 141.72Z" fill="white"/>
<path d="M40.1757 226H37.3507V209.825H37.3007L34.1257 211.575L33.4757 209.45L37.7257 207.175H40.1757V226ZM48.3388 226.275C47.1888 226.275 46.4888 225.4 46.4888 224.3C46.4888 223.15 47.2888 222.3 48.3638 222.3C49.4638 222.3 50.2138 223.125 50.2138 224.3C50.2138 225.45 49.4888 226.275 48.3388 226.275ZM77.175 205.35H79.25V217.05H77.175V205.35ZM64.65 218.2H79.275V223.625H66.725V226.725H64.7V222.075H77.225V219.825H64.65V218.2ZM64.7 226.05H80.025V227.7H64.7V226.05ZM66.625 206H68.35V207.725C68.35 211.9 65.75 215.45 61.925 216.85L60.9 215.2C64.3 214 66.625 211 66.625 207.725V206ZM67 206H68.7V207.725C68.7 210.85 71.075 213.675 74.425 214.775L73.4 216.4C69.6 215.1 67 211.775 67 207.725V206ZM100.198 205.35H102.273V227.95H100.198V205.35ZM93.573 207.775H95.623C95.623 214.325 92.673 220.05 85.123 223.75L84.023 222.075C90.548 218.925 93.573 214.125 93.573 208.125V207.775ZM85.048 207.775H94.473V209.475H85.048V207.775ZM127.787 205.325H129.862V221.7H127.787V205.325ZM129.237 212.05H133.212V213.775H129.237V212.05ZM113.362 216H115.112C119.762 216 122.387 215.875 125.412 215.25L125.637 216.925C122.537 217.575 119.862 217.725 115.112 217.725H113.362V216ZM113.362 207.275H123.337V209H115.412V216.925H113.362V207.275ZM115.787 225.75H130.887V227.45H115.787V225.75ZM115.787 220.075H117.862V226.525H115.787V220.075ZM151.785 205.35H153.86V227.95H151.785V205.35ZM145.16 207.775H147.21C147.21 214.325 144.26 220.05 136.71 223.75L135.61 222.075C142.135 218.925 145.16 214.125 145.16 208.125V207.775ZM136.635 207.775H146.06V209.475H136.635V207.775ZM158.308 216.675H178.808V218.375H158.308V216.675ZM167.483 213.25H169.533V217.45H167.483V213.25ZM167.458 205.7H169.258V206.7C169.258 210.775 164.933 213.675 160.333 214.425L159.533 212.775C163.583 212.225 167.458 209.725 167.458 206.7V205.7ZM167.783 205.7H169.558V206.7C169.558 209.725 173.458 212.225 177.483 212.775L176.708 214.425C172.133 213.65 167.783 210.775 167.783 206.7V205.7ZM160.583 220.575H176.208V227.95H174.133V222.25H160.583V220.575ZM187.006 206.625H188.731V208.95C188.731 213.325 186.256 216.9 182.381 218.35L181.306 216.65C184.756 215.425 187.006 212.4 187.006 208.95V206.625ZM187.381 206.625H189.081V208.875C189.081 212.075 191.281 214.9 194.581 216.05L193.456 217.675C189.806 216.3 187.381 212.975 187.381 208.875V206.625ZM197.831 205.35H199.906V218.725H197.831V205.35ZM192.481 219.375C197.131 219.375 200.006 220.95 200.006 223.65C200.006 226.35 197.131 227.9 192.481 227.9C187.806 227.9 184.931 226.35 184.931 223.65C184.931 220.95 187.806 219.375 192.481 219.375ZM192.481 221.025C189.081 221.025 187.006 222 187.006 223.65C187.006 225.3 189.081 226.275 192.481 226.275C195.881 226.275 197.956 225.3 197.956 223.65C197.956 222 195.881 221.025 192.481 221.025ZM192.931 210.125H198.281V211.85H192.931V210.125ZM219.779 205.375H221.854V221.95H219.779V205.375ZM221.204 212.2H225.204V213.925H221.204V212.2ZM207.779 225.75H222.879V227.45H207.779V225.75ZM207.779 220.35H209.854V226.15H207.779V220.35ZM205.254 206.975H207.304V210.75H213.679V206.975H215.704V218.175H205.254V206.975ZM207.304 212.375V216.5H213.679V212.375H207.304ZM234.968 216.425C233.793 216.425 233.118 215.525 233.118 214.475C233.118 213.35 233.893 212.5 234.968 212.5C236.068 212.5 236.818 213.3 236.818 214.475C236.818 215.575 236.093 216.425 234.968 216.425ZM234.968 226.275C233.793 226.275 233.118 225.375 233.118 224.325C233.118 223.2 233.893 222.35 234.968 222.35C236.068 222.35 236.818 223.175 236.818 224.325C236.818 225.45 236.093 226.275 234.968 226.275ZM252.562 226H249.737V209.825H249.687L246.512 211.575L245.862 209.45L250.112 207.175H252.562V226ZM261.25 215.625H261.3C262.175 214.525 263.575 213.675 265.4 213.675C268.425 213.675 270.625 215.95 270.625 219.65C270.625 223.15 268.4 226.275 264.675 226.275C260.675 226.275 258.325 223 258.325 218.325C258.325 214.65 259.55 211.725 261.35 209.825C263.3 207.775 266.25 206.9 268.9 206.9L268.925 209.2C263.575 209.2 261.65 212.85 261.25 215.625ZM264.675 224.1C266.575 224.1 267.725 222.3 267.725 219.825C267.725 217.375 266.475 215.75 264.5 215.75C262.825 215.75 261.2 217.325 261.2 219.025C261.25 221.975 262.475 224.1 264.675 224.1ZM284.063 223.6V226H272.613V224.225L274.588 222.15C278.563 218.075 280.763 215.475 280.763 212.65C280.763 210.825 279.888 209.225 277.513 209.225C276.063 209.225 274.763 210 273.888 210.7L273.013 208.625C274.163 207.675 275.988 206.875 278.088 206.875C281.963 206.875 283.663 209.5 283.663 212.35C283.663 215.8 281.313 218.675 278.038 221.975L276.488 223.55V223.6H284.063ZM292.701 207.3H294.401V211.35C294.401 216.55 291.601 221.375 287.901 223.25L286.626 221.55C289.976 219.95 292.701 215.625 292.701 211.35V207.3ZM293.051 207.3H294.751V211.35C294.751 215.475 297.451 219.625 300.801 221.175L299.551 222.825C295.876 221.025 293.051 216.375 293.051 211.35V207.3ZM303.151 205.325H305.226V227.975H303.151V205.325ZM325.199 205.35H327.274V221.875H325.199V205.35ZM326.624 212.2H330.624V213.925H326.624V212.2ZM319.024 207.1H321.224C321.224 212.95 317.124 217.225 310.649 219.3L309.749 217.6C315.449 215.85 319.024 212.35 319.024 208V207.1ZM310.674 207.1H320.074V208.8H310.674V207.1ZM313.174 225.75H328.274V227.45H313.174V225.75ZM313.174 220.2H315.249V226.425H313.174V220.2ZM43.6007 263.6V266H32.1507V264.225L34.1257 262.15C38.1007 258.075 40.3007 255.475 40.3007 252.65C40.3007 250.825 39.4257 249.225 37.0507 249.225C35.6007 249.225 34.3007 250 33.4257 250.7L32.5507 248.625C33.7007 247.675 35.5257 246.875 37.6257 246.875C41.5007 246.875 43.2007 249.5 43.2007 252.35C43.2007 255.8 40.8507 258.675 37.5757 261.975L36.0257 263.55V263.6H43.6007ZM48.3388 266.275C47.1888 266.275 46.4888 265.4 46.4888 264.3C46.4888 263.15 47.2888 262.3 48.3638 262.3C49.4638 262.3 50.2138 263.125 50.2138 264.3C50.2138 265.45 49.4888 266.275 48.3388 266.275ZM76.2 245.325H78.275V261.7H76.2V245.325ZM77.65 252.05H81.625V253.775H77.65V252.05ZM61.775 256H63.525C68.175 256 70.8 255.875 73.825 255.25L74.05 256.925C70.95 257.575 68.275 257.725 63.525 257.725H61.775V256ZM61.775 247.275H71.75V249H63.825V256.925H61.775V247.275ZM64.2 265.75H79.3V267.45H64.2V265.75ZM64.2 260.075H66.275V266.525H64.2V260.075ZM100.198 245.35H102.273V267.95H100.198V245.35ZM93.573 247.775H95.623C95.623 254.325 92.673 260.05 85.123 263.75L84.023 262.075C90.548 258.925 93.573 254.125 93.573 248.125V247.775ZM85.048 247.775H94.473V249.475H85.048V247.775ZM106.721 256.675H127.221V258.375H106.721V256.675ZM115.896 253.25H117.946V257.45H115.896V253.25ZM115.871 245.7H117.671V246.7C117.671 250.775 113.346 253.675 108.746 254.425L107.946 252.775C111.996 252.225 115.871 249.725 115.871 246.7V245.7ZM116.196 245.7H117.971V246.7C117.971 249.725 121.871 252.225 125.896 252.775L125.121 254.425C120.546 253.65 116.196 250.775 116.196 246.7V245.7ZM108.996 260.575H124.621V267.95H122.546V262.25H108.996V260.575ZM135.419 246.625H137.144V248.95C137.144 253.325 134.669 256.9 130.794 258.35L129.719 256.65C133.169 255.425 135.419 252.4 135.419 248.95V246.625ZM135.794 246.625H137.494V248.875C137.494 252.075 139.694 254.9 142.994 256.05L141.869 257.675C138.219 256.3 135.794 252.975 135.794 248.875V246.625ZM146.244 245.35H148.319V258.725H146.244V245.35ZM140.894 259.375C145.544 259.375 148.419 260.95 148.419 263.65C148.419 266.35 145.544 267.9 140.894 267.9C136.219 267.9 133.344 266.35 133.344 263.65C133.344 260.95 136.219 259.375 140.894 259.375ZM140.894 261.025C137.494 261.025 135.419 262 135.419 263.65C135.419 265.3 137.494 266.275 140.894 266.275C144.294 266.275 146.369 265.3 146.369 263.65C146.369 262 144.294 261.025 140.894 261.025ZM141.344 250.125H146.694V251.85H141.344V250.125ZM158.867 269.4H156.692C155.017 267.125 153.192 263.425 153.192 257.9C153.217 252.325 155.017 248.625 156.692 246.325H158.867C156.992 249.025 155.592 252.775 155.592 257.925C155.592 262.975 157.042 266.65 158.867 269.4ZM177.249 245.35H179.349V257.05H177.249V245.35ZM164.599 258.15H179.349V263.6H166.699V267H164.674V262.05H177.274V259.8H164.599V258.15ZM164.674 266.05H180.174V267.7H164.674V266.05ZM161.799 246.875H173.924V248.525H161.799V246.875ZM161.399 256.3L161.174 254.575C165.199 254.575 170.599 254.475 174.999 253.925L175.124 255.45C170.624 256.125 165.374 256.275 161.399 256.3ZM164.024 247.625H166.024V255.325H164.024V247.625ZM169.674 247.625H171.699V255.325H169.674V247.625ZM200.247 245.35H202.322V267.95H200.247V245.35ZM193.622 247.775H195.672C195.672 254.325 192.722 260.05 185.172 263.75L184.072 262.075C190.597 258.925 193.622 254.125 193.622 248.125V247.775ZM185.097 247.775H194.522V249.475H185.097V247.775ZM212.995 257.45V250.875H215.02V257.45H221.32V259.375H215.02V266H212.995V259.375H206.67V257.45H212.995ZM240.139 245.35H242.214V257.05H240.139V245.35ZM227.614 258.2H242.239V263.625H229.689V266.725H227.664V262.075H240.189V259.825H227.614V258.2ZM227.664 266.05H242.989V267.7H227.664V266.05ZM229.589 246H231.314V247.725C231.314 251.9 228.714 255.45 224.889 256.85L223.864 255.2C227.264 254 229.589 251 229.589 247.725V246ZM229.964 246H231.664V247.725C231.664 250.85 234.039 253.675 237.389 254.775L236.364 256.4C232.564 255.1 229.964 251.775 229.964 247.725V246ZM263.162 245.35H265.237V267.95H263.162V245.35ZM256.537 247.775H258.587C258.587 254.325 255.637 260.05 248.087 263.75L246.987 262.075C253.512 258.925 256.537 254.125 256.537 248.125V247.775ZM248.012 247.775H257.437V249.475H248.012V247.775ZM269.135 246.325H271.31C272.985 248.575 274.785 252.25 274.785 257.85C274.76 263.425 272.985 267.075 271.31 269.4H269.135C270.96 266.7 272.41 262.95 272.41 257.85C272.41 252.75 270.985 249.05 269.135 246.325ZM285.407 256.425C284.232 256.425 283.557 255.525 283.557 254.475C283.557 253.35 284.332 252.5 285.407 252.5C286.507 252.5 287.257 253.3 287.257 254.475C287.257 255.575 286.532 256.425 285.407 256.425ZM285.407 266.275C284.232 266.275 283.557 265.375 283.557 264.325C283.557 263.2 284.332 262.35 285.407 262.35C286.507 262.35 287.257 263.175 287.257 264.325C287.257 265.45 286.532 266.275 285.407 266.275ZM303.001 266H300.176V249.825H300.126L296.951 251.575L296.301 249.45L300.551 247.175H303.001V266ZM312.289 256.15V256.075C310.414 255.1 309.489 253.5 309.489 251.875C309.489 248.875 311.914 246.875 315.064 246.875C318.664 246.875 320.339 249.25 320.339 251.525C320.339 253.125 319.489 254.825 317.439 255.875V255.95C319.489 256.85 320.964 258.5 320.964 260.8C320.964 264.075 318.364 266.275 314.814 266.275C310.964 266.275 308.839 263.875 308.839 261.225C308.839 258.825 310.264 257.1 312.289 256.15ZM314.889 264.225C316.889 264.225 318.039 262.8 318.039 261.075C318.039 258.975 316.639 257.8 314.589 257.125C312.764 257.75 311.764 259.2 311.764 260.875C311.764 262.725 312.964 264.225 314.889 264.225ZM314.964 248.9C313.114 248.9 312.239 250.275 312.239 251.7C312.239 253.425 313.464 254.45 315.239 255.05C316.539 254.525 317.589 253.3 317.589 251.8C317.589 250.325 316.839 248.9 314.964 248.9ZM328.852 266.275C324.927 266.275 322.827 262.4 322.827 256.625C322.827 250.475 325.152 246.875 329.052 246.875C333.027 246.875 335.027 250.725 335.027 256.425C335.027 262.8 332.727 266.275 328.852 266.275ZM328.902 263.95C331.352 263.95 332.102 260.425 332.102 256.525C332.102 252.05 331.152 249.175 328.952 249.175C327.052 249.175 325.752 251.825 325.752 256.525C325.752 261.2 326.902 263.95 328.902 263.95ZM343.14 247.3H344.84V251.35C344.84 256.55 342.04 261.375 338.34 263.25L337.065 261.55C340.415 259.95 343.14 255.625 343.14 251.35V247.3ZM343.49 247.3H345.19V251.35C345.19 255.475 347.89 259.625 351.24 261.175L349.99 262.825C346.315 261.025 343.49 256.375 343.49 251.35V247.3ZM353.59 245.325H355.665V267.975H353.59V245.325ZM375.638 245.35H377.713V261.875H375.638V245.35ZM377.063 252.2H381.063V253.925H377.063V252.2ZM369.463 247.1H371.663C371.663 252.95 367.563 257.225 361.088 259.3L360.188 257.6C365.888 255.85 369.463 252.35 369.463 248V247.1ZM361.113 247.1H370.513V248.8H361.113V247.1ZM363.613 265.75H378.713V267.45H363.613V265.75ZM363.613 260.2H365.688V266.425H363.613V260.2Z" fill="white"/>
<path d="M40.5 286.97C39.769 286.97 39.225 286.358 39.225 285.695C39.225 284.998 39.803 284.42 40.5 284.42C41.197 284.42 41.775 284.998 41.775 285.695C41.775 286.392 41.197 286.97 40.5 286.97ZM34.397 284.93L34.89 284.437L40.5 290.047L46.11 284.437L46.603 284.93L40.993 290.54L46.603 296.15L46.11 296.643L40.5 291.033L34.873 296.66L34.38 296.167L40.007 290.54L34.397 284.93ZM36.93 290.54C36.93 291.271 36.318 291.815 35.655 291.815C34.958 291.815 34.38 291.237 34.38 290.54C34.38 289.843 34.958 289.265 35.655 289.265C36.352 289.265 36.93 289.843 36.93 290.54ZM44.07 290.54C44.07 289.809 44.682 289.265 45.345 289.265C46.042 289.265 46.62 289.843 46.62 290.54C46.62 291.237 46.042 291.815 45.345 291.815C44.648 291.815 44.07 291.237 44.07 290.54ZM40.5 294.11C41.231 294.11 41.775 294.722 41.775 295.385C41.775 296.082 41.197 296.66 40.5 296.66C39.803 296.66 39.225 296.082 39.225 295.385C39.225 294.688 39.803 294.11 40.5 294.11ZM51.278 284.488H61.172V285.661H51.278V284.488ZM49.85 295.011H63.739V296.184H49.85V295.011ZM53.25 289.928H54.644V295.436H53.25V289.928ZM60.713 284.488H62.107V286.188C62.107 288.143 62.107 290.149 61.58 293.022L60.169 292.852C60.713 290.132 60.713 288.092 60.713 286.188V284.488ZM57.041 289.928H58.435V295.436H57.041V289.928ZM69.1437 290.914H70.5547V293.94H69.1437V290.914ZM74.3117 290.897H75.7057V293.94H74.3117V290.897ZM65.4717 290.353H79.3607V291.509H65.4717V290.353ZM67.0187 293.43H77.6437V298.326H76.2327V294.569H67.0187V293.43ZM72.4247 283.315C75.7397 283.315 77.8307 284.42 77.8307 286.256C77.8307 288.092 75.7397 289.197 72.4247 289.197C69.0927 289.197 67.0187 288.092 67.0187 286.256C67.0187 284.42 69.0927 283.315 72.4247 283.315ZM72.4247 284.437C69.9767 284.437 68.4637 285.1 68.4637 286.256C68.4637 287.395 69.9767 288.075 72.4247 288.075C74.8557 288.075 76.3857 287.395 76.3857 286.256C76.3857 285.1 74.8557 284.437 72.4247 284.437ZM85.1733 284.284H86.3293V287.038C86.3293 290.574 84.4253 293.855 81.9093 295.13L81.0423 293.974C83.3203 292.886 85.1733 289.945 85.1733 287.038V284.284ZM85.4113 284.284H86.5673V287.038C86.5673 289.843 88.4033 292.665 90.6813 293.719L89.8313 294.841C87.3323 293.617 85.4113 290.455 85.4113 287.038V284.284ZM92.2793 282.941H93.6903V298.343H92.2793V282.941ZM107.272 282.958H108.683V294.195H107.272V282.958ZM108.241 287.616H110.961V288.789H108.241V287.616ZM103.073 284.148H104.569C104.569 288.126 101.781 291.033 97.378 292.444L96.766 291.288C100.642 290.098 103.073 287.718 103.073 284.76V284.148ZM97.395 284.148H103.787V285.304H97.395V284.148ZM99.095 296.83H109.363V297.986H99.095V296.83ZM99.095 293.056H100.506V297.289H99.095V293.056ZM112.388 291.033H126.277V292.189H112.388V291.033ZM114.19 296.83H124.747V297.986H114.19V296.83ZM114.19 293.532H115.601V297.187H114.19V293.532ZM119.341 283.468C122.622 283.468 124.747 284.624 124.747 286.545C124.747 288.449 122.622 289.605 119.341 289.605C116.043 289.605 113.935 288.449 113.935 286.545C113.935 284.624 116.043 283.468 119.341 283.468ZM119.341 284.624C116.927 284.624 115.38 285.338 115.38 286.545C115.38 287.752 116.927 288.466 119.341 288.466C121.755 288.466 123.302 287.752 123.302 286.545C123.302 285.338 121.755 284.624 119.341 284.624ZM139.172 285.78H143.609V286.919H139.172V285.78ZM139.172 289.095H143.643V290.234H139.172V289.095ZM143.065 282.975H144.476V294.348H143.065V282.975ZM134.599 296.83H144.85V297.986H134.599V296.83ZM134.599 293.243H136.01V297.425H134.599V293.243ZM132.593 283.978H133.987V286.698H138.152V283.978H139.529V291.73H132.593V283.978ZM133.987 287.803V290.574H138.152V287.803H133.987ZM147.484 290.523H161.373V291.679H147.484V290.523ZM153.723 288.058H155.117V290.999H153.723V288.058ZM149.235 287.616H159.758V288.772H149.235V287.616ZM149.235 283.655H159.639V284.794H150.629V288.296H149.235V283.655ZM154.403 292.784C157.684 292.784 159.673 293.787 159.673 295.538C159.673 297.323 157.684 298.309 154.403 298.309C151.122 298.309 149.133 297.323 149.133 295.538C149.133 293.787 151.122 292.784 154.403 292.784ZM154.403 293.872C152.006 293.872 150.561 294.484 150.561 295.538C150.561 296.609 152.006 297.204 154.403 297.204C156.817 297.204 158.245 296.609 158.245 295.538C158.245 294.484 156.817 293.872 154.403 293.872ZM173.509 282.941H174.937V298.326H173.509V282.941ZM174.546 289.18H177.385V290.353H174.546V289.18ZM169.582 284.607H170.959C170.959 288.976 168.953 292.92 163.989 295.419L163.207 294.331C167.457 292.172 169.582 288.891 169.582 284.828V284.607ZM163.921 284.607H170.313V285.763H163.921V284.607ZM180.648 287.225H191.069V288.381H180.648V287.225ZM180.648 283.264H182.042V287.735H180.648V283.264ZM178.761 290.166H192.65V291.305H178.761V290.166ZM185.68 292.682C188.961 292.682 190.95 293.685 190.95 295.487C190.95 297.255 188.961 298.275 185.68 298.275C182.399 298.275 180.41 297.255 180.41 295.487C180.41 293.685 182.399 292.682 185.68 292.682ZM185.68 293.787C183.283 293.787 181.838 294.399 181.838 295.487C181.838 296.541 183.283 297.153 185.68 297.153C188.094 297.153 189.522 296.541 189.522 295.487C189.522 294.399 188.094 293.787 185.68 293.787Z" fill="white"/>
</svg>
