<svg width="350" height="60" viewBox="0 0 350 60" fill="none" xmlns="http://www.w3.org/2000/svg">
<rect width="350" height="60" rx="30" fill="#F5D152"/>
<path d="M55.78 19.7H42.34V23.36H55.78V19.7ZM37.99 26.84V16.25H60.13V26.84H37.99ZM34.96 32.45V28.88H63.04V32.45H51.25V37.16H46.96V32.45H34.96ZM37.99 34.07H40.54C42.28 34.07 42.7 34.22 42.7 34.61C42.7 34.94 42.34 35.45 42.34 36.14V39.26H60.52V42.92H37.99V34.07ZM75.1 20.18C72.82 20.18 71.53 21.8 71.53 23.93C71.53 25.94 72.82 27.47 75.1 27.47C77.35 27.47 78.7 25.94 78.7 23.93C78.7 21.8 77.35 20.18 75.1 20.18ZM75.1 16.64C78.79 16.64 82.99 19.04 82.99 23.84C82.99 28.64 78.79 31.04 75.1 31.04C71.41 31.04 67.21 28.64 67.21 23.84C67.21 19.04 71.41 16.64 75.1 16.64ZM65.95 38.45L65.11 35.33C67.87 35.33 76.42 35.06 84.79 34.34C85.06 35.48 85.36 36.83 85.54 37.76C80.74 38.18 75.04 38.6 69.43 38.96C67.93 39.05 67.21 39.47 66.73 39.47C66.4 39.47 66.19 39.23 65.95 38.45ZM86.53 15.53H89.14C90.85 15.53 91.24 15.62 91.24 15.92C91.24 16.19 90.88 16.7 90.88 17.51V43.64H86.53V15.53ZM104.855 29.93C103.205 29.93 102.215 28.67 102.215 27.14C102.215 25.55 103.325 24.35 104.855 24.35C106.415 24.35 107.495 25.49 107.495 27.14C107.495 28.73 106.475 29.93 104.855 29.93ZM104.855 41.33C103.205 41.33 102.215 40.07 102.215 38.54C102.215 36.95 103.325 35.75 104.855 35.75C106.415 35.75 107.495 36.89 107.495 38.54C107.495 40.16 106.475 41.33 104.855 41.33ZM123.644 41.33C118.364 41.33 116.144 36.05 116.144 29.72C116.144 22.82 118.694 17.96 123.794 17.96C129.134 17.96 131.204 23.24 131.204 29.54C131.204 37.04 128.414 41.33 123.644 41.33ZM123.674 37.82H123.704C125.744 37.82 126.764 34.94 126.764 29.63C126.764 24.5 125.834 21.47 123.734 21.47C121.814 21.47 120.584 24.23 120.584 29.63C120.584 35 121.694 37.82 123.674 37.82ZM144.022 18.32V41H139.702V22.28H139.642L135.742 24.32L134.782 21.14L140.302 18.32H144.022ZM157.98 41.33C152.7 41.33 150.48 36.05 150.48 29.72C150.48 22.82 153.03 17.96 158.13 17.96C163.47 17.96 165.54 23.24 165.54 29.54C165.54 37.04 162.75 41.33 157.98 41.33ZM158.01 37.82H158.04C160.08 37.82 161.1 34.94 161.1 29.63C161.1 24.5 160.17 21.47 158.07 21.47C156.15 21.47 154.92 24.23 154.92 29.63C154.92 35 156.03 37.82 158.01 37.82ZM175.838 33.38H167.618V30.32H175.838V33.38ZM179.672 22.7L178.742 19.52C179.912 18.74 182.222 17.96 184.652 17.96C189.002 17.96 191.282 20.51 191.282 23.51C191.282 25.85 189.872 27.8 187.382 28.73V28.79C189.902 29.36 192.002 31.4 192.002 34.49C192.002 38.27 188.972 41.33 183.692 41.33C181.292 41.33 179.132 40.7 177.992 39.95L178.982 36.59C179.822 37.13 181.652 37.82 183.392 37.82C186.122 37.82 187.472 36.14 187.472 34.28C187.472 31.73 185.252 30.53 182.822 30.53H181.292V27.41H182.732C184.502 27.41 186.782 26.42 186.782 24.23C186.782 22.64 185.732 21.47 183.632 21.47C182.072 21.47 180.542 22.16 179.672 22.7ZM205.78 18.32V41H201.46V22.28H201.4L197.5 24.32L196.54 21.14L202.06 18.32H205.78ZM214.008 22.7L213.078 19.52C214.248 18.74 216.558 17.96 218.988 17.96C223.338 17.96 225.618 20.51 225.618 23.51C225.618 25.85 224.208 27.8 221.718 28.73V28.79C224.238 29.36 226.337 31.4 226.337 34.49C226.337 38.27 223.308 41.33 218.028 41.33C215.628 41.33 213.468 40.7 212.328 39.95L213.318 36.59C214.158 37.13 215.988 37.82 217.728 37.82C220.458 37.82 221.808 36.14 221.808 34.28C221.808 31.73 219.588 30.53 217.158 30.53H215.628V27.41H217.068C218.838 27.41 221.118 26.42 221.118 24.23C221.118 22.64 220.068 21.47 217.968 21.47C216.408 21.47 214.878 22.16 214.008 22.7ZM231.265 41.3V37.82C231.835 37.88 232.045 37.85 233.455 37.73C237.205 37.34 239.365 34.61 240.025 31.16L239.935 31.13C238.975 32.21 237.565 32.9 235.675 32.9C232.165 32.9 229.405 30.23 229.405 26C229.405 21.77 232.345 17.96 236.965 17.96C241.915 17.96 244.465 22.1 244.465 27.53C244.465 35.39 240.385 41.72 231.265 41.3ZM236.815 21.11C235.015 21.11 233.815 23.03 233.815 25.61C233.815 28.28 235.075 29.9 236.875 29.9C238.225 29.9 239.245 29.06 239.725 28.19C239.905 27.86 239.965 27.41 239.965 26.54C239.965 23.51 238.945 21.11 236.815 21.11ZM254.763 33.38H246.543V30.32H254.763V33.38ZM258.237 29.66L259.617 18.29H270.477V21.95H262.767L262.167 26.39C262.587 26.33 262.947 26.3 263.427 26.3C267.387 26.3 271.107 28.52 271.107 33.41C271.107 37.76 267.777 41.33 262.437 41.33C260.187 41.33 258.147 40.76 257.037 40.16L257.907 36.8C258.807 37.28 260.457 37.85 262.197 37.85C264.507 37.85 266.637 36.38 266.637 33.77C266.637 31.04 264.627 29.51 260.787 29.51C259.767 29.51 258.987 29.57 258.237 29.66ZM280.085 37.31H288.425V41H274.235V38.27L276.755 35.57C281.045 31.13 283.565 28.22 283.565 25.16C283.565 23.18 282.515 21.53 280.025 21.53C278.375 21.53 276.845 22.4 275.795 23.18L274.565 20C275.975 18.92 278.315 17.96 280.925 17.96C285.785 17.96 288.005 21.05 288.005 24.74C288.005 28.76 285.275 32.06 281.975 35.39L280.085 37.25V37.31ZM304.243 17.99V21.41C303.673 21.41 303.043 21.47 302.293 21.56C296.353 22.37 295.453 28.07 295.663 28.07C296.653 26.87 298.213 26.06 300.163 26.06C303.673 26.06 306.373 28.73 306.373 33.26C306.373 37.55 303.583 41.33 298.993 41.33C293.863 41.33 291.103 37.22 291.103 31.67C291.103 26.48 293.443 17.99 304.243 17.99ZM298.963 38.12C300.913 38.12 301.963 36.02 301.963 33.47C301.963 31.1 300.823 29.15 298.753 29.15C297.433 29.15 295.513 30.29 295.513 32.84C295.573 35.78 296.773 38.12 298.963 38.12ZM310.191 41.3V37.82C310.761 37.88 310.971 37.85 312.381 37.73C316.131 37.34 318.291 34.61 318.951 31.16L318.861 31.13C317.901 32.21 316.491 32.9 314.601 32.9C311.091 32.9 308.331 30.23 308.331 26C308.331 21.77 311.271 17.96 315.891 17.96C320.841 17.96 323.391 22.1 323.391 27.53C323.391 35.39 319.311 41.72 310.191 41.3ZM315.741 21.11C313.941 21.11 312.741 23.03 312.741 25.61C312.741 28.28 314.001 29.9 315.801 29.9C317.151 29.9 318.171 29.06 318.651 28.19C318.831 27.86 318.891 27.41 318.891 26.54C318.891 23.51 317.871 21.11 315.741 21.11Z" fill="black"/>
</svg>
