<?xml version="1.0" encoding="UTF-8"?><svg id="_레이어_1" xmlns="http://www.w3.org/2000/svg" viewBox="0 0 232.13 257.55"><defs><style>.cls-1{fill:#9fa0a0;stroke-width:0px;}</style></defs><path class="cls-1" d="M192.38,177.41c.23-5.69-.29-11.12-2.08-16.36-2.07-6.05-5.08-11.63-8.9-16.76-3.69-4.97-7.31-9.99-11.13-14.85-3.01-3.83-6.3-7.43-9.44-11.16-5.97-7.09-11.96-14.15-17.85-21.3-3.41-4.15-5.66-8.96-7.43-14.01-2.14-6.11-3.15-12.4-2.83-18.84.35-6.97,1.82-13.67,5.47-19.78,3.3-5.52,7.77-9.82,13.3-13,3.68-2.12,7.8-2.97,11.97-3.62,3.44-.54,6.83-.37,10.25.02,13.31,1.52,25.29,10,29.06,23.36,2.03,7.17,1.13,14.27-4.81,19.4-5.41,4.67-11.92,6.39-19.05,4.04-4.88-1.61-8.87-4.5-12.04-8.52-.05-.06-.11-.12-.14-.2-.18-.58-.35-1.16-.52-1.74.61-.04,1.31-.31,1.81-.09,2.8,1.21,5.43.75,7.92-.71,2.56-1.51,4.25-3.78,5.33-6.57,1.2-3.1,1.46-6.3,1.24-9.55-.45-6.54-5.2-10.97-11.75-11.33-6.15-.33-10.51,2.37-13.58,7.49-4.59,7.67-5.16,15.91-3.24,24.43,1.53,6.8,5.08,12.62,8.97,18.28,2.49,3.62,4.83,7.33,7.36,10.92,1.72,2.45,3.63,4.76,5.48,7.12,2.32,2.95,4.61,5.93,7,8.81,5.17,6.23,10.46,12.37,15.6,18.63,5.81,7.08,10.22,14.93,13.01,23.7,2.18,6.86,3.36,13.81,2.94,21-.55,9.15-2.97,17.7-8.36,25.26-.67.94-1.48,1.78-2.24,2.65-1.23,1.42-2.4,2.9-3.72,4.22-1.32,1.32-2.75,2.55-4.23,3.69-5.02,3.87-10.3,7.31-16.45,9.18-7.58,2.3-15.24,3.94-23.24,3.28-4.93-.41-9.72-1.45-14.37-3.12-.45-.16-.88-.37-1.31-.59-1.99-.99-2.25-1.92-.87-3.63,1.03-1.27,2.18-2.44,3.27-3.66.63-.7,1.36-.77,2.17-.38,1.29.63,2.58,1.27,3.87,1.91,4.34,2.13,8.97,3.09,13.73,2.45,4.61-.62,9.01-2.09,13-4.64,8.25-5.26,12.81-13.11,15.5-22.19,1.28-4.34,1.56-8.88,1.35-13.24Z"/><path class="cls-1" d="M84.65,134.06c-.9-.36-1.88-.6-2.68-1.11-8.1-3.1-21.57,1.48-23.3,14.74-1.47,11.29,1.14,18.86,8.07,25.24,6.42,5.91,13.08,8.2,17.59,8.42,5.75.27,10.24-2.37,13.82-6.66,4.49-5.37,6.62-11.7,7.65-18.57,1.49-9.91.74-19.86.78-29.78.12-29.93.03-59.86.02-89.8,0-2.4.15-4.81-.1-7.19-.19-1.83-.64-3.73-1.42-5.39-1.21-2.58-3.59-3.76-6.36-4.12-.75-.1-1.51-.13-2.27-.21-.93-.1-1.55-.6-1.83-1.49-.23-.72-.47-1.45-.65-2.18-.29-1.15.16-1.87,1.33-2.09.47-.09.95-.07,1.43-.07,12.91.03,25.82.06,38.73.09,2.51,0,4.02,2.01,3.23,4.42-.14.43-.79.87-1.29.98-.96.22-1.98.2-2.98.31-3.16.36-6.89,2.6-7.09,7.19-.07,1.52-.19,3.03-.19,4.55,0,29.65.01,59.3.02,88.96,0,7.31.09,14.63-.04,21.94-.14,8.1-1.39,16.04-5.11,23.33-4.36,8.54-10.67,15.25-19.41,19.56-10.42,5.13-21.25,6.27-32.42,3.31-11.2-3.36-25.76-13.15-29.31-27.63-2.85-11.59-.9-16.88,1.53-22.56,2.78-6.49,7.2-11.64,13.94-14.08,7.47-2.7,15.05-2.94,22.2,1.3,2.94,1.74,4.86,4.45,6.2,7.57.09.21.11.44.16.67-.08.12-.16.23-.24.35Z"/><path class="cls-1" d="M136.87,250.83c-16.24,0-31.82-3.14-46.16-8.83,21.76-9.09,37.86-15.49,51.52-31.57,23.23-27.36,17.91-64.21,16.13-81.32-8.13,23.07-36.22,41.4-49.06,64.88-13.08,23.93-10.04,31.21-21.4,46.48-3.25-12.23.93-21.07-8.92-36.12-11.36-17.36-28.07-17.24-41.9-34.97-.98,7.06,9.28,36.22,24.34,50.49,8.06,7.64,13.65,13.05,17.48,16.72C38.27,215.36,10.21,172.75,10.21,124.18,10.21,61.34,57.34,9.28,117.57,0,51.68,5.8,0,61.12,0,128.52,0,199.78,57.77,257.55,129.03,257.55c42.14,0,79.55-20.2,103.1-51.44-23.04,26.77-57.17,44.72-95.26,44.72Z"/></svg>