<svg width="812" height="262" viewBox="0 0 812 262" fill="none" xmlns="http://www.w3.org/2000/svg">
<path d="M286.32 30.96H289.64V67.12H286.32V30.96ZM260.88 34.84H281.36V37.56H260.88V34.84ZM260.32 58.2L259.92 55.36C266.64 55.36 275.52 55.28 283.2 54.36L283.4 56.8C275.6 58.04 266.92 58.16 260.32 58.2ZM264.88 36.88H268.08V56.12H264.88V36.88ZM274.12 36.88H277.36V56.12H274.12V36.88ZM296.757 52.36H329.557V55.08H296.757V52.36ZM311.397 53.64H314.677V67.12H311.397V53.64ZM300.877 32.4H304.197V37.36H322.077V32.4H325.357V48.04H300.877V32.4ZM304.197 40.04V45.36H322.077V40.04H304.197ZM335.634 34.48H352.274V58.04H335.634V34.48ZM349.034 37.16H338.874V55.36H349.034V37.16ZM359.834 30.92H363.154V67.16H359.834V30.92ZM378.431 43.2H381.711V50.04H378.431V43.2ZM391.711 43.2H394.991V50.04H391.711V43.2ZM370.351 48.84H403.031V51.52H370.351V48.84ZM386.671 54.24C394.431 54.24 399.071 56.52 399.071 60.64C399.071 64.76 394.431 67.08 386.671 67.08C378.911 67.08 374.271 64.76 374.271 60.64C374.271 56.52 378.911 54.24 386.671 54.24ZM386.671 56.8C381.031 56.8 377.631 58.2 377.631 60.64C377.631 63.12 381.031 64.48 386.671 64.48C392.351 64.48 395.711 63.12 395.711 60.64C395.711 58.2 392.351 56.8 386.671 56.8ZM386.711 31.6C394.551 31.6 399.431 34.12 399.431 38.36C399.431 42.56 394.551 45.04 386.711 45.04C378.831 45.04 373.991 42.56 373.991 38.36C373.991 34.12 378.831 31.6 386.711 31.6ZM386.711 34.2C380.951 34.2 377.391 35.72 377.391 38.36C377.391 40.96 380.951 42.48 386.711 42.48C392.471 42.48 396.031 40.96 396.031 38.36C396.031 35.72 392.471 34.2 386.711 34.2ZM435.293 40.92H444.413V43.64H435.293V40.92ZM442.533 31H445.853V57.48H442.533V31ZM422.773 63.6H446.853V66.32H422.773V63.6ZM422.773 55.16H426.093V65H422.773V55.16ZM425.333 35.48H428.053V38.4C428.053 44.96 423.973 50.64 417.933 52.88L416.213 50.24C421.613 48.32 425.333 43.52 425.333 38.4V35.48ZM425.973 35.48H428.653V38.36C428.653 43.04 432.173 47.6 437.413 49.44L435.733 52.04C429.853 49.92 425.973 44.48 425.973 38.36V35.48ZM417.253 33.92H436.573V36.6H417.253V33.92ZM452.89 49.44H485.65V52.16H452.89V49.44ZM467.85 51.12H471.17V59.44H467.85V51.12ZM457.09 32.64H481.41V45.36H457.09V32.64ZM478.13 35.32H460.33V42.68H478.13V35.32ZM457.05 63.6H482.01V66.32H457.05V63.6ZM457.05 55.96H460.33V64.56H457.05V55.96ZM493.087 34.56H516.367V37.32H493.087V34.56ZM489.727 59.32H522.407V62.08H489.727V59.32ZM497.727 47.36H501.007V60.32H497.727V47.36ZM515.287 34.56H518.567V38.56C518.567 43.16 518.567 47.88 517.327 54.64L514.007 54.24C515.287 47.84 515.287 43.04 515.287 38.56V34.56ZM506.647 47.36H509.927V60.32H506.647V47.36ZM535.123 49.68H538.443V56.8H535.123V49.68ZM547.283 49.64H550.563V56.8H547.283V49.64ZM526.483 48.36H559.163V51.08H526.483V48.36ZM530.123 55.6H555.123V67.12H551.803V58.28H530.123V55.6ZM542.843 31.8C550.643 31.8 555.563 34.4 555.563 38.72C555.563 43.04 550.643 45.64 542.843 45.64C535.003 45.64 530.123 43.04 530.123 38.72C530.123 34.4 535.003 31.8 542.843 31.8ZM542.843 34.44C537.083 34.44 533.523 36 533.523 38.72C533.523 41.4 537.083 43 542.843 43C548.563 43 552.163 41.4 552.163 38.72C552.163 36 548.563 34.44 542.843 34.44ZM589.64 30.96H592.96V67.12H589.64V30.96ZM579.04 34.84H582.32C582.32 45.32 577.6 54.48 565.52 60.4L563.76 57.72C574.2 52.68 579.04 45 579.04 35.4V34.84ZM565.4 34.84H580.48V37.56H565.4V34.84ZM602.037 33.76H618.037V36.48H602.037V33.76ZM607.477 41.84H610.757V50.88H607.477V41.84ZM616.717 33.76H619.997V35.68C619.997 38.04 619.997 41.64 619.037 46.4L615.797 46.04C616.717 41.28 616.717 38 616.717 35.68V33.76ZM624.917 30.96H628.237V58.2H624.917V30.96ZM626.717 42.72H633.397V45.48H626.717V42.72ZM605.397 63.6H629.397V66.32H605.397V63.6ZM605.397 55.68H608.677V64.44H605.397V55.68ZM600.197 52.44L599.837 49.72C606.277 49.72 615.157 49.56 622.477 48.56L622.717 50.96C615.197 52.28 606.557 52.44 600.197 52.44Z" fill="#010101"/>
<path d="M330.86 86.03V133H261.56V86.03H278.94V103.19H313.37V86.03H330.86ZM322.17 151.37V180.3H308.42C305.927 180.3 304.68 179.053 304.68 176.56V151.37H287.74V180.3H273.88C271.387 180.3 270.14 179.053 270.14 176.56V151.37H254.3V144.99H338.12V151.37H322.17ZM313.37 126.62V109.57H278.94V126.62H313.37ZM398.869 170.07H349.589V86.58H395.239V92.96H366.969V124.31H393.589V130.8H366.969V163.69H398.869V170.07ZM423.509 180.63H410.309C407.816 180.63 406.569 179.383 406.569 176.89V83.83H423.509V180.63ZM437.874 128.93C437.874 119.397 438.534 111.733 439.854 105.94C441.247 100.147 443.117 95.71 445.464 92.63C447.81 89.4767 450.56 87.4233 453.714 86.47C456.867 85.4433 460.277 84.93 463.944 84.93C467.61 84.93 470.984 85.4433 474.064 86.47C477.217 87.4233 479.93 89.4767 482.204 92.63C484.477 95.71 486.237 100.147 487.484 105.94C488.804 111.733 489.464 119.397 489.464 128.93C489.464 138.463 488.804 146.127 487.484 151.92C486.237 157.64 484.477 162.077 482.204 165.23C479.93 168.31 477.217 170.327 474.064 171.28C470.984 172.307 467.61 172.82 463.944 172.82C460.35 172.82 456.977 172.307 453.824 171.28C450.67 170.327 447.884 168.31 445.464 165.23C443.117 162.077 441.247 157.64 439.854 151.92C438.534 146.127 437.874 138.463 437.874 128.93ZM454.704 128.93C454.704 137.217 454.887 143.817 455.254 148.73C455.62 153.643 456.17 157.42 456.904 160.06C457.71 162.7 458.664 164.423 459.764 165.23C460.937 166.037 462.33 166.44 463.944 166.44C465.557 166.44 466.914 166.037 468.014 165.23C469.187 164.423 470.14 162.7 470.874 160.06C471.68 157.42 472.267 153.643 472.634 148.73C473 143.817 473.184 137.217 473.184 128.93C473.184 120.717 473 114.153 472.634 109.24C472.267 104.253 471.68 100.44 470.874 97.8C470.14 95.16 469.187 93.4367 468.014 92.63C466.914 91.75 465.557 91.31 463.944 91.31C462.33 91.31 460.937 91.7867 459.764 92.74C458.664 93.62 457.71 95.4167 456.904 98.13C456.17 100.843 455.62 104.657 455.254 109.57C454.887 114.483 454.704 120.937 454.704 128.93ZM527.194 130.69H515.754V180.63H502.444C499.95 180.63 498.704 179.383 498.704 176.89V83.83H515.754V124.31H527.194V130.69ZM620.758 130.69H609.318V180.63H596.008C593.515 180.63 592.268 179.383 592.268 176.89V83.83H609.318V124.31H620.758V130.69ZM533.088 86.69H572.578C574.485 86.69 575.878 87.13 576.758 88.01C577.711 88.89 578.188 90.5033 578.188 92.85V116.5C578.188 124.127 576.868 131.13 574.228 137.51C571.661 143.89 568.215 149.537 563.888 154.45C559.561 159.363 554.611 163.47 549.038 166.77C543.465 170.143 537.708 172.563 531.768 174.03L530.008 170.29C534.628 168.383 538.735 165.89 542.328 162.81C545.921 159.73 548.965 156.283 551.458 152.47C554.025 148.583 556.078 144.44 557.618 140.04C559.231 135.64 560.368 131.167 561.028 126.62H535.288V120.24H561.688C561.761 119.653 561.798 119.103 561.798 118.59C561.798 118.003 561.798 117.417 561.798 116.83V93.07H533.088V86.69ZM664.823 170.51H626.873V87.02H663.283V93.4H642.933V164.13H664.823V170.51ZM686.933 181.07H675.823C673.329 181.07 672.083 179.823 672.083 177.33V129.15H654.263V122.55H672.083V84.27H686.933V181.07ZM708.273 181.07H697.163C694.669 181.07 693.423 179.823 693.423 177.33V84.27H708.273V181.07ZM768.507 170.07H720.657V86.58H764.987C766.307 86.58 767.224 86.8733 767.737 87.46C768.25 88.0467 768.507 89.0733 768.507 90.54V170.07ZM737.487 163.69H752.227V92.96H737.487V163.69ZM796.887 180.63H783.577C781.084 180.63 779.837 179.383 779.837 176.89V83.83H796.887V180.63Z" fill="black"/>
<path d="M193.231 180.72L193.273 179.68C193.499 174.066 192.985 168.756 191.247 163.654C189.213 157.698 186.255 152.2 182.495 147.139L182.495 147.137C181.562 145.879 180.636 144.619 179.711 143.361C176.967 139.629 174.235 135.914 171.388 132.283L171.388 132.283C169.457 129.821 167.427 127.474 165.377 125.104C164.244 123.794 163.105 122.477 161.974 121.13C160.753 119.676 159.531 118.224 158.308 116.771C153.561 111.129 148.812 105.485 144.127 99.7844L144.126 99.7835C140.615 95.5006 138.319 90.5615 136.53 85.4451L136.53 85.4449C134.352 79.2129 133.32 72.7832 133.647 66.1926L133.647 66.192C134.002 59.1029 135.497 52.2179 139.253 45.9155L139.254 45.9153C142.643 40.2334 147.236 35.8064 152.905 32.5388C156.754 30.316 161.031 29.444 165.213 28.7906C168.781 28.2293 172.272 28.4101 175.726 28.805L175.726 28.805C189.359 30.3655 201.722 39.0881 205.619 52.9283C207.717 60.3561 206.822 67.9199 200.503 73.3893L200.503 73.3895C194.86 78.2722 187.992 80.1061 180.496 77.6298L180.496 77.6297C175.427 75.9536 171.282 72.9427 168.001 68.777C168 68.7759 167.999 68.7747 167.998 68.7733C167.994 68.7689 167.988 68.7622 167.978 68.7499C167.961 68.7307 167.934 68.6991 167.906 68.6616C167.848 68.5864 167.762 68.4629 167.7 68.2955L167.69 68.2684L167.681 68.2408C167.499 67.6531 167.328 67.0665 167.159 66.4887L167.157 66.4827L166.807 65.2859L168.051 65.2042C168.148 65.1978 168.263 65.1811 168.416 65.1547C168.45 65.1488 168.488 65.142 168.529 65.1347C168.648 65.1134 168.789 65.0883 168.92 65.0694C169.254 65.0215 169.799 64.9646 170.325 65.1951C172.765 66.2512 175.055 65.8782 177.334 64.5389C179.66 63.1631 181.22 61.0885 182.235 58.4589C183.367 55.5292 183.623 52.4794 183.41 49.3198C182.996 43.299 178.678 39.2357 172.61 38.9012C169.703 38.7449 167.272 39.3068 165.218 40.4759C163.159 41.6482 161.417 43.4667 159.95 45.9184L193.231 180.72ZM193.231 180.72H193.331M193.231 180.72L194.283 179.72M144.9 99.1495C149.581 104.845 154.325 110.484 159.072 116.126C160.295 117.579 161.518 119.032 162.74 120.487C163.851 121.809 164.98 123.116 166.11 124.422C168.171 126.805 170.231 129.188 172.174 131.666C175.032 135.31 177.777 139.044 180.524 142.779L144.9 99.1495ZM144.9 99.1495C141.492 94.9922 139.243 90.1738 137.474 85.115L144.9 99.1495ZM194.283 179.72L194.272 179.721L193.293 179.768C193.308 180.085 193.321 180.402 193.331 180.72M194.283 179.72L194.272 179.72V178.72H194.292H194.305C194.437 173.383 193.877 168.273 192.193 163.331L194.283 179.72ZM193.331 180.72C193.453 184.716 193.13 188.804 191.983 192.701M193.331 180.72L191.983 192.701M191.983 192.701C189.338 201.649 184.892 209.27 176.913 214.369L176.912 214.37C173.062 216.836 168.807 218.265 164.325 218.869C159.795 219.479 155.368 218.569 151.18 216.51C149.892 215.869 148.6 215.227 147.308 214.594L147.303 214.592C146.776 214.337 146.183 214.189 145.563 214.285C144.93 214.384 144.393 214.718 143.956 215.205L143.953 215.208C143.613 215.59 143.255 215.979 142.891 216.374C142.138 217.192 141.36 218.038 140.654 218.91L140.653 218.912C139.947 219.789 139.368 220.796 139.633 221.868C139.891 222.914 140.848 223.568 141.85 224.068C142.283 224.29 142.759 224.525 143.272 224.708C143.273 224.708 143.274 224.708 143.275 224.709L143.61 223.767M191.983 192.701L202.576 211.42C203.558 210.436 204.473 209.35 205.355 208.302C205.687 207.908 206.015 207.52 206.34 207.144L205.586 206.487M143.61 223.767C148.258 225.44 153.045 226.482 157.972 226.892C165.968 227.553 173.624 225.911 181.199 223.607C187.346 221.733 192.623 218.287 197.64 214.411M143.61 223.767C143.161 223.607 142.731 223.396 142.301 223.176L143.61 223.767ZM197.64 214.411L198.251 215.202C198.251 215.202 198.251 215.202 198.252 215.202L197.64 214.411ZM197.64 214.411C199.119 213.269 200.549 212.036 201.868 210.714C202.818 209.762 203.691 208.726 204.564 207.689C204.903 207.287 205.242 206.884 205.586 206.487M205.586 206.487L206.342 207.141C206.514 206.943 206.695 206.741 206.881 206.533C207.468 205.876 208.102 205.167 208.639 204.412M205.586 206.487C205.776 206.268 205.97 206.051 206.164 205.834C206.743 205.187 207.323 204.538 207.824 203.832M207.824 203.832L208.639 204.412C208.639 204.412 208.639 204.412 208.639 204.412M207.824 203.832L208.639 204.412M207.824 203.832C213.211 196.259 215.63 187.694 216.18 178.528C216.6 171.325 215.42 164.363 213.241 157.491C210.453 148.706 206.045 140.842 200.239 133.75C197.352 130.227 194.419 126.741 191.486 123.257C189.199 120.539 186.911 117.822 184.647 115.087C182.81 112.868 181.032 110.589 179.253 108.311C178.72 107.627 178.186 106.944 177.651 106.262M208.639 204.412C214.159 196.653 216.62 187.895 217.178 178.588L217.178 178.586C217.607 171.234 216.401 164.148 214.195 157.189L214.195 157.189C211.365 148.274 206.893 140.299 201.012 133.116L201.012 133.116C198.128 129.595 195.182 126.095 192.241 122.601C189.953 119.882 187.668 117.167 185.418 114.45C183.59 112.243 181.824 109.98 180.048 107.703C179.513 107.018 178.977 106.332 178.439 105.645M178.439 105.645C178.439 105.645 178.439 105.646 178.439 105.646L177.651 106.262M178.439 105.645C177.97 105.046 177.501 104.454 177.034 103.865C175.639 102.105 174.267 100.373 172.994 98.5557L172.992 98.5543C171.567 96.5267 170.228 94.5005 168.88 92.46C167.822 90.8596 166.759 89.2504 165.643 87.6248M178.439 105.645C178.438 105.645 178.438 105.645 178.438 105.645L177.651 106.262M177.651 106.262C177.192 105.674 176.728 105.089 176.265 104.504L165.643 87.6248M165.643 87.6248C161.767 81.9714 158.314 76.2738 156.829 69.6594L156.829 69.6591C154.952 61.3112 155.524 53.3321 159.95 45.9186L165.643 87.6248ZM165.643 87.6248L164.819 88.1904M165.643 87.6248C165.643 87.6247 165.643 87.6246 165.643 87.6245L164.819 88.1904M164.819 88.1904C160.931 82.5205 157.383 76.6903 155.854 69.8784L164.819 88.1904ZM192.943 192.983C194.222 188.636 194.502 184.088 194.292 179.721L192.943 192.983Z" fill="#FABE00" stroke="white" stroke-width="2"/>
<path d="M86.4096 137.294L86.2304 137.222C85.9669 137.117 85.725 137.032 85.4623 136.941C85.2823 136.878 85.0924 136.811 84.8791 136.733C84.4305 136.567 83.9417 136.366 83.4781 136.083C79.739 134.684 74.695 135.021 70.3592 137.304C66.0264 139.586 62.4476 143.787 61.6288 150.077C60.9074 155.631 61.1967 160.197 62.4727 164.126C63.7458 168.046 66.0226 171.399 69.3808 174.497C75.645 180.277 82.0837 182.46 86.3298 182.668C91.6847 182.92 95.8926 180.48 99.3265 176.355L99.3271 176.355C103.658 171.163 105.739 165.017 106.752 158.245L106.752 158.244C107.839 150.994 107.719 143.753 107.597 136.423C107.553 133.814 107.51 131.193 107.52 128.557C107.607 106.849 107.584 85.1427 107.561 63.4295C107.552 55.1555 107.543 46.8806 107.54 38.6042V38.6039C107.54 37.9094 107.552 37.2301 107.563 36.5611C107.593 34.8331 107.621 33.1746 107.446 31.5055L107.446 31.5043C107.264 29.7536 106.837 27.9645 106.116 26.4263L106.115 26.4257C105.101 24.2588 103.103 23.2008 100.536 22.8663L100.532 22.8659C100.1 22.8081 99.72 22.7791 99.3123 22.7479C99.0003 22.7241 98.6719 22.699 98.291 22.6588L98.2888 22.6585C97.668 22.5916 97.0884 22.3826 96.6065 21.9903C96.1245 21.5978 95.8019 21.0722 95.6135 20.4733C95.5905 20.4009 95.5671 20.3278 95.5436 20.2542C95.3375 19.6098 95.117 18.9201 94.9468 18.2286C94.7644 17.5016 94.7689 16.7229 95.1895 16.0575C95.6119 15.389 96.3165 15.0522 97.0598 14.9118C97.5629 14.8155 98.081 14.8197 98.4817 14.823C98.55 14.8236 98.615 14.8241 98.6758 14.8241H98.6781L137.384 14.9143C137.385 14.9143 137.385 14.9143 137.385 14.9143L137.386 14.9143L137.384 15.9143C139.893 15.9143 141.402 17.9278 140.612 20.342L86.4096 137.294ZM86.4096 137.294H86.6026M86.4096 137.294H86.6026M86.6026 137.294H86.6126H87.1484L87.4452 136.848C87.4788 136.798 87.5132 136.748 87.554 136.689C87.5731 136.662 87.5936 136.632 87.615 136.601C87.6377 136.568 87.6613 136.533 87.6851 136.497L87.9194 136.145L87.8297 135.732C87.8152 135.665 87.8099 135.633 87.803 135.593C87.7963 135.553 87.788 135.505 87.7681 135.405C87.7405 135.266 87.6969 135.078 87.612 134.879L87.6117 134.879M86.6026 137.294L87.6117 134.879M87.6117 134.879C86.2204 131.632 84.1852 128.715 81.0062 126.829L87.6117 134.879ZM140.694 21.7593C141.003 21.5326 141.397 21.1602 141.563 20.6528L123.942 167.859C127.66 160.557 128.909 152.603 129.049 144.489L130.049 144.506C130.049 144.506 130.049 144.506 130.049 144.506C130.141 139.297 130.122 134.079 130.104 128.874C130.096 126.75 130.089 124.628 130.089 122.51V122.51L130.089 122.411C130.079 92.7324 130.069 63.0636 130.069 33.3948C130.069 32.3511 130.126 31.3275 130.185 30.2704C130.21 29.8155 130.236 29.3543 130.258 28.8827L130.258 28.8802C130.429 24.943 133.598 22.9551 136.456 22.628C136.782 22.5922 137.097 22.572 137.436 22.5502C137.592 22.5402 137.752 22.5299 137.921 22.5177C138.433 22.4805 138.988 22.4264 139.543 22.2992C139.952 22.2081 140.363 22.0019 140.694 21.7593Z" fill="#6B1685" stroke="white" stroke-width="2"/>
<mask id="path-5-outside-1_503_2" maskUnits="userSpaceOnUse" x="0" y="0" width="236" height="262" fill="black">
<rect fill="white" width="236" height="262"/>
<path fill-rule="evenodd" clip-rule="evenodd" d="M92.6594 244.418C106.987 250.125 122.558 253.268 138.793 253.268C176.862 253.268 210.973 235.287 234 208.47C210.463 239.765 173.074 260 130.958 260C59.7376 260 2 202.129 2 130.745C2 63.2268 53.6511 7.81013 119.504 2C59.3079 11.2962 12.2043 63.4472 12.2143 126.397C12.2143 175.044 40.244 217.74 80.8423 238.988C80.0566 238.232 79.1963 237.402 78.2552 236.495C74.6185 232.987 69.7757 228.316 63.3753 222.244C48.3238 207.949 38.0695 178.738 39.049 171.666C45.7715 180.304 53.1749 184.713 60.3129 188.963C67.8514 193.452 75.0938 197.765 80.9255 206.697C87.3635 216.556 87.8046 223.755 88.2474 230.983C88.4817 234.808 88.7165 238.641 89.8405 242.88C95.8319 234.808 97.8155 228.965 100.274 221.723C102.474 215.242 105.054 207.641 111.229 196.319C117.02 185.704 125.916 176.14 134.681 166.716C145.338 155.257 155.803 144.006 160.261 131.326L160.271 131.336C160.358 132.169 160.452 133.05 160.552 133.974C162.5 152.044 166.238 186.723 144.15 212.798C130.935 228.403 115.424 234.892 94.6982 243.564C94.0241 243.846 93.3446 244.131 92.6594 244.418Z"/>
</mask>
<path fill-rule="evenodd" clip-rule="evenodd" d="M92.6594 244.418C106.987 250.125 122.558 253.268 138.793 253.268C176.862 253.268 210.973 235.287 234 208.47C210.463 239.765 173.074 260 130.958 260C59.7376 260 2 202.129 2 130.745C2 63.2268 53.6511 7.81013 119.504 2C59.3079 11.2962 12.2043 63.4472 12.2143 126.397C12.2143 175.044 40.244 217.74 80.8423 238.988C80.0566 238.232 79.1963 237.402 78.2552 236.495C74.6185 232.987 69.7757 228.316 63.3753 222.244C48.3238 207.949 38.0695 178.738 39.049 171.666C45.7715 180.304 53.1749 184.713 60.3129 188.963C67.8514 193.452 75.0938 197.765 80.9255 206.697C87.3635 216.556 87.8046 223.755 88.2474 230.983C88.4817 234.808 88.7165 238.641 89.8405 242.88C95.8319 234.808 97.8155 228.965 100.274 221.723C102.474 215.242 105.054 207.641 111.229 196.319C117.02 185.704 125.916 176.14 134.681 166.716C145.338 155.257 155.803 144.006 160.261 131.326L160.271 131.336C160.358 132.169 160.452 133.05 160.552 133.974C162.5 152.044 166.238 186.723 144.15 212.798C130.935 228.403 115.424 234.892 94.6982 243.564C94.0241 243.846 93.3446 244.131 92.6594 244.418Z" fill="#6FBA2C"/>
<path d="M92.6594 244.418L91.8866 242.573L87.3718 244.464L91.9193 246.276L92.6594 244.418ZM234 208.47L235.598 209.672L232.483 207.167L234 208.47ZM119.504 2L119.809 3.97657L119.328 0.00773919L119.504 2ZM12.2143 126.397H14.2143V126.397L12.2143 126.397ZM80.8423 238.988L79.9149 240.76L82.2291 237.547L80.8423 238.988ZM78.2552 236.495L79.6436 235.055L78.2552 236.495ZM63.3753 222.244L61.998 223.694L61.9988 223.695L63.3753 222.244ZM39.049 171.666L40.6273 170.438L37.7178 166.699L37.0679 171.392L39.049 171.666ZM60.3129 188.963L59.2897 190.681H59.2897L60.3129 188.963ZM80.9255 206.697L79.2508 207.79L79.2509 207.79L80.9255 206.697ZM88.2474 230.983L90.2437 230.861L88.2474 230.983ZM89.8405 242.88L87.9073 243.393L88.9715 247.407L91.4465 244.072L89.8405 242.88ZM100.274 221.723L102.168 222.366L100.274 221.723ZM111.229 196.319L109.473 195.361L109.473 195.361L111.229 196.319ZM134.681 166.716L136.145 168.078L134.681 166.716ZM160.261 131.326L161.677 129.913L159.43 127.659L158.374 130.662L160.261 131.326ZM160.271 131.336L162.26 131.129L162.187 130.425L161.687 129.924L160.271 131.336ZM160.552 133.974L162.541 133.76V133.76L160.552 133.974ZM144.15 212.798L142.624 211.505L142.624 211.505L144.15 212.798ZM94.6982 243.564L95.4701 245.409H95.4701L94.6982 243.564ZM138.793 251.268C122.818 251.268 107.498 248.175 93.3995 242.56L91.9193 246.276C106.476 252.074 122.298 255.268 138.793 255.268V251.268ZM232.483 207.167C209.794 233.59 176.218 251.268 138.793 251.268V255.268C177.506 255.268 212.152 236.984 235.517 209.773L232.483 207.167ZM130.958 262C173.731 262 211.701 241.446 235.598 209.672L232.402 207.268C209.226 238.083 172.418 258 130.958 258V262ZM0 130.745C0 203.229 58.6287 262 130.958 262V258C60.8466 258 4 201.029 4 130.745H0ZM119.328 0.00773919C52.4484 5.90847 0 62.1847 0 130.745H4C4 64.2689 54.8537 9.7118 119.68 3.99226L119.328 0.00773919ZM14.2143 126.397C14.2044 64.4681 60.554 13.1275 119.809 3.97657L119.199 0.0234308C58.0618 9.46495 10.2041 62.4263 10.2143 126.397L14.2143 126.397ZM81.7697 237.216C41.796 216.295 14.2143 174.262 14.2143 126.397H10.2143C10.2143 175.827 38.6919 219.185 79.9149 240.76L81.7697 237.216ZM76.8667 237.934C77.8077 238.842 78.6689 239.672 79.4556 240.429L82.2291 237.547C81.4444 236.792 80.5849 235.963 79.6436 235.055L76.8667 237.934ZM61.9988 223.695C68.3929 229.761 73.2307 234.427 76.8667 237.934L79.6436 235.055C76.0062 231.547 71.1586 226.871 64.7519 220.793L61.9988 223.695ZM37.0679 171.392C36.7623 173.598 37.3284 177.099 38.3881 181.059C39.4758 185.124 41.1708 189.978 43.3655 195.042C47.7374 205.129 54.1941 216.283 61.998 223.694L64.7526 220.794C57.505 213.911 51.3088 203.311 47.0356 193.451C44.9077 188.541 43.282 183.874 42.2521 180.025C41.1943 176.072 40.8459 173.27 41.0301 171.94L37.0679 171.392ZM61.3362 187.245C54.2019 182.996 47.0967 178.75 40.6273 170.438L37.4706 172.894C44.4463 181.858 52.1479 186.429 59.2897 190.681L61.3362 187.245ZM82.6002 205.604C76.4888 196.243 68.867 191.729 61.3362 187.245L59.2897 190.681C66.8358 195.175 73.6988 199.286 79.2508 207.79L82.6002 205.604ZM90.2437 230.861C89.7947 223.533 89.328 215.907 82.6001 205.604L79.2509 207.79C85.399 217.206 85.8144 223.977 86.2511 231.106L90.2437 230.861ZM91.7737 242.368C90.7073 238.345 90.4788 234.699 90.2437 230.861L86.2511 231.106C86.4846 234.917 86.7258 238.936 87.9073 243.393L91.7737 242.368ZM98.38 221.08C95.9361 228.279 94.0324 233.877 88.2345 241.688L91.4465 244.072C97.6314 235.739 99.6949 229.65 102.168 222.366L98.38 221.08ZM109.473 195.361C103.217 206.833 100.593 214.56 98.38 221.08L102.168 222.366C104.355 215.924 106.892 208.449 112.984 197.276L109.473 195.361ZM133.216 165.353C124.49 174.736 115.407 184.485 109.473 195.361L112.984 197.277C118.633 186.923 127.341 177.544 136.145 168.078L133.216 165.353ZM158.374 130.662C154.082 142.871 143.956 153.807 133.216 165.353L136.145 168.078C146.72 156.708 157.523 145.142 162.148 131.989L158.374 130.662ZM161.687 129.924L161.677 129.913L158.845 132.738L158.855 132.748L161.687 129.924ZM162.541 133.76C162.441 132.835 162.346 131.958 162.26 131.129L158.282 131.542C158.369 132.38 158.464 133.265 158.564 134.188L162.541 133.76ZM145.676 214.09C168.39 187.277 164.477 151.723 162.541 133.76L158.564 134.188C160.523 152.366 164.086 186.169 142.624 211.505L145.676 214.09ZM95.4701 245.409C116.141 236.76 132.105 230.115 145.676 214.09L142.624 211.505C129.764 226.69 114.707 233.024 93.9262 241.719L95.4701 245.409ZM93.4322 246.262C94.1169 245.975 94.796 245.691 95.4701 245.409L93.9262 241.719C93.2522 242.001 92.5723 242.286 91.8866 242.573L93.4322 246.262Z" fill="white" mask="url(#path-5-outside-1_503_2)"/>
<path d="M261.713 230.135C262.285 230.135 262.828 230.02 263.343 229.792C263.858 229.591 264.301 229.205 264.673 228.633C265.074 228.09 265.374 227.332 265.574 226.36C265.803 225.416 265.917 224.215 265.917 222.756V193.755H272.61V219.367C272.61 221.426 272.295 223.199 271.666 224.686C271.065 226.202 270.136 227.561 268.877 228.762C267.991 229.62 266.99 230.292 265.874 230.778C264.759 231.264 263.515 231.508 262.142 231.508C261.198 231.508 260.297 231.336 259.439 230.993C258.581 230.678 257.866 230.106 257.294 229.277L258.195 228.462C258.681 229.119 259.239 229.563 259.868 229.792C260.497 230.02 261.112 230.135 261.713 230.135ZM286.965 222.756C289.081 222.756 290.454 221.998 291.083 220.482C291.226 220.11 291.355 219.724 291.47 219.324C291.584 218.923 291.67 218.466 291.727 217.951C291.813 217.408 291.87 216.764 291.899 216.021C291.956 215.277 291.984 214.376 291.984 213.318C291.984 212.26 291.956 211.373 291.899 210.658C291.87 209.914 291.813 209.271 291.727 208.728C291.67 208.184 291.584 207.712 291.47 207.312C291.355 206.911 291.226 206.525 291.083 206.154C290.454 204.638 289.081 203.88 286.965 203.88C284.563 203.88 283.09 204.824 282.546 206.711C282.461 207.083 282.375 207.455 282.289 207.827C282.203 208.198 282.132 208.627 282.074 209.114C282.046 209.6 282.017 210.186 281.989 210.873C281.96 211.53 281.946 212.345 281.946 213.318C281.946 214.29 281.96 215.12 281.989 215.806C282.017 216.464 282.046 217.05 282.074 217.565C282.132 218.051 282.203 218.48 282.289 218.852C282.375 219.224 282.461 219.596 282.546 219.967C283.09 221.826 284.563 222.756 286.965 222.756ZM286.965 224.644C285.077 224.644 283.404 224.443 281.946 224.043C280.487 223.671 279.257 222.985 278.256 221.984C277.255 220.983 276.497 219.753 275.983 218.294C275.496 216.807 275.253 215.148 275.253 213.318C275.253 209.714 276.269 206.926 278.299 204.952C280.301 202.979 283.19 201.992 286.965 201.992C290.712 201.992 293.6 202.979 295.631 204.952C297.661 206.926 298.677 209.714 298.677 213.318C298.677 216.95 297.676 219.753 295.674 221.726C293.7 223.671 290.797 224.644 286.965 224.644ZM309.184 224H303.692C303.378 224 303.135 223.986 302.963 223.957C302.791 223.928 302.663 223.871 302.577 223.785C302.52 223.7 302.491 223.571 302.491 223.399C302.491 223.228 302.491 222.985 302.491 222.67V192.168H309.184V224ZM321.71 224H316.219C315.904 224 315.661 223.986 315.489 223.957C315.318 223.928 315.189 223.871 315.103 223.785C315.046 223.7 315.018 223.571 315.018 223.399C315.018 223.228 315.018 222.985 315.018 222.67V192.168H321.71V224ZM324.428 202.207H330.692C330.892 202.207 331.092 202.25 331.292 202.335C331.521 202.421 331.707 202.636 331.85 202.979L336.912 215.677L342.06 202.207H344.677C344.334 203.036 343.891 204.123 343.347 205.467C342.804 206.811 342.203 208.299 341.546 209.929C340.888 211.559 340.201 213.275 339.486 215.077C338.771 216.85 338.056 218.609 337.341 220.353C336.626 222.098 335.94 223.757 335.282 225.33C334.653 226.903 334.081 228.29 333.566 229.491C333.166 230.435 332.565 231.136 331.764 231.593C330.992 232.08 330.148 232.337 329.233 232.366C328.432 232.394 327.746 232.337 327.174 232.194C326.631 232.051 326.073 231.822 325.501 231.508L326.23 229.663C327.26 230.206 328.204 230.449 329.062 230.392C329.548 230.364 330.005 230.235 330.434 230.006C330.892 229.806 331.25 229.391 331.507 228.762L333.523 223.957L324.428 202.207ZM374.751 205.296C374.15 204.981 373.392 204.681 372.477 204.395C371.591 204.08 370.361 203.923 368.788 203.923C367.243 203.923 366.071 204.18 365.27 204.695C364.498 205.181 364.112 205.753 364.112 206.411C364.112 206.84 364.212 207.212 364.412 207.526C364.612 207.812 364.87 208.07 365.184 208.299C365.527 208.527 365.885 208.742 366.257 208.942C366.657 209.114 367.043 209.285 367.415 209.457C368.53 209.943 369.56 210.401 370.504 210.83C371.448 211.23 372.334 211.659 373.164 212.117C374.479 212.832 375.552 213.632 376.381 214.519C377.21 215.406 377.625 216.421 377.625 217.565C377.625 219.796 376.796 221.54 375.137 222.799C373.478 224.029 370.961 224.644 367.587 224.644C366.128 224.644 364.669 224.372 363.211 223.828C361.752 223.285 360.494 222.599 359.436 221.769L360.594 220.053C361.652 220.911 362.796 221.583 364.026 222.069C365.284 222.527 366.471 222.756 367.587 222.756C369.017 222.756 370.06 222.513 370.718 222.027C371.376 221.54 371.748 220.954 371.834 220.268C371.948 219.438 371.762 218.752 371.276 218.208C370.818 217.636 370.175 217.122 369.345 216.664C368.459 216.178 367.515 215.706 366.514 215.248C365.513 214.791 364.483 214.319 363.425 213.833C362.825 213.547 362.253 213.232 361.709 212.889C361.166 212.546 360.694 212.16 360.294 211.731C359.893 211.273 359.579 210.772 359.35 210.229C359.121 209.657 359.007 209.028 359.007 208.341C359.007 207.026 359.307 205.953 359.907 205.124C360.508 204.295 361.28 203.651 362.224 203.193C363.168 202.707 364.197 202.393 365.313 202.25C366.457 202.078 367.572 201.992 368.659 201.992C369.774 201.992 370.947 202.121 372.177 202.378C373.407 202.607 374.508 203.008 375.48 203.58L374.751 205.296ZM403.085 202.207L396.092 210.015L403.171 224H397.465C397.179 224 396.922 223.943 396.693 223.828C396.493 223.685 396.278 223.414 396.049 223.013L391.845 214.819L388.113 218.981V224H382.493C382.064 224 381.778 223.886 381.635 223.657C381.492 223.428 381.42 223.171 381.42 222.885V192.168H388.113V215.592L400.254 202.207H403.085ZM412.998 202.207V224H407.721C407.064 224 406.663 223.871 406.52 223.614C406.377 223.328 406.306 222.942 406.306 222.456V202.207H412.998ZM406.005 195.514C406.005 194.571 406.32 193.784 406.949 193.155C407.607 192.497 408.408 192.168 409.352 192.168C410.295 192.168 411.082 192.497 411.711 193.155C412.369 193.784 412.698 194.571 412.698 195.514C412.698 196.458 412.369 197.259 411.711 197.917C411.082 198.546 410.295 198.861 409.352 198.861C408.408 198.861 407.607 198.546 406.949 197.917C406.32 197.259 406.005 196.458 406.005 195.514ZM425.525 224H420.462C419.805 224 419.361 223.9 419.133 223.7C418.932 223.471 418.832 223.056 418.832 222.456V202.207H423.68C424.281 202.207 424.724 202.421 425.01 202.85C425.153 203.079 425.239 203.294 425.267 203.494C426.068 203.008 426.897 202.636 427.755 202.378C428.642 202.121 429.443 201.992 430.158 201.992C433.59 201.992 436.178 202.636 437.923 203.923C439.696 205.21 440.583 207.155 440.583 209.757V224H435.52C434.863 224 434.419 223.9 434.19 223.7C433.99 223.471 433.89 223.056 433.89 222.456V211.216C433.89 208.613 433.547 206.74 432.861 205.596C432.174 204.452 431.13 203.88 429.729 203.88C428.27 203.88 426.84 204.395 425.439 205.424C425.467 205.682 425.482 205.939 425.482 206.196C425.51 206.454 425.525 206.726 425.525 207.012V224ZM459.135 193.755H468.787C472.419 193.755 475.065 194.27 476.724 195.3C478.383 196.301 479.212 197.831 479.212 199.89C479.212 201.692 478.583 203.151 477.324 204.266C476.066 205.353 474.05 206.053 471.275 206.368C472.591 206.368 473.821 206.525 474.965 206.84C476.137 207.126 477.167 207.612 478.054 208.299C478.94 208.985 479.641 209.886 480.156 211.001C480.671 212.117 480.928 213.489 480.928 215.12C480.928 217.15 480.513 218.752 479.684 219.924C478.854 221.097 477.811 221.984 476.552 222.584C475.294 223.185 473.935 223.571 472.477 223.743C471.018 223.914 469.645 224 468.358 224H460.979C459.75 224 459.135 223.328 459.135 221.984V193.755ZM465.827 222.112H468.358C472.248 222.112 474.193 219.781 474.193 215.12C474.193 213.747 474.078 212.574 473.849 211.602C473.621 210.601 473.235 209.786 472.691 209.157C472.148 208.527 471.418 208.07 470.503 207.784C469.588 207.498 468.444 207.355 467.071 207.355H465.827V222.112ZM465.827 195.643V205.467H468.015C469.102 205.467 469.96 205.338 470.589 205.081C471.247 204.795 471.733 204.409 472.048 203.923C472.391 203.437 472.605 202.865 472.691 202.207C472.806 201.52 472.848 200.777 472.82 199.976C472.763 198.346 472.391 197.216 471.704 196.587C471.047 195.958 470.074 195.643 468.787 195.643H465.827ZM499.488 211.945C499.459 210.687 499.374 209.586 499.231 208.642C499.088 207.669 498.902 206.897 498.673 206.325C498.301 205.439 497.772 204.809 497.086 204.438C496.428 204.066 495.555 203.88 494.469 203.88C492.352 203.88 490.965 204.609 490.307 206.068C489.993 206.783 489.764 207.641 489.621 208.642C489.507 209.643 489.449 210.744 489.449 211.945H499.488ZM494.469 224.644C490.665 224.644 487.762 223.685 485.76 221.769C484.759 220.797 484.001 219.567 483.486 218.08C483 216.564 482.757 214.905 482.757 213.103C482.757 209.586 483.772 206.854 485.803 204.909C487.833 202.965 490.722 201.992 494.469 201.992C498.215 201.992 501.104 202.965 503.134 204.909C504.135 205.853 504.879 207.069 505.365 208.556C505.88 210.015 506.152 211.602 506.18 213.318V213.79H489.449C489.478 216.078 489.578 217.737 489.75 218.766C489.95 219.796 490.121 220.425 490.264 220.654C490.522 221.111 490.808 221.483 491.122 221.769C491.466 222.027 491.823 222.241 492.195 222.413C492.595 222.556 493.01 222.656 493.439 222.713C493.897 222.77 494.34 222.799 494.769 222.799C496.542 222.799 498.158 222.556 499.617 222.069C501.075 221.583 502.448 220.725 503.735 219.495L505.108 220.911C504.25 221.769 503.363 222.456 502.448 222.97C501.533 223.457 500.603 223.814 499.66 224.043C498.744 224.3 497.843 224.458 496.957 224.515C496.07 224.601 495.241 224.644 494.469 224.644ZM531.403 224H526.384C526.012 224 525.683 223.886 525.397 223.657C525.139 223.428 524.968 223.099 524.882 222.67C524.539 223.013 524.124 223.314 523.638 223.571C523.152 223.8 522.637 224 522.094 224.172C521.55 224.343 520.992 224.458 520.42 224.515C519.877 224.601 519.348 224.644 518.833 224.644C517.403 224.644 516.03 224.472 514.715 224.129C513.399 223.814 512.241 223.342 511.24 222.713C510.239 222.055 509.438 221.24 508.837 220.268C508.265 219.295 507.979 218.18 507.979 216.921C507.979 215.52 508.337 214.347 509.052 213.404C509.767 212.46 510.682 211.702 511.798 211.13C512.913 210.529 514.157 210.115 515.53 209.886C516.931 209.628 518.318 209.5 519.691 209.5C521.493 209.5 523.166 209.857 524.71 210.572V208.642C524.71 207.269 524.253 206.139 523.338 205.253C522.451 204.337 521.093 203.88 519.262 203.88C518.09 203.88 517.017 204.023 516.045 204.309C515.072 204.595 514.057 205.038 512.999 205.639L512.355 203.837C514.557 202.607 516.86 201.992 519.262 201.992C521.579 201.992 523.509 202.221 525.054 202.679C526.627 203.136 527.885 203.837 528.829 204.781C529.773 205.696 530.43 206.854 530.802 208.256C531.203 209.628 531.403 211.244 531.403 213.103V224ZM524.71 212.503C523.08 211.759 521.407 211.387 519.691 211.387C518.633 211.387 517.775 211.545 517.117 211.859C516.459 212.145 515.945 212.546 515.573 213.06C515.23 213.547 514.986 214.119 514.843 214.776C514.729 215.434 514.672 216.135 514.672 216.879C514.672 217.708 514.729 218.494 514.843 219.238C514.958 219.953 515.201 220.582 515.573 221.126C515.945 221.64 516.445 222.055 517.074 222.37C517.732 222.656 518.604 222.799 519.691 222.799C520.749 222.799 521.693 222.613 522.523 222.241C523.381 221.869 524.138 221.412 524.796 220.868C524.796 220.439 524.782 220.082 524.753 219.796C524.753 219.51 524.739 219.238 524.71 218.981C524.71 218.723 524.71 218.466 524.71 218.208C524.71 217.951 524.71 217.622 524.71 217.222V212.503ZM551.28 202.207H557.972V224H553.039C552.896 224 552.724 223.957 552.524 223.871C552.324 223.785 552.109 223.628 551.88 223.399C551.737 223.285 551.637 223.113 551.58 222.885C551.237 223.171 550.836 223.428 550.379 223.657C549.921 223.857 549.449 224.029 548.963 224.172C548.477 224.343 547.991 224.458 547.504 224.515C547.047 224.601 546.646 224.644 546.303 224.644C544.501 224.644 542.957 224.443 541.67 224.043C540.383 223.642 539.325 223.085 538.495 222.37C537.695 221.626 537.108 220.754 536.737 219.753C536.365 218.752 536.179 217.651 536.179 216.45V202.207H542.914V218.208C542.914 219.81 543.257 220.968 543.944 221.683C544.63 222.398 545.674 222.756 547.075 222.756C548.477 222.756 549.893 222.241 551.323 221.211C551.294 220.954 551.28 220.697 551.28 220.439C551.28 220.182 551.28 219.91 551.28 219.624V202.207ZM571.466 218.981C571.466 220.411 571.738 221.397 572.282 221.941C572.825 222.484 573.468 222.756 574.212 222.756C574.87 222.756 575.456 222.599 575.971 222.284C576.514 221.941 576.958 221.512 577.301 220.997L578.674 222.112C578.445 222.541 578.145 222.913 577.773 223.228C577.43 223.542 577.029 223.8 576.572 224C576.114 224.229 575.642 224.386 575.156 224.472C574.67 224.586 574.212 224.644 573.783 224.644C570.694 224.644 568.406 223.714 566.919 221.855C565.46 219.967 564.731 217.265 564.731 213.747V203.88H561.385V201.992H564.731V196.329H571.466V201.992H577.301V203.88H571.466V218.981ZM578.561 202.207H584.824C585.024 202.207 585.224 202.25 585.425 202.335C585.653 202.421 585.839 202.636 585.982 202.979L591.045 215.677L596.193 202.207H598.809C598.466 203.036 598.023 204.123 597.48 205.467C596.936 206.811 596.336 208.299 595.678 209.929C595.02 211.559 594.334 213.275 593.619 215.077C592.904 216.85 592.189 218.609 591.474 220.353C590.759 222.098 590.072 223.757 589.414 225.33C588.785 226.903 588.213 228.29 587.698 229.491C587.298 230.435 586.697 231.136 585.897 231.593C585.124 232.08 584.281 232.337 583.365 232.366C582.565 232.394 581.878 232.337 581.306 232.194C580.763 232.051 580.205 231.822 579.633 231.508L580.362 229.663C581.392 230.206 582.336 230.449 583.194 230.392C583.68 230.364 584.138 230.235 584.567 230.006C585.024 229.806 585.382 229.391 585.639 228.762L587.655 223.957L578.561 202.207ZM625.966 192.726L639.351 224H633.902C633.245 224 632.816 223.928 632.615 223.785C632.444 223.642 632.286 223.399 632.143 223.056L628.754 214.991H618.244L614.469 224H612.281L625.151 192.726H625.966ZM619.016 213.146H627.982L623.521 202.507L619.016 213.146ZM659.101 221.297C658.014 222.384 656.727 223.213 655.24 223.785C653.781 224.358 652.265 224.644 650.692 224.644C648.805 224.644 647.132 224.343 645.673 223.743C644.243 223.113 643.028 222.313 642.027 221.34C640.025 219.424 639.024 216.678 639.024 213.103C639.024 209.586 640.039 206.854 642.069 204.909C643.07 203.937 644.386 203.208 646.016 202.722C647.646 202.235 649.405 201.992 651.293 201.992C652.237 201.992 653.252 202.15 654.339 202.464C655.426 202.779 656.441 203.294 657.385 204.009L656.355 205.596C655.297 204.852 654.353 204.38 653.524 204.18C652.694 203.98 651.951 203.88 651.293 203.88C650.092 203.88 649.019 204.123 648.075 204.609C647.16 205.067 646.574 205.753 646.317 206.668C646.202 207.04 646.102 207.412 646.016 207.784C645.959 208.127 645.902 208.542 645.845 209.028C645.816 209.485 645.787 210.043 645.759 210.701C645.73 211.359 645.716 212.16 645.716 213.103C645.716 215.306 645.759 216.921 645.845 217.951C645.959 218.981 646.116 219.724 646.317 220.182C647.089 221.926 648.547 222.799 650.692 222.799C652.237 222.799 653.581 222.541 654.725 222.027C655.898 221.483 656.941 220.754 657.857 219.839L659.101 221.297ZM683.48 224H678.461C678.089 224 677.76 223.886 677.474 223.657C677.217 223.428 677.045 223.099 676.959 222.67C676.616 223.013 676.201 223.314 675.715 223.571C675.229 223.8 674.714 224 674.171 224.172C673.627 224.343 673.07 224.458 672.498 224.515C671.954 224.601 671.425 224.644 670.91 224.644C669.48 224.644 668.107 224.472 666.792 224.129C665.476 223.814 664.318 223.342 663.317 222.713C662.316 222.055 661.515 221.24 660.915 220.268C660.343 219.295 660.057 218.18 660.057 216.921C660.057 215.52 660.414 214.347 661.129 213.404C661.844 212.46 662.759 211.702 663.875 211.13C664.99 210.529 666.234 210.115 667.607 209.886C669.008 209.628 670.395 209.5 671.768 209.5C673.57 209.5 675.243 209.857 676.788 210.572V208.642C676.788 207.269 676.33 206.139 675.415 205.253C674.528 204.337 673.17 203.88 671.339 203.88C670.167 203.88 669.094 204.023 668.122 204.309C667.149 204.595 666.134 205.038 665.076 205.639L664.432 203.837C666.635 202.607 668.937 201.992 671.339 201.992C673.656 201.992 675.586 202.221 677.131 202.679C678.704 203.136 679.962 203.837 680.906 204.781C681.85 205.696 682.508 206.854 682.879 208.256C683.28 209.628 683.48 211.244 683.48 213.103V224ZM676.788 212.503C675.157 211.759 673.484 211.387 671.768 211.387C670.71 211.387 669.852 211.545 669.194 211.859C668.536 212.145 668.022 212.546 667.65 213.06C667.307 213.547 667.064 214.119 666.921 214.776C666.806 215.434 666.749 216.135 666.749 216.879C666.749 217.708 666.806 218.494 666.921 219.238C667.035 219.953 667.278 220.582 667.65 221.126C668.022 221.64 668.522 222.055 669.151 222.37C669.809 222.656 670.681 222.799 671.768 222.799C672.826 222.799 673.77 222.613 674.6 222.241C675.458 221.869 676.216 221.412 676.873 220.868C676.873 220.439 676.859 220.082 676.83 219.796C676.83 219.51 676.816 219.238 676.788 218.981C676.788 218.723 676.788 218.466 676.788 218.208C676.788 217.951 676.788 217.622 676.788 217.222V212.503ZM708.994 192.168V224H704.233C703.832 224 703.46 223.9 703.117 223.7C702.803 223.499 702.588 223.156 702.474 222.67C702.216 222.985 701.887 223.271 701.487 223.528C701.087 223.757 700.658 223.957 700.2 224.129C699.771 224.3 699.328 224.429 698.87 224.515C698.441 224.601 698.055 224.644 697.712 224.644C696.082 224.644 694.609 224.329 693.293 223.7C692.006 223.07 690.905 222.227 689.99 221.169C689.103 220.11 688.417 218.881 687.931 217.479C687.473 216.078 687.244 214.605 687.244 213.06C687.244 209.6 688.217 206.897 690.161 204.952C692.135 202.979 694.78 201.992 698.098 201.992C699.471 201.992 700.872 202.464 702.302 203.408V192.168H708.994ZM693.937 213.06C693.937 214.262 693.937 215.263 693.937 216.063C693.965 216.864 693.994 217.536 694.022 218.08C694.08 218.623 694.137 219.052 694.194 219.367C694.251 219.653 694.323 219.896 694.408 220.096C695.095 221.698 696.325 222.498 698.098 222.498C698.87 222.498 699.628 222.313 700.372 221.941C701.144 221.54 701.787 221.054 702.302 220.482V205.381C700.901 204.38 699.499 203.88 698.098 203.88C696.296 203.88 695.066 204.681 694.408 206.282C694.323 206.511 694.251 206.783 694.194 207.097C694.137 207.383 694.08 207.784 694.022 208.299C693.994 208.785 693.965 209.414 693.937 210.186C693.937 210.958 693.937 211.916 693.937 213.06ZM729.489 211.945C729.46 210.687 729.375 209.586 729.232 208.642C729.089 207.669 728.903 206.897 728.674 206.325C728.302 205.439 727.773 204.809 727.087 204.438C726.429 204.066 725.556 203.88 724.47 203.88C722.353 203.88 720.966 204.609 720.308 206.068C719.994 206.783 719.765 207.641 719.622 208.642C719.508 209.643 719.45 210.744 719.45 211.945H729.489ZM724.47 224.644C720.666 224.644 717.763 223.685 715.761 221.769C714.76 220.797 714.002 219.567 713.487 218.08C713.001 216.564 712.758 214.905 712.758 213.103C712.758 209.586 713.773 206.854 715.804 204.909C717.834 202.965 720.723 201.992 724.47 201.992C728.216 201.992 731.105 202.965 733.135 204.909C734.136 205.853 734.88 207.069 735.366 208.556C735.881 210.015 736.153 211.602 736.181 213.318V213.79H719.45C719.479 216.078 719.579 217.737 719.751 218.766C719.951 219.796 720.122 220.425 720.265 220.654C720.523 221.111 720.809 221.483 721.123 221.769C721.467 222.027 721.824 222.241 722.196 222.413C722.596 222.556 723.011 222.656 723.44 222.713C723.898 222.77 724.341 222.799 724.77 222.799C726.543 222.799 728.159 222.556 729.618 222.069C731.076 221.583 732.449 220.725 733.736 219.495L735.109 220.911C734.251 221.769 733.364 222.456 732.449 222.97C731.534 223.457 730.604 223.814 729.661 224.043C728.745 224.3 727.844 224.458 726.958 224.515C726.071 224.601 725.242 224.644 724.47 224.644ZM746.646 224H741.584C740.926 224 740.483 223.9 740.254 223.7C740.054 223.471 739.954 223.056 739.954 222.456V202.207H744.802C745.231 202.207 745.588 202.335 745.874 202.593C746.16 202.822 746.332 203.122 746.389 203.494C747.19 203.008 748.019 202.636 748.877 202.378C749.764 202.121 750.564 201.992 751.279 201.992C755.398 201.992 758.315 202.936 760.031 204.824C761.261 203.651 762.419 202.893 763.506 202.55C764.621 202.178 765.579 201.992 766.38 201.992C769.812 201.992 772.401 202.636 774.145 203.923C775.918 205.21 776.805 207.155 776.805 209.757V224H771.743C771.085 224 770.642 223.9 770.413 223.7C770.213 223.471 770.113 223.056 770.113 222.456V211.216C770.113 208.613 769.769 206.74 769.083 205.596C768.397 204.452 767.353 203.88 765.951 203.88C764.95 203.88 764.035 204.094 763.206 204.523C762.376 204.952 761.633 205.453 760.975 206.025C761.461 207.054 761.704 208.213 761.704 209.5V224H756.642C755.984 224 755.541 223.9 755.312 223.7C755.112 223.471 755.012 223.056 755.012 222.456V211.216C755.012 208.613 754.669 206.74 753.982 205.596C753.296 204.452 752.252 203.88 750.85 203.88C749.42 203.88 748.005 204.395 746.603 205.424C746.632 205.682 746.646 205.939 746.646 206.196C746.646 206.454 746.646 206.726 746.646 207.012V224ZM778.23 202.207H784.493C784.694 202.207 784.894 202.25 785.094 202.335C785.323 202.421 785.509 202.636 785.652 202.979L790.714 215.677L795.862 202.207H798.479C798.136 203.036 797.692 204.123 797.149 205.467C796.606 206.811 796.005 208.299 795.347 209.929C794.689 211.559 794.003 213.275 793.288 215.077C792.573 216.85 791.858 218.609 791.143 220.353C790.428 222.098 789.742 223.757 789.084 225.33C788.455 226.903 787.883 228.29 787.368 229.491C786.967 230.435 786.367 231.136 785.566 231.593C784.794 232.08 783.95 232.337 783.035 232.366C782.234 232.394 781.548 232.337 780.976 232.194C780.432 232.051 779.875 231.822 779.303 231.508L780.032 229.663C781.061 230.206 782.005 230.449 782.863 230.392C783.349 230.364 783.807 230.235 784.236 230.006C784.694 229.806 785.051 229.391 785.309 228.762L787.325 223.957L778.23 202.207Z" fill="black" fill-opacity="0.43"/>
</svg>
